<?xml version="1.0" encoding="utf-8"?>
<!-- Generator: Adobe Illustrator 22.0.0, SVG Export Plug-In . SVG Version: 6.00 Build 0)  -->
<svg version="1.1" id="Layer_1" xmlns="http://www.w3.org/2000/svg" xmlns:xlink="http://www.w3.org/1999/xlink" x="0px" y="0px"
	 viewBox="0 0 1250 780" style="enable-background:new 0 0 1250 780;" xml:space="preserve">
<style type="text/css">
	.st0{stroke:#000000;stroke-width:6;stroke-miterlimit:10;}
	.st1{fill:none;stroke:#000000;stroke-width:6;stroke-miterlimit:10;}
	.st2{fill:#FFFFFF;}
</style>
<g>
	<g>
		<path class="st0" d="M744.9,416.9c-3.5-6.3-13.3-38.1-19.1-60.3L628.9,26.7L532,356.6c-5.8,22.2-15.6,54-19.1,60.3L282.1,716.8
			c0.7-0.4,1.6-0.8,2.5-1.3L434.3,635c21.2-11.8,33.7-16.5,43.8-19.9c18.9-6.4,29.4-7.9,49.9-1.4c15.6,4.9,22,14.7,34.7,26.9
			c22.6,21.7,28.6,26.3,39.7,30.4c9.8,3.8,17.7,5.3,26.6,4.9c8.9,0.4,16.8-1.1,26.6-4.9c11.1-4.1,17.1-8.7,39.7-30.4
			c12.8-12.2,19.1-22,34.7-26.9c20.5-6.6,31-5,49.9,1.4c10,3.4,22.6,8.1,43.8,19.9l149.7,80.5c0.9,0.5,1.7,0.9,2.5,1.3L744.9,416.9z
			 M880.6,637.2c-0.8,1.4-3.1,0.8-9.1-2.5l-136.1-71.9c-11.5-5-20.5-7-31.5-3c-10.4,3.8-17,13-25.2,20.5
			c-16.7,15.3-20.8,19.4-29.3,22.6c-7.4,2.9-12.7,4.6-20.5,4.8c-7.8-0.2-13.1-1.9-20.5-4.8c-8.6-3.2-12.6-7.3-29.3-22.6
			c-8.2-7.5-14.8-16.7-25.2-20.5c-11-4-20-2-31.5,3l-136.1,71.9c-6,3.3-8.3,4-9.1,2.5c-1-1.5,0.5-4.1,7.1-12.5L532.3,430
			c5-6.5,7.7-10.5,8.6-12.2c2.1-3.8,11.1-28.1,15.5-45.3l68.9-239c1-2.1,2.7-2.8,3.6-2.8c0.9,0,2.6,0.7,3.6,2.8l68.9,239
			c4.4,17.1,13.5,41.5,15.5,45.3c1,1.8,3.6,5.7,8.6,12.2l147.9,194.7C880.1,633.1,881.6,635.7,880.6,637.2z"/>
		<g>
			<g>
				<path d="M627.8,388.3c-42.9,0-77.7,34.8-77.7,77.7c0,42.9,34.8,77.7,77.7,77.7s77.7-34.8,77.7-77.7
					C705.4,423,670.7,388.3,627.8,388.3z M627.8,522.1c-31,0-56.2-25.2-56.2-56.2s25.2-56.2,56.2-56.2s56.2,25.2,56.2,56.2
					S658.8,522.1,627.8,522.1z"/>
			</g>
			<g>
				<path class="st1" d="M627.8,388.3c-42.9,0-77.7,34.8-77.7,77.7c0,42.9,34.8,77.7,77.7,77.7s77.7-34.8,77.7-77.7
					C705.4,423,670.7,388.3,627.8,388.3z M627.8,522.1c-31,0-56.2-25.2-56.2-56.2s25.2-56.2,56.2-56.2s56.2,25.2,56.2,56.2
					S658.8,522.1,627.8,522.1z"/>
			</g>
		</g>
		<g>
			<path class="st0" d="M111.8,561.7c25.2,55,87.9,101.7,172.9,135.4c4.1-5.3,8.3-11.1,10.5-14.5c3.2-4.9,6.8-9.6,10.7-14l0.2-0.2
				c3.6-3.6,11.1-13.2,19.1-23.8c-13.5-6.9-26.2-14.3-37.8-22.1c-36.3-24.3-61.6-51.4-75-80.8s-14.2-59-2.3-88.3
				c3.2-8,7.4-15.8,12.4-23.5c12.8-19.7,31.3-38.4,55.3-55.9c33.4-24.4,75.7-45.2,125.8-61.9c42.8-14.2,89.7-24.9,139.9-31.9
				c1-3,2.9-9.4,4.7-16.2c-2.2,0.2-4.3,0.3-6.5,0.5c-2.2,0.2-4.3,0.4-6.5,0.6c-2.2,0.2-4.4,0.4-6.6,0.6c-4.4,0.4-8.7,0.8-13.1,1.3
				c-4.4,0.5-8.8,0.9-13.2,1.5c-2.2,0.3-4.3,0.5-6.4,0.8C223.8,302.6,52.4,431.8,111.8,561.7z"/>
			<path class="st0" d="M736.3,749.4c74.3-7.7,141.5-22.4,199.2-42.2c-3.3-1.7-6.5-3.5-9.7-5.4c-3.7-2.3-12.8-7.1-19.5-10.5
				c-1.7-0.8-3.6-1.8-5.5-2.8c-39.2,10.1-81.7,17.7-126.2,22.3c-62.5,6.5-125.4,7.1-188,1.7c-60.1-5.2-116.8-15.7-168.4-31.2
				c-10.4-3.1-20.5-6.4-30.3-9.9c-7.3,3.8-16.5,8.8-21.7,11.8c-6.5,3.6-26.8,14.5-48.5,26.1c87.6,29.5,194.4,46.2,306.3,46
				C661,755.2,698.6,753.3,736.3,749.4L736.3,749.4C736.3,749.4,736.3,749.4,736.3,749.4z"/>
			<path class="st0" d="M1147.1,473.5c7.5,42.1-10.6,84.1-52.1,121.4c-9.6,8.7-20.5,17.1-32.5,25.2c-30.3,20.3-67.1,38-108.7,52.4
				c4.4,5.5,10.8,13.9,16.6,21.5c81.2-33.4,139.4-77.7,165.9-126.9c0.1-0.1,0.1-0.2,0.2-0.3C1152.2,537.1,1156.4,505.5,1147.1,473.5
				z"/>
			<path class="st0" d="M711.1,271.5c18.6,0.6,37.1,1.7,55.7,3.4c53.3,4.8,103.7,13.7,150.3,26.6c-63.2-19.5-134.3-32.2-208.1-37.5
				C709.5,265.8,710.2,268.3,711.1,271.5z"/>
		</g>
		<path class="st0" d="M1057.9,316.5c-27.1,0-49,21.9-49,49s21.9,49,49,49s49-21.9,49-49S1085,316.5,1057.9,316.5z M1057.9,400.7
			c-19.3,0-35-15.7-35-35s15.7-35,35-35s35,15.7,35,35S1077.3,400.7,1057.9,400.7z"/>
	</g>
	<g>
		<path class="st2" d="M744.9,416.9c-3.5-6.3-13.3-38.1-19.1-60.3L628.9,26.7L532,356.6c-5.8,22.2-15.6,54-19.1,60.3L282.1,716.8
			c0.7-0.4,1.6-0.8,2.5-1.3L434.3,635c21.2-11.8,33.7-16.5,43.8-19.9c18.9-6.4,29.4-7.9,49.9-1.4c15.6,4.9,22,14.7,34.7,26.9
			c22.6,21.7,28.6,26.3,39.7,30.4c9.8,3.8,17.7,5.3,26.6,4.9c8.9,0.4,16.8-1.1,26.6-4.9c11.1-4.1,17.1-8.7,39.7-30.4
			c12.8-12.2,19.1-22,34.7-26.9c20.5-6.6,31-5,49.9,1.4c10,3.4,22.6,8.1,43.8,19.9l149.7,80.5c0.9,0.5,1.7,0.9,2.5,1.3L744.9,416.9z
			 M880.6,637.2c-0.8,1.4-3.1,0.8-9.1-2.5l-136.1-71.9c-11.5-5-20.5-7-31.5-3c-10.4,3.8-17,13-25.2,20.5
			c-16.7,15.3-20.8,19.4-29.3,22.6c-7.4,2.9-12.7,4.6-20.5,4.8c-7.8-0.2-13.1-1.9-20.5-4.8c-8.6-3.2-12.6-7.3-29.3-22.6
			c-8.2-7.5-14.8-16.7-25.2-20.5c-11-4-20-2-31.5,3l-136.1,71.9c-6,3.3-8.3,4-9.1,2.5c-1-1.5,0.5-4.1,7.1-12.5L532.3,430
			c5-6.5,7.7-10.5,8.6-12.2c2.1-3.8,11.1-28.1,15.5-45.3l68.9-239c1-2.1,2.7-2.8,3.6-2.8c0.9,0,2.6,0.7,3.6,2.8l68.9,239
			c4.4,17.1,13.5,41.5,15.5,45.3c1,1.8,3.6,5.7,8.6,12.2l147.9,194.7C880.1,633.1,881.6,635.7,880.6,637.2z"/>
		<g>
			<g>
				<path class="st2" d="M627.8,388.3c-42.9,0-77.7,34.8-77.7,77.7c0,42.9,34.8,77.7,77.7,77.7s77.7-34.8,77.7-77.7
					C705.4,423,670.7,388.3,627.8,388.3z M627.8,522.1c-31,0-56.2-25.2-56.2-56.2s25.2-56.2,56.2-56.2s56.2,25.2,56.2,56.2
					S658.8,522.1,627.8,522.1z"/>
			</g>
		</g>
		<g>
			<path class="st2" d="M111.8,561.7c25.2,55,87.9,101.7,172.9,135.4c4.1-5.3,8.3-11.1,10.5-14.5c3.2-4.9,6.8-9.6,10.7-14l0.2-0.2
				c3.6-3.6,11.1-13.2,19.1-23.8c-13.5-6.9-26.2-14.3-37.8-22.1c-36.3-24.3-61.6-51.4-75-80.8s-14.2-59-2.3-88.3
				c3.2-8,7.4-15.8,12.4-23.5c12.8-19.7,31.3-38.4,55.3-55.9c33.4-24.4,75.7-45.2,125.8-61.9c42.8-14.2,89.7-24.9,139.9-31.9
				c1-3,2.9-9.4,4.7-16.2c-2.2,0.2-4.3,0.3-6.5,0.5c-2.2,0.2-4.3,0.4-6.5,0.6c-2.2,0.2-4.4,0.4-6.6,0.6c-4.4,0.4-8.7,0.8-13.1,1.3
				c-4.4,0.5-8.8,0.9-13.2,1.5c-2.2,0.3-4.3,0.5-6.4,0.8C223.8,302.6,52.4,431.8,111.8,561.7z"/>
			<path class="st2" d="M736.3,749.4c74.3-7.7,141.5-22.4,199.2-42.2c-3.3-1.7-6.5-3.5-9.7-5.4c-3.7-2.3-12.8-7.1-19.5-10.5
				c-1.7-0.8-3.6-1.8-5.5-2.8c-39.2,10.1-81.7,17.7-126.2,22.3c-62.5,6.5-125.4,7.1-188,1.7c-60.1-5.2-116.8-15.7-168.4-31.2
				c-10.4-3.1-20.5-6.4-30.3-9.9c-7.3,3.8-16.5,8.8-21.7,11.8c-6.5,3.6-26.8,14.5-48.5,26.1c87.6,29.5,194.4,46.2,306.3,46
				C661,755.2,698.6,753.3,736.3,749.4L736.3,749.4C736.3,749.4,736.3,749.4,736.3,749.4z"/>
			<path class="st2" d="M1147.1,473.5c7.5,42.1-10.6,84.1-52.1,121.4c-9.6,8.7-20.5,17.1-32.5,25.2c-30.3,20.3-67.1,38-108.7,52.4
				c4.4,5.5,10.8,13.9,16.6,21.5c81.2-33.4,139.4-77.7,165.9-126.9c0.1-0.1,0.1-0.2,0.2-0.3C1152.2,537.1,1156.4,505.5,1147.1,473.5
				z"/>
			<path class="st2" d="M711.1,271.5c18.6,0.6,37.1,1.7,55.7,3.4c53.3,4.8,103.7,13.7,150.3,26.6c-63.2-19.5-134.3-32.2-208.1-37.5
				C709.5,265.8,710.2,268.3,711.1,271.5z"/>
		</g>
		<path class="st2" d="M1057.9,316.5c-27.1,0-49,21.9-49,49s21.9,49,49,49s49-21.9,49-49S1085,316.5,1057.9,316.5z M1057.9,400.7
			c-19.3,0-35-15.7-35-35s15.7-35,35-35s35,15.7,35,35S1077.3,400.7,1057.9,400.7z"/>
	</g>
</g>
</svg>
