<?xml version="1.0" encoding="utf-8"?>
<!-- Generator: Adobe Illustrator 22.0.0, SVG Export Plug-In . SVG Version: 6.00 Build 0)  -->
<svg version="1.1" id="Layer_1" xmlns="http://www.w3.org/2000/svg" xmlns:xlink="http://www.w3.org/1999/xlink" x="0px" y="0px"
	 viewBox="0 0 1920 60" style="enable-background:new 0 0 1920 60;" xml:space="preserve">
<style type="text/css">
	.st0{fill:none;stroke:#000000;stroke-miterlimit:10;}
	.st1{fill:none;stroke:#000000;stroke-width:10;stroke-miterlimit:10;}
</style>
<g>
	<rect x="448.5" y="0.5" width="1023" height="59"/>
	<path d="M1471,1V59H449V1H1471 M1472,0H448v60h1024V0L1472,0z"/>
</g>
<g>
	<g id="XMLID_1_">
		<g>
			<path d="M447.5,30.5v29c-8-0.2-21.5-1-37.6-4.7C384.8,49,374.8,41,350.2,35.3c-8.9-2.1-22.8-4.6-40.7-4.7v-0.1v-1v-0.1
				c17.9-0.1,31.8-2.6,40.7-4.7C374.8,19,384.8,11,409.9,5.2c16.1-3.7,29.6-4.5,37.6-4.7v29V30.5z"/>
		</g>
		<g>
			<line class="st0" x1="447.5" y1="30.5" x2="447.5" y2="59.5"/>
			<path class="st0" d="M308.7,29.4c0.3,0,0.6,0,0.8,0c17.9-0.1,31.8-2.6,40.7-4.7C374.8,19,384.8,11,409.9,5.2
				c16.1-3.7,29.6-4.5,37.6-4.7"/>
			<line class="st0" x1="447.5" y1="29.5" x2="447.5" y2="0.5"/>
			<path class="st0" d="M308.7,30.6c0.3,0,0.6,0,0.8,0c17.9,0.1,31.8,2.6,40.7,4.7c24.6,5.8,34.6,13.7,59.7,19.5
				c16.1,3.7,29.6,4.5,37.6,4.7"/>
			<line class="st0" x1="309.5" y1="29.5" x2="309.5" y2="30.5"/>
		</g>
	</g>
</g>
<line class="st1" x1="0" y1="30" x2="448.5" y2="30.5"/>
<g>
	<g id="XMLID_2_">
		<g>
			<path d="M1472.5,30.5v29c8-0.2,21.5-1,37.6-4.7c25.1-5.8,35.1-13.8,59.7-19.5c8.9-2.1,22.8-4.6,40.7-4.7v-0.1v-1v-0.1
				c-17.9-0.1-31.8-2.6-40.7-4.7c-24.6-5.8-34.6-13.7-59.7-19.5c-16.1-3.7-29.6-4.5-37.6-4.7v29V30.5z"/>
		</g>
		<g>
			<line class="st0" x1="1472.5" y1="30.5" x2="1472.5" y2="59.5"/>
			<path class="st0" d="M1611.3,29.4c-0.3,0-0.6,0-0.8,0c-17.9-0.1-31.8-2.6-40.7-4.7c-24.6-5.8-34.6-13.7-59.7-19.5
				c-16.1-3.7-29.6-4.5-37.6-4.7"/>
			<line class="st0" x1="1472.5" y1="29.5" x2="1472.5" y2="0.5"/>
			<path class="st0" d="M1611.3,30.6c-0.3,0-0.6,0-0.8,0c-17.9,0.1-31.8,2.6-40.7,4.7c-24.6,5.8-34.6,13.7-59.7,19.5
				c-16.1,3.7-29.6,4.5-37.6,4.7"/>
			<line class="st0" x1="1610.5" y1="29.5" x2="1610.5" y2="30.5"/>
		</g>
	</g>
</g>
<line class="st1" x1="1472" y1="30" x2="1920.5" y2="30.5"/>
</svg>
