<?xml version="1.0" encoding="utf-8"?>
<!-- Generator: Adobe Illustrator 22.0.0, SVG Export Plug-In . SVG Version: 6.00 Build 0)  -->
<svg version="1.1" id="Layer_1" xmlns="http://www.w3.org/2000/svg" xmlns:xlink="http://www.w3.org/1999/xlink" x="0px" y="0px"
	 viewBox="0 0 1250 780" style="enable-background:new 0 0 1250 780;" xml:space="preserve">
<style type="text/css">
	.st0{clip-path:url(#SVGID_2_);}
	.st1{fill:#0C45F2;}
	.st2{fill:#0C4568;}
	.st3{clip-path:url(#SVGID_4_);}
	.st4{fill:#2D00C9;}
	.st5{fill:#FFFFFF;}
	.st6{fill:#0000FF;}
</style>
<g id="Layer_1_1_">
	<g>
		<g>
			<defs>
				<polygon id="SVGID_1_" points="221.1,789.4 0,306 1029.8,198.6 1251,682 				"/>
			</defs>
			<clipPath id="SVGID_2_">
				<use xlink:href="#SVGID_1_"  style="overflow:visible;"/>
			</clipPath>
			<g class="st0">
				<path class="st1" d="M515.3,252.8C231.8,282.3,50.7,414.6,111.5,547.6s341,217.2,624.5,187.6c84.8-8.8,160.4-26.7,223.1-50.9
					c87.2-33.9,149.5-80.2,177.1-131.7c15.8-29.8,20-61.5,10.5-93.7c9.5,51.9-20.1,103.8-84.5,147c-68.7,46.2-171,78.3-287.9,90.5
					c-62.5,6.5-125.4,7.1-188,1.7c-60.1-5.2-116.8-15.7-168.4-31.2s-95.6-35.3-130.8-58.7c-36.4-24.3-61.6-51.4-75-80.8
					s-14.2-59-2.3-88.3c11.5-28.3,34.2-55,67.6-79.4s75.7-45.2,125.8-61.9c51.9-17.3,109.9-29.3,172.4-35.9
					c63.4-6.6,127.3-7.1,190.9-1.5c54,4.8,105.1,13.9,152.2,27.1C800.6,251,654.8,238.2,515.3,252.8"/>
				<path class="st2" d="M736,735.2c-283.5,29.5-563.6-54.6-624.5-187.6s120.3-265.3,403.8-294.8c139.5-14.5,285.3-1.8,403.4,35.1
					c-47.1-13.2-98.3-22.3-152.2-27.1c-63.5-5.6-127.4-5.2-190.9,1.5c-62.5,6.5-120.5,18.6-172.4,35.9
					c-50.1,16.7-92.5,37.5-125.8,61.9s-56.1,51.1-67.6,79.4c-11.9,29.3-11.1,59,2.3,88.3s38.7,56.5,75,80.8
					c35.2,23.4,79.2,43.2,130.8,58.7s108.3,26,168.4,31.2c62.6,5.4,125.5,4.8,188-1.7c116.9-12.2,219.2-44.3,287.9-90.5
					c64.3-43.3,94-95.1,84.5-147c9.4,32.1,5.3,63.8-10.5,93.7c-27.4,51.7-89.7,97.9-177.1,131.7C896.4,708.6,820.8,726.4,736,735.2
					 M515.1,252.3c-69.5,7.3-134.1,20.7-191.8,39.9c-55.8,18.6-102.9,41.7-140,68.9s-62.5,56.9-75.3,88.3
					c-13.2,32.6-12.4,65.7,2.6,98.3s43,62.9,83.5,89.9c39.1,26.1,88.1,48,145.5,65.3s120.5,29,187.4,34.7
					c69.6,6,139.7,5.3,209.2-1.9c134.3-14,250.3-51.3,326.8-105.2c76.3-53.7,105.2-118,81.4-181.2l-1,0.1
					c31.5,113.5-130.8,221.8-369.4,246.7c-254.7,26.5-506.4-49.1-561-168.6s108.1-238.3,362.8-264.9
					c125.5-13.1,253.5-2.1,360.5,30.9l0.6-0.4C877.5,273,811,259,739.4,251.8C664.8,244.3,589.7,244.5,515.1,252.3"/>
			</g>
		</g>
	</g>
	<g>
		<defs>
			<polygon id="SVGID_3_" points="221.1,789.4 0,306 1029.8,198.6 1251,682 			"/>
		</defs>
		<clipPath id="SVGID_4_">
			<use xlink:href="#SVGID_3_"  style="overflow:visible;"/>
		</clipPath>
		<g class="st3">
			<path class="st4" d="M515.3,252.8C231.8,282.3,50.7,414.6,111.5,547.6s341,217.2,624.5,187.6c84.8-8.8,160.4-26.7,223.1-50.9
				c87.2-33.9,149.5-80.2,177.1-131.7c15.8-29.8,20-61.5,10.5-93.7c9.5,51.9-20.1,103.8-84.5,147c-68.7,46.2-171,78.3-287.9,90.5
				c-62.5,6.5-125.4,7.1-188,1.7c-60.1-5.2-116.8-15.7-168.4-31.2s-95.6-35.3-130.8-58.7c-36.4-24.3-61.6-51.4-75-80.8
				s-14.2-59-2.3-88.3c11.5-28.3,34.2-55,67.6-79.4s75.7-45.2,125.8-61.9c51.9-17.3,109.9-29.3,172.4-35.9
				c63.4-6.6,127.3-7.1,190.9-1.5c54,4.8,105.1,13.9,152.2,27.1C800.6,251,654.8,238.2,515.3,252.8"/>
			<path class="st4" d="M736,735.2c-283.5,29.5-563.6-54.6-624.5-187.6s120.3-265.3,403.8-294.8c139.5-14.5,285.3-1.8,403.4,35.1
				c-47.1-13.2-98.3-22.3-152.2-27.1c-63.5-5.6-127.4-5.2-190.9,1.5c-62.5,6.5-120.5,18.6-172.4,35.9
				c-50.1,16.7-92.5,37.5-125.8,61.9s-56.1,51.1-67.6,79.4c-11.9,29.3-11.1,59,2.3,88.3s38.7,56.5,75,80.8
				c35.2,23.4,79.2,43.2,130.8,58.7s108.3,26,168.4,31.2c62.6,5.4,125.5,4.8,188-1.7c116.9-12.2,219.2-44.3,287.9-90.5
				c64.3-43.3,94-95.1,84.5-147c9.4,32.1,5.3,63.8-10.5,93.7c-27.4,51.7-89.7,97.9-177.1,131.7C896.4,708.6,820.8,726.4,736,735.2
				 M515.1,252.3c-69.5,7.3-134.1,20.7-191.8,39.9c-55.8,18.6-102.9,41.7-140,68.9s-62.5,56.9-75.3,88.3
				c-13.2,32.6-12.4,65.7,2.6,98.3s43,62.9,83.5,89.9c39.1,26.1,88.1,48,145.5,65.3s120.5,29,187.4,34.7c69.6,6,139.7,5.3,209.2-1.9
				c134.3-14,250.3-51.3,326.8-105.2c76.3-53.7,105.2-118,81.4-181.2l-1,0.1c31.5,113.5-130.8,221.8-369.4,246.7
				c-254.7,26.5-506.4-49.1-561-168.6s108.1-238.3,362.8-264.9c125.5-13.1,253.5-2.1,360.5,30.9l0.6-0.4
				C877.5,273,811,259,739.4,251.8C664.8,244.3,589.7,244.5,515.1,252.3"/>
		</g>
	</g>
	<path d="M288.9,710.2c-1.4-2.1,0.7-5.7,10-17.4c5.3-6.6,12.1-15.8,15.2-20.5c3.1-4.7,6.6-9.2,10.3-13.5c4.7-4.8,15.2-18.4,30.6-39
		c4.1-5.5,9.2-12.1,11.4-14.7s9.3-11.5,15.8-20s14.9-19.3,18.8-24.3c21.1-27,28.6-36.9,32.5-42.6c2.3-3.5,5.9-8.4,7.9-10.9
		c8.1-10,37.2-47.2,45.1-57.6c4.6-6.1,14.2-18.5,21.3-27.5s14.1-18.4,15.5-20.8c2.9-5.2,12.4-35.3,18.6-59.1
		c2.4-9.1,6.7-24.1,9.5-33.5s6-20.8,7.1-25.4c1.1-4.4,2.4-8.8,3.9-13.1c1-2.5,3.4-10.8,5.4-18.3s4.9-17.7,6.5-22.5
		c4.6-13.8,7.9-25.2,9.1-32c1.1-5.4,2.6-10.8,4.5-16c4.1-11.9,12.1-38.5,13-43.2c0.4-1.9,2.7-9.6,5.1-17s5.6-18.2,7.2-24
		s6.4-22.2,10.6-36.5s9-30.7,10.7-36.5c1.3-4.7,2.9-9.4,4.7-14c2.2-4.6,5.6-5.2,7.5-1.3c2,4.1,12.5,38.3,19.6,63.8
		c1.6,5.5,5.6,18.6,9,29.2s7.9,25.9,10.1,34s6,21.6,8.5,29.8s7,24,10.1,35s7.1,24.7,8.9,30.5s4.1,13.4,5,17
		c1.6,6.4,5.1,18.7,16,55.3c3.1,10.4,6.5,22.7,7.6,27.5s3.1,12.1,4.4,16.2s4.9,15.8,8,26c8.5,27.4,9.7,29.5,42,70.5
		c7.8,9.9,16,20.5,18.3,23.5s6.5,8.4,9.2,12s7.9,10.3,11.5,15c19.4,25.8,23.4,31.1,28.8,37.5c3.3,3.9,8.3,10.4,11.2,14.5
		s8.4,11.1,12,15.5s9.8,12.3,13.5,17.5s9.9,13.1,13.8,17.5s10.3,12.7,14.3,18.5s9.1,12.8,11.4,15.5s6.8,8.6,10,13s8.6,11.4,12,15.5
		c6.9,8.3,26.3,33.9,31.3,41.2c3.7,5.3,4.3,9.8,1.3,9.8c-2.8,0-7.5-2.2-19.7-9.1c-6-3.4-14.1-7.7-17.9-9.4
		c-4.7-2.2-9.3-4.7-13.8-7.4c-3.7-2.3-12.7-7.1-19.8-10.7s-17.7-9.2-23.3-12.4s-19.1-10.5-30.1-16.2c-19.9-10.4-37.2-19.7-49.5-26.8
		c-6.9-4-8.5-4.6-27.5-10.7c-15.8-5-24.3-5.1-39-0.4c-17,5.5-27,11.7-42,26.1c-26.9,25.8-40,32.8-65.5,34.5
		c-10.7,0.8-19.8-0.7-31.1-5.1c-12.1-4.5-18.5-9.5-41.4-31.5c-12.3-11.8-22.1-17.7-37-22.4c-19.6-6.3-24.2-6.5-43-1.9
		c-10,2.4-22.1,8-42.5,19.4c-12.7,7.1-33.8,18.5-49,26.4c-7.4,3.9-18.2,9.7-24,13c-8.9,4.9-47,25.4-76.8,41.2
		C293.3,711.3,290.1,712.2,288.9,710.2z"/>
	<g id="layer101-2">
		<path class="st5" d="M377,633.8c-1-1.6,0.5-4.3,7.5-13.3c4-5,9.1-12,11.4-15.6c2.3-3.6,4.9-7,7.7-10.3c3.5-3.7,11.4-14,23-29.8
			c3.1-4.2,6.9-9.2,8.6-11.2s7-8.8,11.9-15.3s11.2-14.7,14.1-18.5c15.8-20.6,21.5-28.2,24.4-32.5c1.7-2.7,4.4-6.4,5.9-8.3
			c6.1-7.6,27.9-36,33.9-44c3.5-4.7,10.7-14.1,16-21s10.6-14,11.6-15.9c2.2-4,9.3-26.9,14-45.1c1.8-7,5-18.4,7.1-25.6
			s4.5-15.9,5.3-19.4c0.8-3.4,1.8-6.7,2.9-10c0.8-1.9,2.6-8.3,4.1-14s3.7-13.5,4.9-17.2c3.5-10.5,5.9-19.2,6.8-24.4
			c0.8-4.1,2-8.2,3.4-12.2c3.1-9.1,9.1-29.4,9.8-33c0.3-1.5,2-7.3,3.8-13s4.2-13.9,5.4-18.3s4.8-16.9,8-27.9s6.8-23.4,8-27.9
			s2.9-9.2,3.5-10.7c1.7-3.5,4.2-4,5.6-1c1.5,3.1,9.4,29.2,14.7,48.7c1.2,4.2,4.2,14.2,6.8,22.3c2.5,8.1,5.9,19.8,7.6,25.9
			s4.5,16.5,6.4,22.7s5.3,18.3,7.6,26.7s5.3,18.9,6.7,23.3s3.1,10.2,3.8,13c1.2,4.9,3.8,14.3,12,42.2c2.3,7.9,4.9,17.3,5.7,21
			s2.3,9.2,3.3,12.4c1,3.1,3.7,12.1,6,19.8c6.4,20.9,7.3,22.5,31.5,53.8c5.9,7.6,12,15.7,13.7,17.9s4.9,6.4,6.9,9.2
			s5.9,7.9,8.6,11.5c14.6,19.7,17.6,23.7,21.6,28.6c2.5,3,6.2,7.9,8.4,11.1s6.3,8.5,9,11.8s7.4,9.4,10.1,13.3s7.4,10,10.4,13.4
			c3.8,4.5,7.4,9.2,10.7,14.1c3,4.4,6.8,9.8,8.6,11.8s5.1,6.6,7.5,9.9s6.5,8.7,9,11.8c5.2,6.3,19.8,25.9,23.5,31.4
			c2.8,4,3.2,7.5,1,7.5c-2.1,0-5.6-1.7-14.8-7c-4.5-2.6-10.6-5.9-13.4-7.2c-3.6-1.7-7-3.6-10.4-5.7c-2.8-1.8-9.5-5.4-14.9-8.2
			s-13.3-7-17.5-9.5s-14.3-8-22.6-12.4c-14.9-7.9-27.9-15-37.2-20.5c-5.2-3-6.4-3.5-20.7-8.2c-11.9-3.8-18.3-3.9-29.3-0.3
			c-12.8,4.2-20.3,8.9-31.5,19.9c-20.2,19.7-30,25-49.2,26.3c-8,0.6-14.9-0.5-23.4-3.9c-9.1-3.4-13.9-7.3-31.1-24
			c-9.2-9-16.6-13.5-27.8-17.1c-14.7-4.8-18.2-5-32.3-1.5c-7.5,1.8-16.6,6.1-31.9,14.8c-9.5,5.4-25.4,14.1-36.8,20.1
			c-5.6,3-13.7,7.4-18,9.9c-6.7,3.7-35.3,19.4-57.7,31.4C380.3,634.6,377.8,635.3,377,633.8z"/>
	</g>
	<ellipse transform="matrix(0.7071 -0.7071 0.7071 0.7071 -132.0211 586.9328)" cx="642.5" cy="452.8" rx="77.7" ry="77.7"/>
	<circle class="st5" cx="642.5" cy="452.8" r="56.2"/>
	<circle class="st6" cx="1049.6" cy="365.7" r="47.8"/>
</g>
</svg>
