<?xml version="1.0" encoding="utf-8"?>
<!-- Generator: Adobe Illustrator 22.0.0, SVG Export Plug-In . SVG Version: 6.00 Build 0)  -->
<svg version="1.1" id="Layer_1" xmlns="http://www.w3.org/2000/svg" xmlns:xlink="http://www.w3.org/1999/xlink" x="0px" y="0px"
	 viewBox="0 0 1920 1080" style="enable-background:new 0 0 1920 1080;" xml:space="preserve">
<style type="text/css">
	.st0{fill:url(#SVGID_1_);}
	.st1{fill:url(#SVGID_2_);}
	.st2{fill:url(#SVGID_3_);}
	.st3{fill:url(#SVGID_4_);}
	.st4{fill:url(#SVGID_5_);}
	.st5{fill:url(#SVGID_6_);}
	.st6{fill:url(#SVGID_7_);}
	.st7{fill:url(#SVGID_8_);}
	.st8{fill:url(#SVGID_9_);}
	.st9{fill:url(#SVGID_10_);}
	.st10{fill:url(#SVGID_11_);}
	.st11{fill:url(#SVGID_12_);}
	.st12{fill:url(#SVGID_13_);}
	.st13{fill:url(#SVGID_14_);}
	.st14{fill:url(#SVGID_15_);}
	.st15{fill:url(#SVGID_16_);}
	.st16{fill:url(#SVGID_17_);}
	.st17{fill:url(#SVGID_18_);}
	.st18{fill:url(#SVGID_19_);}
	.st19{fill:url(#SVGID_20_);}
	.st20{fill:url(#SVGID_21_);}
	.st21{fill:url(#SVGID_22_);}
	.st22{fill:url(#SVGID_23_);}
	.st23{fill:url(#SVGID_24_);}
	.st24{fill:url(#SVGID_25_);}
	.st25{fill:url(#SVGID_26_);}
	.st26{fill:url(#SVGID_27_);}
	.st27{fill:url(#SVGID_28_);}
	.st28{fill:url(#SVGID_29_);}
	.st29{fill:url(#SVGID_30_);}
	.st30{fill:url(#SVGID_31_);}
	.st31{fill:url(#SVGID_32_);}
	.st32{fill:url(#SVGID_33_);}
	.st33{fill:url(#SVGID_34_);}
	.st34{fill:url(#SVGID_35_);}
	.st35{fill:url(#SVGID_36_);}
	.st36{fill:url(#SVGID_37_);}
	.st37{fill:url(#SVGID_38_);}
	.st38{fill:url(#SVGID_39_);}
	.st39{fill:url(#SVGID_40_);}
	.st40{fill:url(#SVGID_41_);}
	.st41{fill:url(#SVGID_42_);}
	.st42{fill:url(#SVGID_43_);}
	.st43{fill:url(#SVGID_44_);}
	.st44{fill:url(#SVGID_45_);}
	.st45{fill:url(#SVGID_46_);}
	.st46{fill:url(#SVGID_47_);}
	.st47{fill:url(#SVGID_48_);}
	.st48{fill:url(#SVGID_49_);}
	.st49{fill:url(#SVGID_50_);}
	.st50{fill:url(#SVGID_51_);}
	.st51{fill:url(#SVGID_52_);}
	.st52{fill:url(#SVGID_53_);}
	.st53{fill:url(#SVGID_54_);}
	.st54{fill:url(#SVGID_55_);}
	.st55{fill:url(#SVGID_56_);}
	.st56{fill:url(#SVGID_57_);}
	.st57{fill:url(#SVGID_58_);}
	.st58{fill:url(#SVGID_59_);}
	.st59{fill:url(#SVGID_60_);}
	.st60{fill:url(#SVGID_61_);}
	.st61{fill:url(#SVGID_62_);}
	.st62{fill:url(#SVGID_63_);}
	.st63{fill:url(#SVGID_64_);}
	.st64{fill:url(#SVGID_65_);}
	.st65{fill:url(#SVGID_66_);}
	.st66{fill:url(#SVGID_67_);}
	.st67{fill:url(#SVGID_68_);}
	.st68{fill:url(#SVGID_69_);}
	.st69{fill:url(#SVGID_70_);}
	.st70{fill:url(#SVGID_71_);}
	.st71{fill:url(#SVGID_72_);}
	.st72{fill:url(#SVGID_73_);}
	.st73{fill:url(#SVGID_74_);}
	.st74{fill:url(#SVGID_75_);}
	.st75{fill:url(#SVGID_76_);}
	.st76{fill:url(#SVGID_77_);}
	.st77{fill:url(#SVGID_78_);}
	.st78{fill:url(#SVGID_79_);}
	.st79{fill:url(#SVGID_80_);}
	.st80{fill:url(#SVGID_81_);}
	.st81{fill:url(#SVGID_82_);}
	.st82{fill:url(#SVGID_83_);}
	.st83{fill:url(#SVGID_84_);}
	.st84{fill:url(#SVGID_85_);}
	.st85{fill:url(#SVGID_86_);}
	.st86{fill:url(#SVGID_87_);}
	.st87{fill:url(#SVGID_88_);}
	.st88{fill:url(#SVGID_89_);}
	.st89{fill:url(#SVGID_90_);}
	.st90{fill:url(#SVGID_91_);}
	.st91{fill:url(#SVGID_92_);}
	.st92{fill:url(#SVGID_93_);}
	.st93{fill:url(#SVGID_94_);}
	.st94{fill:url(#SVGID_95_);}
	.st95{fill:url(#SVGID_96_);}
	.st96{fill:url(#SVGID_97_);}
	.st97{fill:url(#SVGID_98_);}
	.st98{fill:url(#SVGID_99_);}
	.st99{fill:url(#SVGID_100_);}
	.st100{fill:url(#SVGID_101_);}
	.st101{fill:url(#SVGID_102_);}
	.st102{fill:url(#SVGID_103_);}
	.st103{fill:url(#SVGID_104_);}
	.st104{fill:url(#SVGID_105_);}
	.st105{fill:url(#SVGID_106_);}
	.st106{fill:url(#SVGID_107_);}
	.st107{fill:url(#SVGID_108_);}
	.st108{fill:url(#SVGID_109_);}
	.st109{fill:url(#SVGID_110_);}
	.st110{fill:url(#SVGID_111_);}
	.st111{fill:url(#SVGID_112_);}
	.st112{fill:url(#SVGID_113_);}
	.st113{fill:url(#SVGID_114_);}
	.st114{fill:url(#SVGID_115_);}
	.st115{fill:url(#SVGID_116_);}
	.st116{fill:url(#SVGID_117_);}
	.st117{fill:url(#SVGID_118_);}
	.st118{fill:url(#SVGID_119_);}
	.st119{fill:url(#SVGID_120_);}
	.st120{opacity:0.4;fill:#FFFFFF;}
</style>
<g>
	<g>
		<g>
			<linearGradient id="SVGID_1_" gradientUnits="userSpaceOnUse" x1="-5.0788" y1="53.1617" x2="59.6214" y2="-11.5385">
				<stop  offset="0" style="stop-color:#DDDDDD"/>
				<stop  offset="1" style="stop-color:#FFFFFF"/>
			</linearGradient>
			<polygon class="st0" points="71.2,0 71.2,24.4 0.6,58.8 0.6,0 			"/>
			<linearGradient id="SVGID_2_" gradientUnits="userSpaceOnUse" x1="673.3947" y1="65.1178" x2="779.2006" y2="-40.6881">
				<stop  offset="0" style="stop-color:#DDDDDD"/>
				<stop  offset="1" style="stop-color:#FFFFFF"/>
			</linearGradient>
			<polygon class="st1" points="819.9,0 819.9,24.4 726.3,70 632.7,24.4 632.7,0 			"/>
			<linearGradient id="SVGID_3_" gradientUnits="userSpaceOnUse" x1="1047.7847" y1="65.1178" x2="1153.5906" y2="-40.6881">
				<stop  offset="0" style="stop-color:#DDDDDD"/>
				<stop  offset="1" style="stop-color:#FFFFFF"/>
			</linearGradient>
			<polygon class="st2" points="1194.3,0 1194.3,24.4 1100.7,70 1007.1,24.4 1007.1,0 			"/>
			<linearGradient id="SVGID_4_" gradientUnits="userSpaceOnUse" x1="1422.1493" y1="65.1177" x2="1527.955" y2="-40.6881">
				<stop  offset="0" style="stop-color:#DDDDDD"/>
				<stop  offset="1" style="stop-color:#FFFFFF"/>
			</linearGradient>
			<polygon class="st3" points="1568.6,0 1568.6,24.4 1475.1,70 1381.5,24.4 1381.5,0 			"/>
			<linearGradient id="SVGID_5_" gradientUnits="userSpaceOnUse" x1="1793.5642" y1="62.1685" x2="1887.8663" y2="-32.1337">
				<stop  offset="0" style="stop-color:#DDDDDD"/>
				<stop  offset="1" style="stop-color:#FFFFFF"/>
			</linearGradient>
			<polygon class="st4" points="1920,0 1920,35.6 1849.4,70 1755.8,24.4 1755.8,0 			"/>
			<linearGradient id="SVGID_6_" gradientUnits="userSpaceOnUse" x1="-30.3832" y1="301.4861" x2="67.7106" y2="203.3923">
				<stop  offset="0" style="stop-color:#DDDDDD"/>
				<stop  offset="1" style="stop-color:#FFFFFF"/>
			</linearGradient>
			<polygon class="st5" points="71.2,206.8 71.2,298 0.6,332.4 0.6,172.4 			"/>
			<linearGradient id="SVGID_7_" gradientUnits="userSpaceOnUse" x1="1405.4459" y1="322.0374" x2="1544.6442" y2="182.8391">
				<stop  offset="0" style="stop-color:#DDDDDD"/>
				<stop  offset="1" style="stop-color:#FFFFFF"/>
			</linearGradient>
			<polygon class="st6" points="1475,161.2 1381.5,206.8 1381.5,298 1475,343.7 1568.6,298 1568.6,206.8 			"/>
			<linearGradient id="SVGID_8_" gradientUnits="userSpaceOnUse" x1="1776.8728" y1="319.0843" x2="1910.163" y2="185.7941">
				<stop  offset="0" style="stop-color:#DDDDDD"/>
				<stop  offset="1" style="stop-color:#FFFFFF"/>
			</linearGradient>
			<polygon class="st7" points="1920,195.6 1920,309.2 1849.4,343.7 1755.8,298 1755.8,206.8 1849.4,161.2 			"/>
			<linearGradient id="SVGID_9_" gradientUnits="userSpaceOnUse" x1="-30.3724" y1="575.1041" x2="67.7214" y2="477.0103">
				<stop  offset="0" style="stop-color:#DDDDDD"/>
				<stop  offset="1" style="stop-color:#FFFFFF"/>
			</linearGradient>
			<polygon class="st8" points="71.2,480.4 71.2,571.7 0.6,606.1 0.6,446.1 			"/>
			<linearGradient id="SVGID_10_" gradientUnits="userSpaceOnUse" x1="656.7087" y1="595.6577" x2="795.9069" y2="456.4595">
				<stop  offset="0" style="stop-color:#DDDDDD"/>
				<stop  offset="1" style="stop-color:#FFFFFF"/>
			</linearGradient>
			<polygon class="st9" points="726.3,434.8 632.7,480.5 632.7,571.7 726.3,617.3 819.9,571.7 819.9,480.5 			"/>
			<linearGradient id="SVGID_11_" gradientUnits="userSpaceOnUse" x1="1776.8673" y1="592.7077" x2="1910.1683" y2="459.4067">
				<stop  offset="0" style="stop-color:#DDDDDD"/>
				<stop  offset="1" style="stop-color:#FFFFFF"/>
			</linearGradient>
			<polyline class="st10" points="1920,469.3 1920,582.9 1849.4,617.3 1755.8,571.7 1755.8,480.4 1849.4,434.9 1920,469.2 			"/>
			<linearGradient id="SVGID_12_" gradientUnits="userSpaceOnUse" x1="-30.3778" y1="848.7275" x2="67.716" y2="750.6337">
				<stop  offset="0" style="stop-color:#DDDDDD"/>
				<stop  offset="1" style="stop-color:#FFFFFF"/>
			</linearGradient>
			<polyline class="st11" points="0.6,719.7 71.2,754.1 71.2,845.3 0.6,879.7 0.6,719.7 			"/>
			<linearGradient id="SVGID_13_" gradientUnits="userSpaceOnUse" x1="282.3399" y1="869.2779" x2="421.5382" y2="730.0797">
				<stop  offset="0" style="stop-color:#DDDDDD"/>
				<stop  offset="1" style="stop-color:#FFFFFF"/>
			</linearGradient>
			<polygon class="st12" points="351.9,708.5 258.3,754.1 258.3,845.3 351.9,890.9 445.5,845.3 445.5,754.1 			"/>
			<linearGradient id="SVGID_14_" gradientUnits="userSpaceOnUse" x1="656.7087" y1="869.2779" x2="795.9069" y2="730.0797">
				<stop  offset="0" style="stop-color:#DDDDDD"/>
				<stop  offset="1" style="stop-color:#FFFFFF"/>
			</linearGradient>
			<polygon class="st13" points="726.3,708.5 632.7,754.1 632.7,845.3 726.3,890.9 819.9,845.3 819.9,754.1 			"/>
			<linearGradient id="SVGID_15_" gradientUnits="userSpaceOnUse" x1="1031.0771" y1="869.2779" x2="1170.2755" y2="730.0797">
				<stop  offset="0" style="stop-color:#DDDDDD"/>
				<stop  offset="1" style="stop-color:#FFFFFF"/>
			</linearGradient>
			<polygon class="st14" points="1100.7,708.5 1007.1,754.1 1007.1,845.3 1100.7,890.9 1194.3,845.3 1194.3,754.1 			"/>
			<linearGradient id="SVGID_16_" gradientUnits="userSpaceOnUse" x1="1405.4459" y1="869.2779" x2="1544.6442" y2="730.0797">
				<stop  offset="0" style="stop-color:#DDDDDD"/>
				<stop  offset="1" style="stop-color:#FFFFFF"/>
			</linearGradient>
			<polygon class="st15" points="1475,708.5 1381.5,754.1 1381.5,845.3 1475,890.9 1568.6,845.3 1568.6,754.1 			"/>
			<linearGradient id="SVGID_17_" gradientUnits="userSpaceOnUse" x1="1776.8673" y1="866.3365" x2="1910.1683" y2="733.0355">
				<stop  offset="0" style="stop-color:#DDDDDD"/>
				<stop  offset="1" style="stop-color:#FFFFFF"/>
			</linearGradient>
			<polyline class="st16" points="1920,742.9 1920,856.5 1849.4,890.9 1755.8,845.3 1755.8,754.1 1849.4,708.5 1920,742.9 			"/>
			<linearGradient id="SVGID_18_" gradientUnits="userSpaceOnUse" x1="-3.4534" y1="1075.9703" x2="57.996" y2="1014.5209">
				<stop  offset="0" style="stop-color:#DDDDDD"/>
				<stop  offset="1" style="stop-color:#FFFFFF"/>
			</linearGradient>
			<polygon class="st17" points="0.6,993.3 0.6,1080 71.2,1080 71.2,1027.7 71.2,1027.7 0.6,993.3 			"/>
			<linearGradient id="SVGID_19_" gradientUnits="userSpaceOnUse" x1="292.0589" y1="1113.7168" x2="411.8076" y2="993.9681">
				<stop  offset="0" style="stop-color:#DDDDDD"/>
				<stop  offset="1" style="stop-color:#FFFFFF"/>
			</linearGradient>
			<polygon class="st18" points="445.5,1027.7 445.5,1080 258.3,1080 258.3,1027.7 351.9,982.1 			"/>
			<linearGradient id="SVGID_20_" gradientUnits="userSpaceOnUse" x1="666.4233" y1="1113.7168" x2="786.1719" y2="993.9681">
				<stop  offset="0" style="stop-color:#DDDDDD"/>
				<stop  offset="1" style="stop-color:#FFFFFF"/>
			</linearGradient>
			<polygon class="st19" points="819.9,1027.7 819.9,1080 632.7,1080 632.7,1027.7 726.3,982.1 			"/>
			<linearGradient id="SVGID_21_" gradientUnits="userSpaceOnUse" x1="1415.1779" y1="1113.7167" x2="1534.9264" y2="993.9681">
				<stop  offset="0" style="stop-color:#DDDDDD"/>
				<stop  offset="1" style="stop-color:#FFFFFF"/>
			</linearGradient>
			<polygon class="st20" points="1568.6,1027.7 1568.6,1080 1381.5,1080 1381.5,1027.7 1475.1,982.1 			"/>
			<linearGradient id="SVGID_22_" gradientUnits="userSpaceOnUse" x1="1783.7902" y1="1107.9648" x2="1897.6404" y2="994.1147">
				<stop  offset="0" style="stop-color:#DDDDDD"/>
				<stop  offset="1" style="stop-color:#FFFFFF"/>
			</linearGradient>
			<polygon class="st21" points="1920,1016.5 1920,1080 1755.8,1080 1755.8,1027.7 1849.4,982.1 			"/>
			<g>
				<linearGradient id="SVGID_23_" gradientUnits="userSpaceOnUse" x1="1031.0771" y1="595.6578" x2="1170.2755" y2="456.4595">
					<stop  offset="0" style="stop-color:#DDDDDD"/>
					<stop  offset="1" style="stop-color:#FFFFFF"/>
				</linearGradient>
				<polygon class="st22" points="1100.7,434.8 1007.1,480.5 1007.1,571.7 1100.7,617.3 1194.3,571.7 1194.3,480.5 				"/>
			</g>
			<linearGradient id="SVGID_24_" gradientUnits="userSpaceOnUse" x1="1040.8132" y1="1113.7168" x2="1160.5619" y2="993.9681">
				<stop  offset="0" style="stop-color:#DDDDDD"/>
				<stop  offset="1" style="stop-color:#FFFFFF"/>
			</linearGradient>
			<polygon class="st23" points="1194.3,1027.7 1194.3,1080 1007.1,1080 1007.1,1027.7 1100.7,982.1 			"/>
			<linearGradient id="SVGID_25_" gradientUnits="userSpaceOnUse" x1="282.3399" y1="595.6577" x2="421.5382" y2="456.4595">
				<stop  offset="0" style="stop-color:#DDDDDD"/>
				<stop  offset="1" style="stop-color:#FFFFFF"/>
			</linearGradient>
			<polygon class="st24" points="351.9,434.8 258.3,480.5 258.3,571.7 351.9,617.3 445.5,571.7 445.5,480.5 			"/>
			<linearGradient id="SVGID_26_" gradientUnits="userSpaceOnUse" x1="1405.4459" y1="595.6577" x2="1544.6442" y2="456.4595">
				<stop  offset="0" style="stop-color:#DDDDDD"/>
				<stop  offset="1" style="stop-color:#FFFFFF"/>
			</linearGradient>
			<polygon class="st25" points="1475,434.8 1381.5,480.5 1381.5,571.7 1475,617.3 1568.6,571.7 1568.6,480.5 			"/>
			<g>
				<linearGradient id="SVGID_27_" gradientUnits="userSpaceOnUse" x1="282.3399" y1="322.0374" x2="421.5382" y2="182.8391">
					<stop  offset="0" style="stop-color:#DDDDDD"/>
					<stop  offset="1" style="stop-color:#FFFFFF"/>
				</linearGradient>
				<polygon class="st26" points="351.9,161.2 258.3,206.8 258.3,298 351.9,343.7 445.5,298 445.5,206.8 				"/>
			</g>
			<linearGradient id="SVGID_28_" gradientUnits="userSpaceOnUse" x1="299.0303" y1="65.1178" x2="404.8362" y2="-40.6881">
				<stop  offset="0" style="stop-color:#DDDDDD"/>
				<stop  offset="1" style="stop-color:#FFFFFF"/>
			</linearGradient>
			<polygon class="st27" points="445.5,0 445.5,24.4 351.9,70 258.3,24.4 258.3,0 			"/>
			<linearGradient id="SVGID_29_" gradientUnits="userSpaceOnUse" x1="656.7087" y1="322.0374" x2="795.9069" y2="182.8391">
				<stop  offset="0" style="stop-color:#DDDDDD"/>
				<stop  offset="1" style="stop-color:#FFFFFF"/>
			</linearGradient>
			<polygon class="st28" points="726.3,161.2 632.7,206.8 632.7,298 726.3,343.7 819.9,298 819.9,206.8 			"/>
			<g>
				<linearGradient id="SVGID_30_" gradientUnits="userSpaceOnUse" x1="1031.0771" y1="322.0374" x2="1170.2755" y2="182.8391">
					<stop  offset="0" style="stop-color:#DDDDDD"/>
					<stop  offset="1" style="stop-color:#FFFFFF"/>
				</linearGradient>
				<polygon class="st29" points="1100.7,161.2 1007.1,206.8 1007.1,298 1100.7,343.7 1194.3,298 1194.3,206.8 				"/>
			</g>
			<linearGradient id="SVGID_31_" gradientUnits="userSpaceOnUse" x1="217.654" y1="65.1178" x2="111.8481" y2="-40.6881">
				<stop  offset="0" style="stop-color:#FFFFFF"/>
				<stop  offset="1" style="stop-color:#DDDDDD"/>
			</linearGradient>
			<polygon class="st30" points="258.3,0 258.3,24.4 164.8,70 71.2,24.4 71.2,0 			"/>
			<linearGradient id="SVGID_32_" gradientUnits="userSpaceOnUse" x1="592.0184" y1="65.1178" x2="486.2125" y2="-40.6881">
				<stop  offset="0" style="stop-color:#FFFFFF"/>
				<stop  offset="1" style="stop-color:#DDDDDD"/>
			</linearGradient>
			<polygon class="st31" points="632.7,0 632.7,24.4 539.1,70 445.5,24.4 445.5,0 			"/>
			<linearGradient id="SVGID_33_" gradientUnits="userSpaceOnUse" x1="1340.7729" y1="65.1178" x2="1234.9669" y2="-40.6882">
				<stop  offset="0" style="stop-color:#FFFFFF"/>
				<stop  offset="1" style="stop-color:#DDDDDD"/>
			</linearGradient>
			<polygon class="st32" points="1381.5,0 1381.5,24.4 1287.9,70 1194.3,24.4 1194.3,0 			"/>
			<linearGradient id="SVGID_34_" gradientUnits="userSpaceOnUse" x1="1715.1371" y1="65.1178" x2="1609.3313" y2="-40.6881">
				<stop  offset="0" style="stop-color:#FFFFFF"/>
				<stop  offset="1" style="stop-color:#DDDDDD"/>
			</linearGradient>
			<polygon class="st33" points="1755.8,0 1755.8,24.4 1662.2,70 1568.6,24.4 1568.6,0 			"/>
			<linearGradient id="SVGID_35_" gradientUnits="userSpaceOnUse" x1="375.9321" y1="185.2355" x2="515.1303" y2="46.0372">
				<stop  offset="0" style="stop-color:#F2F2F2"/>
				<stop  offset="1" style="stop-color:#FDFDFD"/>
			</linearGradient>
			<polygon class="st34" points="445.5,24.4 351.9,70 351.9,161.2 445.5,206.8 539.1,161.2 539.1,70 			"/>
			<linearGradient id="SVGID_36_" gradientUnits="userSpaceOnUse" x1="750.3008" y1="185.2355" x2="889.4991" y2="46.0372">
				<stop  offset="0" style="stop-color:#F2F2F2"/>
				<stop  offset="1" style="stop-color:#FDFDFD"/>
			</linearGradient>
			<polygon class="st35" points="819.9,24.4 726.3,70 726.3,161.2 819.9,206.8 913.5,161.2 913.5,70 			"/>
			<linearGradient id="SVGID_37_" gradientUnits="userSpaceOnUse" x1="1124.6693" y1="185.2355" x2="1263.8676" y2="46.0372">
				<stop  offset="0" style="stop-color:#F2F2F2"/>
				<stop  offset="1" style="stop-color:#FDFDFD"/>
			</linearGradient>
			<polygon class="st36" points="1194.3,24.4 1100.7,70 1100.7,161.2 1194.3,206.8 1287.9,161.2 1287.9,70 			"/>
			<linearGradient id="SVGID_38_" gradientUnits="userSpaceOnUse" x1="1638.2363" y1="185.2355" x2="1499.0381" y2="46.0372">
				<stop  offset="0" style="stop-color:#FFFFFF"/>
				<stop  offset="1" style="stop-color:#DDDDDD"/>
			</linearGradient>
			<polygon class="st37" points="1568.6,24.4 1475,70 1475,161.2 1568.6,206.8 1662.2,161.2 1662.2,70 			"/>
			<linearGradient id="SVGID_39_" gradientUnits="userSpaceOnUse" x1="1499.0381" y1="185.2355" x2="1638.2363" y2="46.0372">
				<stop  offset="0" style="stop-color:#F2F2F2"/>
				<stop  offset="1" style="stop-color:#FDFDFD"/>
			</linearGradient>
			<polygon class="st38" points="1568.6,24.4 1475,70 1475,161.2 1568.6,206.8 1662.2,161.2 1662.2,70 			"/>
			<linearGradient id="SVGID_40_" gradientUnits="userSpaceOnUse" x1="1852.8547" y1="164.6826" x2="1950.9486" y2="66.5886">
				<stop  offset="0" style="stop-color:#F2F2F2"/>
				<stop  offset="1" style="stop-color:#FDFDFD"/>
			</linearGradient>
			<polygon class="st39" points="1920,35.6 1920,195.6 1849.4,161.2 1849.4,70 			"/>
			<linearGradient id="SVGID_41_" gradientUnits="userSpaceOnUse" x1="234.3539" y1="322.0374" x2="95.1557" y2="182.8391">
				<stop  offset="0" style="stop-color:#FFFFFF"/>
				<stop  offset="1" style="stop-color:#DDDDDD"/>
			</linearGradient>
			<polygon class="st40" points="164.8,161.2 71.2,206.8 71.2,298 164.8,343.7 258.3,298 258.3,206.8 			"/>
			<linearGradient id="SVGID_42_" gradientUnits="userSpaceOnUse" x1="983.0912" y1="322.0374" x2="843.8929" y2="182.8391">
				<stop  offset="0" style="stop-color:#FFFFFF"/>
				<stop  offset="1" style="stop-color:#DDDDDD"/>
			</linearGradient>
			<polygon class="st41" points="913.5,161.2 819.9,206.8 819.9,298 913.5,343.7 1007.1,298 1007.1,206.8 			"/>
			<linearGradient id="SVGID_43_" gradientUnits="userSpaceOnUse" x1="1357.46" y1="322.0374" x2="1218.2615" y2="182.839">
				<stop  offset="0" style="stop-color:#FFFFFF"/>
				<stop  offset="1" style="stop-color:#DDDDDD"/>
			</linearGradient>
			<polygon class="st42" points="1287.9,161.2 1194.3,206.8 1194.3,298 1287.9,343.7 1381.5,298 1381.5,206.8 			"/>
			<linearGradient id="SVGID_44_" gradientUnits="userSpaceOnUse" x1="188.7479" y1="458.8557" x2="327.946" y2="319.6576">
				<stop  offset="0" style="stop-color:#F2F2F2"/>
				<stop  offset="1" style="stop-color:#FDFDFD"/>
			</linearGradient>
			<polygon class="st43" points="258.3,298 164.8,343.7 164.8,434.9 258.3,480.5 351.9,434.9 351.9,343.7 			"/>
			<linearGradient id="SVGID_45_" gradientUnits="userSpaceOnUse" x1="563.1165" y1="458.8558" x2="702.3147" y2="319.6575">
				<stop  offset="0" style="stop-color:#F2F2F2"/>
				<stop  offset="1" style="stop-color:#FDFDFD"/>
			</linearGradient>
			<polygon class="st44" points="632.7,298 539.1,343.7 539.1,434.9 632.7,480.5 726.3,434.9 726.3,343.7 			"/>
			<linearGradient id="SVGID_46_" gradientUnits="userSpaceOnUse" x1="937.4851" y1="458.8557" x2="1076.6832" y2="319.6576">
				<stop  offset="0" style="stop-color:#F2F2F2"/>
				<stop  offset="1" style="stop-color:#FDFDFD"/>
			</linearGradient>
			<polygon class="st45" points="1007.1,298 913.5,343.7 913.5,434.9 1007.1,480.5 1100.7,434.9 1100.7,343.7 			"/>
			<linearGradient id="SVGID_47_" gradientUnits="userSpaceOnUse" x1="1311.8538" y1="458.8558" x2="1451.052" y2="319.6575">
				<stop  offset="0" style="stop-color:#F2F2F2"/>
				<stop  offset="1" style="stop-color:#FDFDFD"/>
			</linearGradient>
			<polygon class="st46" points="1381.5,298 1287.9,343.7 1287.9,434.9 1381.5,480.5 1475,434.9 1475,343.7 			"/>
			<linearGradient id="SVGID_48_" gradientUnits="userSpaceOnUse" x1="1686.2224" y1="458.8557" x2="1825.4205" y2="319.6576">
				<stop  offset="0" style="stop-color:#F2F2F2"/>
				<stop  offset="1" style="stop-color:#FDFDFD"/>
			</linearGradient>
			<polygon class="st47" points="1755.8,298 1662.2,343.7 1662.2,434.9 1755.8,480.5 1849.4,434.9 1849.4,343.7 			"/>
			<linearGradient id="SVGID_49_" gradientUnits="userSpaceOnUse" x1="1950.954" y1="438.306" x2="1852.8601" y2="340.212">
				<stop  offset="0" style="stop-color:#FFFFFF"/>
				<stop  offset="1" style="stop-color:#DDDDDD"/>
			</linearGradient>
			<polyline class="st48" points="1920,469.3 1849.4,434.9 1849.4,343.7 1920,309.2 1920,469.2 			"/>
			<linearGradient id="SVGID_50_" gradientUnits="userSpaceOnUse" x1="983.0912" y1="595.6577" x2="843.8929" y2="456.4595">
				<stop  offset="0" style="stop-color:#FFFFFF"/>
				<stop  offset="1" style="stop-color:#DDDDDD"/>
			</linearGradient>
			<polygon class="st49" points="913.5,434.8 819.9,480.5 819.9,571.7 913.5,617.3 1007.1,571.7 1007.1,480.5 			"/>
			<linearGradient id="SVGID_51_" gradientUnits="userSpaceOnUse" x1="1357.46" y1="595.6578" x2="1218.2615" y2="456.4594">
				<stop  offset="0" style="stop-color:#FFFFFF"/>
				<stop  offset="1" style="stop-color:#DDDDDD"/>
			</linearGradient>
			<polygon class="st50" points="1287.9,434.8 1194.3,480.5 1194.3,571.7 1287.9,617.3 1381.5,571.7 1381.5,480.5 			"/>
			<linearGradient id="SVGID_52_" gradientUnits="userSpaceOnUse" x1="1731.8285" y1="595.6577" x2="1592.6302" y2="456.4595">
				<stop  offset="0" style="stop-color:#FFFFFF"/>
				<stop  offset="1" style="stop-color:#DDDDDD"/>
			</linearGradient>
			<polygon class="st51" points="1662.2,434.8 1568.6,480.5 1568.6,571.7 1662.2,617.3 1755.8,571.7 1755.8,480.5 			"/>
			<linearGradient id="SVGID_53_" gradientUnits="userSpaceOnUse" x1="10.408" y1="729.5221" x2="143.7089" y2="596.2211">
				<stop  offset="0" style="stop-color:#F2F2F2"/>
				<stop  offset="1" style="stop-color:#FDFDFD"/>
			</linearGradient>
			<polyline class="st52" points="0.6,719.7 0.6,606.1 71.2,571.7 164.8,617.3 164.8,708.5 71.2,754.1 0.6,719.7 			"/>
			<linearGradient id="SVGID_54_" gradientUnits="userSpaceOnUse" x1="375.9321" y1="732.476" x2="515.1303" y2="593.2778">
				<stop  offset="0" style="stop-color:#F2F2F2"/>
				<stop  offset="1" style="stop-color:#FDFDFD"/>
			</linearGradient>
			<polygon class="st53" points="445.5,571.7 351.9,617.3 351.9,708.5 445.5,754.1 539.1,708.5 539.1,617.3 			"/>
			<linearGradient id="SVGID_55_" gradientUnits="userSpaceOnUse" x1="1124.6693" y1="732.476" x2="1263.8676" y2="593.2778">
				<stop  offset="0" style="stop-color:#F2F2F2"/>
				<stop  offset="1" style="stop-color:#FDFDFD"/>
			</linearGradient>
			<polygon class="st54" points="1194.3,571.7 1100.7,617.3 1100.7,708.5 1194.3,754.1 1287.9,708.5 1287.9,617.3 			"/>
			<linearGradient id="SVGID_56_" gradientUnits="userSpaceOnUse" x1="1499.0381" y1="732.476" x2="1638.2363" y2="593.2778">
				<stop  offset="0" style="stop-color:#F2F2F2"/>
				<stop  offset="1" style="stop-color:#FDFDFD"/>
			</linearGradient>
			<polygon class="st55" points="1568.6,571.7 1475,617.3 1475,708.5 1568.6,754.1 1662.2,708.5 1662.2,617.3 			"/>
			<linearGradient id="SVGID_57_" gradientUnits="userSpaceOnUse" x1="1852.8601" y1="711.924" x2="1950.954" y2="613.83">
				<stop  offset="0" style="stop-color:#F2F2F2"/>
				<stop  offset="1" style="stop-color:#FDFDFD"/>
			</linearGradient>
			<polyline class="st56" points="1920,742.9 1849.4,708.5 1849.4,617.3 1920,582.9 1920,742.9 			"/>
			<linearGradient id="SVGID_58_" gradientUnits="userSpaceOnUse" x1="983.0912" y1="869.2779" x2="843.8929" y2="730.0797">
				<stop  offset="0" style="stop-color:#FFFFFF"/>
				<stop  offset="1" style="stop-color:#DDDDDD"/>
			</linearGradient>
			<polygon class="st57" points="913.5,708.5 819.9,754.1 819.9,845.3 913.5,890.9 1007.1,845.3 1007.1,754.1 			"/>
			<linearGradient id="SVGID_59_" gradientUnits="userSpaceOnUse" x1="188.7479" y1="1006.0963" x2="327.946" y2="866.8981">
				<stop  offset="0" style="stop-color:#FDFDFD"/>
				<stop  offset="1" style="stop-color:#F2F2F2"/>
			</linearGradient>
			<polygon class="st58" points="258.3,845.3 164.8,890.9 164.8,982.1 258.3,1027.7 351.9,982.1 351.9,890.9 			"/>
			<linearGradient id="SVGID_60_" gradientUnits="userSpaceOnUse" x1="937.4851" y1="1006.0963" x2="1076.6832" y2="866.8981">
				<stop  offset="0" style="stop-color:#FDFDFD"/>
				<stop  offset="1" style="stop-color:#F2F2F2"/>
			</linearGradient>
			<polygon class="st59" points="1007.1,845.3 913.5,890.9 913.5,982.1 1007.1,1027.7 1100.7,982.1 1100.7,890.9 			"/>
			<linearGradient id="SVGID_61_" gradientUnits="userSpaceOnUse" x1="1311.8538" y1="1006.0963" x2="1451.052" y2="866.898">
				<stop  offset="0" style="stop-color:#FDFDFD"/>
				<stop  offset="1" style="stop-color:#F2F2F2"/>
			</linearGradient>
			<polygon class="st60" points="1381.5,845.3 1287.9,890.9 1287.9,982.1 1381.5,1027.7 1475,982.1 1475,890.9 			"/>
			<linearGradient id="SVGID_62_" gradientUnits="userSpaceOnUse" x1="1686.2224" y1="1006.0963" x2="1825.4205" y2="866.8981">
				<stop  offset="0" style="stop-color:#FDFDFD"/>
				<stop  offset="1" style="stop-color:#F2F2F2"/>
			</linearGradient>
			<polygon class="st61" points="1755.8,845.3 1662.2,890.9 1662.2,982.1 1755.8,1027.7 1849.4,982.1 1849.4,890.9 			"/>
			<linearGradient id="SVGID_63_" gradientUnits="userSpaceOnUse" x1="1950.9486" y1="985.5474" x2="1852.8547" y2="887.4534">
				<stop  offset="0" style="stop-color:#FFFFFF"/>
				<stop  offset="1" style="stop-color:#DDDDDD"/>
			</linearGradient>
			<polygon class="st62" points="1920,856.5 1920,1016.5 1849.4,982.1 1849.4,890.9 			"/>
			<linearGradient id="SVGID_64_" gradientUnits="userSpaceOnUse" x1="224.6254" y1="1113.7168" x2="104.8767" y2="993.9681">
				<stop  offset="0" style="stop-color:#FFFFFF"/>
				<stop  offset="1" style="stop-color:#DDDDDD"/>
			</linearGradient>
			<polygon class="st63" points="258.3,1027.7 258.3,1080 71.2,1080 71.2,1027.7 164.8,982.1 			"/>
			<linearGradient id="SVGID_65_" gradientUnits="userSpaceOnUse" x1="598.9897" y1="1113.7168" x2="479.2411" y2="993.9681">
				<stop  offset="0" style="stop-color:#FFFFFF"/>
				<stop  offset="1" style="stop-color:#DDDDDD"/>
			</linearGradient>
			<polygon class="st64" points="632.7,1027.7 632.7,1080 445.5,1080 445.5,1027.7 539.1,982.1 			"/>
			<linearGradient id="SVGID_66_" gradientUnits="userSpaceOnUse" x1="973.3734" y1="1113.7231" x2="853.6119" y2="993.9617">
				<stop  offset="0" style="stop-color:#FFFFFF"/>
				<stop  offset="1" style="stop-color:#DDDDDD"/>
			</linearGradient>
			<polygon class="st65" points="1007.1,1027.7 1007.1,1080 819.9,1080 819.9,1027.7 913.5,982.1 			"/>
			<linearGradient id="SVGID_67_" gradientUnits="userSpaceOnUse" x1="1347.7444" y1="1113.7168" x2="1227.9955" y2="993.968">
				<stop  offset="0" style="stop-color:#FFFFFF"/>
				<stop  offset="1" style="stop-color:#DDDDDD"/>
			</linearGradient>
			<polygon class="st66" points="1381.5,1027.7 1381.5,1080 1194.3,1080 1194.3,1027.7 1287.9,982.1 			"/>
			<linearGradient id="SVGID_68_" gradientUnits="userSpaceOnUse" x1="1357.46" y1="869.278" x2="1218.2615" y2="730.0796">
				<stop  offset="0" style="stop-color:#FFFFFF"/>
				<stop  offset="1" style="stop-color:#DDDDDD"/>
			</linearGradient>
			<polygon class="st67" points="1287.9,708.5 1194.3,754.1 1194.3,845.3 1287.9,890.9 1381.5,845.3 1381.5,754.1 			"/>
			<g>
				<linearGradient id="SVGID_69_" gradientUnits="userSpaceOnUse" x1="750.3008" y1="732.476" x2="889.4991" y2="593.2778">
					<stop  offset="0" style="stop-color:#F2F2F2"/>
					<stop  offset="1" style="stop-color:#FDFDFD"/>
				</linearGradient>
				<polygon class="st68" points="819.9,571.7 726.3,617.3 726.3,708.5 819.9,754.1 913.5,708.5 913.5,617.3 				"/>
			</g>
			<g>
				<linearGradient id="SVGID_70_" gradientUnits="userSpaceOnUse" x1="234.3539" y1="595.6577" x2="95.1557" y2="456.4595">
					<stop  offset="0" style="stop-color:#FFFFFF"/>
					<stop  offset="1" style="stop-color:#DDDDDD"/>
				</linearGradient>
				<polygon class="st69" points="164.8,434.8 71.2,480.5 71.2,571.7 164.8,617.3 258.3,571.7 258.3,480.5 				"/>
			</g>
			<g>
				<linearGradient id="SVGID_71_" gradientUnits="userSpaceOnUse" x1="10.408" y1="182.2861" x2="143.7089" y2="48.9851">
					<stop  offset="0" style="stop-color:#F2F2F2"/>
					<stop  offset="1" style="stop-color:#FDFDFD"/>
				</linearGradient>
				<polygon class="st70" points="164.8,70 164.8,161.2 71.2,206.8 0.6,172.5 0.6,58.8 71.2,24.4 				"/>
			</g>
			<g>
				<linearGradient id="SVGID_72_" gradientUnits="userSpaceOnUse" x1="1731.8285" y1="869.2779" x2="1592.6302" y2="730.0797">
					<stop  offset="0" style="stop-color:#FFFFFF"/>
					<stop  offset="1" style="stop-color:#DDDDDD"/>
				</linearGradient>
				<polygon class="st71" points="1662.2,708.5 1568.6,754.1 1568.6,845.3 1662.2,890.9 1755.8,845.3 1755.8,754.1 				"/>
			</g>
			<linearGradient id="SVGID_73_" gradientUnits="userSpaceOnUse" x1="608.7226" y1="322.0374" x2="469.5242" y2="182.839">
				<stop  offset="0" style="stop-color:#FFFFFF"/>
				<stop  offset="1" style="stop-color:#DDDDDD"/>
			</linearGradient>
			<polygon class="st72" points="539.1,161.2 445.5,206.8 445.5,298 539.1,343.7 632.7,298 632.7,206.8 			"/>
			<g>
				<linearGradient id="SVGID_74_" gradientUnits="userSpaceOnUse" x1="1722.1085" y1="1113.7168" x2="1602.3599" y2="993.9681">
					<stop  offset="0" style="stop-color:#FFFFFF"/>
					<stop  offset="1" style="stop-color:#DDDDDD"/>
				</linearGradient>
				<polygon class="st73" points="1755.8,1027.7 1755.8,1080 1568.6,1080 1568.6,1027.7 1662.2,982.1 				"/>
			</g>
			<g>
				<linearGradient id="SVGID_75_" gradientUnits="userSpaceOnUse" x1="1731.8285" y1="322.0374" x2="1592.6302" y2="182.8391">
					<stop  offset="0" style="stop-color:#FFFFFF"/>
					<stop  offset="1" style="stop-color:#DDDDDD"/>
				</linearGradient>
				<polygon class="st74" points="1662.2,161.2 1568.6,206.8 1568.6,298 1662.2,343.7 1755.8,298 1755.8,206.8 				"/>
			</g>
			<g>
				<linearGradient id="SVGID_76_" gradientUnits="userSpaceOnUse" x1="608.7226" y1="595.6578" x2="469.5242" y2="456.4594">
					<stop  offset="0" style="stop-color:#FFFFFF"/>
					<stop  offset="1" style="stop-color:#DDDDDD"/>
				</linearGradient>
				<polygon class="st75" points="539.1,434.8 445.5,480.5 445.5,571.7 539.1,617.3 632.7,571.7 632.7,480.5 				"/>
			</g>
			<g>
				<linearGradient id="SVGID_77_" gradientUnits="userSpaceOnUse" x1="563.1165" y1="1006.0963" x2="702.3147" y2="866.898">
					<stop  offset="0" style="stop-color:#FDFDFD"/>
					<stop  offset="1" style="stop-color:#F2F2F2"/>
				</linearGradient>
				<polygon class="st76" points="632.7,845.3 539.1,890.9 539.1,982.1 632.7,1027.7 726.3,982.1 726.3,890.9 				"/>
			</g>
			<g>
				<linearGradient id="SVGID_78_" gradientUnits="userSpaceOnUse" x1="608.7226" y1="869.278" x2="469.5242" y2="730.0796">
					<stop  offset="0" style="stop-color:#FFFFFF"/>
					<stop  offset="1" style="stop-color:#DDDDDD"/>
				</linearGradient>
				<polygon class="st77" points="539.1,708.5 445.5,754.1 445.5,845.3 539.1,890.9 632.7,845.3 632.7,754.1 				"/>
			</g>
			<linearGradient id="SVGID_79_" gradientUnits="userSpaceOnUse" x1="234.3539" y1="869.2779" x2="95.1557" y2="730.0797">
				<stop  offset="0" style="stop-color:#FFFFFF"/>
				<stop  offset="1" style="stop-color:#DDDDDD"/>
			</linearGradient>
			<polygon class="st78" points="164.8,708.5 71.2,754.1 71.2,845.3 164.8,890.9 258.3,845.3 258.3,754.1 			"/>
			<linearGradient id="SVGID_80_" gradientUnits="userSpaceOnUse" x1="966.402" y1="65.1241" x2="860.5833" y2="-40.6945">
				<stop  offset="0" style="stop-color:#FFFFFF"/>
				<stop  offset="1" style="stop-color:#DDDDDD"/>
			</linearGradient>
			<polygon class="st79" points="1007.1,0 1007.1,24.4 913.5,70 819.9,24.4 819.9,0 			"/>
			
				<radialGradient id="SVGID_81_" cx="241.0173" cy="124.7419" r="98.0508" gradientTransform="matrix(1.1848 0 0 1 6.831547e-02 0)" gradientUnits="userSpaceOnUse">
				<stop  offset="0" style="stop-color:#CBCBCB"/>
				<stop  offset="1" style="stop-color:#FFFFFF"/>
			</radialGradient>
			<ellipse class="st80" cx="285.6" cy="124.7" rx="116.2" ry="98.1"/>
			
				<radialGradient id="SVGID_82_" cx="97.6812" cy="407.114" r="98.0508" gradientTransform="matrix(1.1848 0 0 1 6.831547e-02 0)" gradientUnits="userSpaceOnUse">
				<stop  offset="0" style="stop-color:#CBCBCB"/>
				<stop  offset="1" style="stop-color:#FFFFFF"/>
			</radialGradient>
			<ellipse class="st81" cx="115.8" cy="407.1" rx="116.2" ry="98.1"/>
			
				<radialGradient id="SVGID_83_" cx="396.5371" cy="407.114" r="98.0508" gradientTransform="matrix(1.1848 0 0 1 6.831547e-02 0)" gradientUnits="userSpaceOnUse">
				<stop  offset="0" style="stop-color:#CBCBCB"/>
				<stop  offset="1" style="stop-color:#FFFFFF"/>
			</radialGradient>
			<ellipse class="st82" cx="469.9" cy="407.1" rx="116.2" ry="98.1"/>
			
				<radialGradient id="SVGID_84_" cx="727.1656" cy="407.114" r="98.0508" gradientTransform="matrix(1.1848 0 0 1 6.831547e-02 0)" gradientUnits="userSpaceOnUse">
				<stop  offset="0" style="stop-color:#CBCBCB"/>
				<stop  offset="1" style="stop-color:#FFFFFF"/>
			</radialGradient>
			<ellipse class="st83" cx="861.6" cy="407.1" rx="116.2" ry="98.1"/>
			
				<radialGradient id="SVGID_85_" cx="1048.2385" cy="407.114" r="98.0509" gradientTransform="matrix(1.1848 0 0 1 6.831547e-02 0)" gradientUnits="userSpaceOnUse">
				<stop  offset="0" style="stop-color:#CBCBCB"/>
				<stop  offset="1" style="stop-color:#FFFFFF"/>
			</radialGradient>
			<ellipse class="st84" cx="1242.1" cy="407.1" rx="116.2" ry="98.1"/>
			
				<radialGradient id="SVGID_86_" cx="1367.4003" cy="407.114" r="98.0508" gradientTransform="matrix(1.1848 0 0 1 6.831547e-02 0)" gradientUnits="userSpaceOnUse">
				<stop  offset="0" style="stop-color:#CBCBCB"/>
				<stop  offset="1" style="stop-color:#FFFFFF"/>
			</radialGradient>
			<ellipse class="st85" cx="1620.2" cy="407.1" rx="116.2" ry="98.1"/>
			
				<radialGradient id="SVGID_87_" cx="253.9176" cy="688.0529" r="98.0509" gradientTransform="matrix(1.1848 0 0 1 6.831547e-02 0)" gradientUnits="userSpaceOnUse">
				<stop  offset="0" style="stop-color:#CBCBCB"/>
				<stop  offset="1" style="stop-color:#FFFFFF"/>
			</radialGradient>
			<ellipse class="st86" cx="300.9" cy="688.1" rx="116.2" ry="98.1"/>
			
				<radialGradient id="SVGID_88_" cx="561.3736" cy="688.0529" r="98.0508" gradientTransform="matrix(1.1848 0 0 1 6.831547e-02 0)" gradientUnits="userSpaceOnUse">
				<stop  offset="0" style="stop-color:#CBCBCB"/>
				<stop  offset="1" style="stop-color:#FFFFFF"/>
			</radialGradient>
			<ellipse class="st87" cx="665.2" cy="688.1" rx="116.2" ry="98.1"/>
			
				<radialGradient id="SVGID_89_" cx="890.5688" cy="688.0529" r="98.0508" gradientTransform="matrix(1.1848 0 0 1 6.831547e-02 0)" gradientUnits="userSpaceOnUse">
				<stop  offset="0" style="stop-color:#CBCBCB"/>
				<stop  offset="1" style="stop-color:#FFFFFF"/>
			</radialGradient>
			<ellipse class="st88" cx="1055.2" cy="688.1" rx="116.2" ry="98.1"/>
			
				<radialGradient id="SVGID_90_" cx="1205.9083" cy="688.0529" r="98.0508" gradientTransform="matrix(1.1848 0 0 1 6.831547e-02 0)" gradientUnits="userSpaceOnUse">
				<stop  offset="0" style="stop-color:#CBCBCB"/>
				<stop  offset="1" style="stop-color:#FFFFFF"/>
			</radialGradient>
			<ellipse class="st89" cx="1428.9" cy="688.1" rx="116.2" ry="98.1"/>
			
				<radialGradient id="SVGID_91_" cx="1513.6031" cy="688.0529" r="98.0508" gradientTransform="matrix(1.1848 0 0 1 6.831547e-02 0)" gradientUnits="userSpaceOnUse">
				<stop  offset="0" style="stop-color:#CBCBCB"/>
				<stop  offset="1" style="stop-color:#FFFFFF"/>
			</radialGradient>
			<ellipse class="st90" cx="1793.4" cy="688.1" rx="116.2" ry="98.1"/>
			
				<radialGradient id="SVGID_92_" cx="114.1648" cy="958.9581" r="98.0508" gradientTransform="matrix(1.1848 0 0 1 6.831547e-02 0)" gradientUnits="userSpaceOnUse">
				<stop  offset="0" style="stop-color:#CBCBCB"/>
				<stop  offset="1" style="stop-color:#FFFFFF"/>
			</radialGradient>
			<ellipse class="st91" cx="135.3" cy="959" rx="116.2" ry="98.1"/>
			
				<radialGradient id="SVGID_93_" cx="421.6208" cy="958.9581" r="98.0509" gradientTransform="matrix(1.1848 0 0 1 6.831547e-02 0)" gradientUnits="userSpaceOnUse">
				<stop  offset="0" style="stop-color:#CBCBCB"/>
				<stop  offset="1" style="stop-color:#FFFFFF"/>
			</radialGradient>
			<ellipse class="st92" cx="499.6" cy="959" rx="116.2" ry="98.1"/>
			
				<radialGradient id="SVGID_94_" cx="750.8162" cy="958.9581" r="98.0508" gradientTransform="matrix(1.1848 0 0 1 6.831547e-02 0)" gradientUnits="userSpaceOnUse">
				<stop  offset="0" style="stop-color:#CBCBCB"/>
				<stop  offset="1" style="stop-color:#FFFFFF"/>
			</radialGradient>
			<ellipse class="st93" cx="889.7" cy="959" rx="116.2" ry="98.1"/>
			
				<radialGradient id="SVGID_95_" cx="1066.1555" cy="958.9581" r="98.0509" gradientTransform="matrix(1.1848 0 0 1 6.831547e-02 0)" gradientUnits="userSpaceOnUse">
				<stop  offset="0" style="stop-color:#CBCBCB"/>
				<stop  offset="1" style="stop-color:#FFFFFF"/>
			</radialGradient>
			<ellipse class="st94" cx="1263.3" cy="959" rx="116.2" ry="98.1"/>
			
				<radialGradient id="SVGID_96_" cx="1373.8505" cy="958.9581" r="98.0508" gradientTransform="matrix(1.1848 0 0 1 6.831547e-02 0)" gradientUnits="userSpaceOnUse">
				<stop  offset="0" style="stop-color:#CBCBCB"/>
				<stop  offset="1" style="stop-color:#FFFFFF"/>
			</radialGradient>
			<ellipse class="st95" cx="1627.8" cy="959" rx="116.2" ry="98.1"/>
			
				<radialGradient id="SVGID_97_" cx="570.6904" cy="124.7419" r="98.0509" gradientTransform="matrix(1.1848 0 0 1 6.831547e-02 0)" gradientUnits="userSpaceOnUse">
				<stop  offset="0" style="stop-color:#CBCBCB"/>
				<stop  offset="1" style="stop-color:#FFFFFF"/>
			</radialGradient>
			<ellipse class="st96" cx="676.2" cy="124.7" rx="116.2" ry="98.1"/>
			
				<radialGradient id="SVGID_98_" cx="886.0298" cy="124.7419" r="98.0508" gradientTransform="matrix(1.1848 0 0 1 6.831547e-02 0)" gradientUnits="userSpaceOnUse">
				<stop  offset="0" style="stop-color:#CBCBCB"/>
				<stop  offset="1" style="stop-color:#FFFFFF"/>
			</radialGradient>
			<ellipse class="st97" cx="1049.9" cy="124.7" rx="116.2" ry="98.1"/>
			
				<radialGradient id="SVGID_99_" cx="1201.3693" cy="124.7419" r="98.0508" gradientTransform="matrix(1.1848 0 0 1 6.831547e-02 0)" gradientUnits="userSpaceOnUse">
				<stop  offset="0" style="stop-color:#CBCBCB"/>
				<stop  offset="1" style="stop-color:#FFFFFF"/>
			</radialGradient>
			<ellipse class="st98" cx="1423.5" cy="124.7" rx="116.2" ry="98.1"/>
			
				<radialGradient id="SVGID_100_" cx="1516.7087" cy="124.7419" r="98.0508" gradientTransform="matrix(1.1848 0 0 1 6.831547e-02 0)" gradientUnits="userSpaceOnUse">
				<stop  offset="0" style="stop-color:#CBCBCB"/>
				<stop  offset="1" style="stop-color:#FFFFFF"/>
			</radialGradient>
			<ellipse class="st99" cx="1797.1" cy="124.7" rx="116.2" ry="98.1"/>
			<linearGradient id="SVGID_101_" gradientUnits="userSpaceOnUse" x1="327.9461" y1="185.2355" x2="188.7478" y2="46.0372">
				<stop  offset="0" style="stop-color:#FFFFFF"/>
				<stop  offset="1" style="stop-color:#DDDDDD"/>
			</linearGradient>
			<polygon class="st100" points="258.3,24.4 164.8,70 164.8,161.2 258.3,206.8 351.9,161.2 351.9,70 			"/>
			<g>
				<linearGradient id="SVGID_102_" gradientUnits="userSpaceOnUse" x1="702.3148" y1="185.2356" x2="563.1164" y2="46.0372">
					<stop  offset="0" style="stop-color:#FFFFFF"/>
					<stop  offset="1" style="stop-color:#DDDDDD"/>
				</linearGradient>
				<polygon class="st101" points="632.7,24.4 539.1,70 539.1,161.2 632.7,206.8 726.3,161.2 726.3,70 				"/>
			</g>
			<linearGradient id="SVGID_103_" gradientUnits="userSpaceOnUse" x1="1076.6832" y1="185.2355" x2="937.485" y2="46.0372">
				<stop  offset="0" style="stop-color:#FFFFFF"/>
				<stop  offset="1" style="stop-color:#DDDDDD"/>
			</linearGradient>
			<polygon class="st102" points="1007.1,24.4 913.5,70 913.5,161.2 1007.1,206.8 1100.7,161.2 1100.7,70 			"/>
			<linearGradient id="SVGID_104_" gradientUnits="userSpaceOnUse" x1="1451.052" y1="185.2355" x2="1311.8536" y2="46.0372">
				<stop  offset="0" style="stop-color:#FFFFFF"/>
				<stop  offset="1" style="stop-color:#DDDDDD"/>
			</linearGradient>
			<polygon class="st103" points="1381.5,24.4 1287.9,70 1287.9,161.2 1381.5,206.8 1475,161.2 1475,70 			"/>
			<linearGradient id="SVGID_105_" gradientUnits="userSpaceOnUse" x1="1825.4205" y1="185.2355" x2="1686.2223" y2="46.0372">
				<stop  offset="0" style="stop-color:#FFFFFF"/>
				<stop  offset="1" style="stop-color:#DDDDDD"/>
			</linearGradient>
			<polygon class="st104" points="1755.8,24.4 1662.2,70 1662.2,161.2 1755.8,206.8 1849.4,161.2 1849.4,70 			"/>
			<g>
				<linearGradient id="SVGID_106_" gradientUnits="userSpaceOnUse" x1="143.7089" y1="455.9149" x2="10.408" y2="322.6139">
					<stop  offset="0" style="stop-color:#FFFFFF"/>
					<stop  offset="1" style="stop-color:#DDDDDD"/>
				</linearGradient>
				<polygon class="st105" points="164.8,343.7 164.8,434.9 71.2,480.5 0.6,446.1 0.6,332.4 71.2,298 				"/>
			</g>
			<linearGradient id="SVGID_107_" gradientUnits="userSpaceOnUse" x1="515.1302" y1="458.8557" x2="375.9321" y2="319.6576">
				<stop  offset="0" style="stop-color:#FFFFFF"/>
				<stop  offset="1" style="stop-color:#DDDDDD"/>
			</linearGradient>
			<polygon class="st106" points="445.5,298 351.9,343.7 351.9,434.9 445.5,480.5 539.1,434.9 539.1,343.7 			"/>
			<g>
				<linearGradient id="SVGID_108_" gradientUnits="userSpaceOnUse" x1="889.499" y1="458.8557" x2="750.3009" y2="319.6576">
					<stop  offset="0" style="stop-color:#FFFFFF"/>
					<stop  offset="1" style="stop-color:#DDDDDD"/>
				</linearGradient>
				<polygon class="st107" points="819.9,298 726.3,343.7 726.3,434.9 819.9,480.5 913.5,434.9 913.5,343.7 				"/>
			</g>
			<linearGradient id="SVGID_109_" gradientUnits="userSpaceOnUse" x1="1263.8676" y1="458.8557" x2="1124.6693" y2="319.6575">
				<stop  offset="0" style="stop-color:#FFFFFF"/>
				<stop  offset="1" style="stop-color:#DDDDDD"/>
			</linearGradient>
			<polygon class="st108" points="1194.3,298 1100.7,343.7 1100.7,434.9 1194.3,480.5 1287.9,434.9 1287.9,343.7 			"/>
			<g>
				<linearGradient id="SVGID_110_" gradientUnits="userSpaceOnUse" x1="1638.2363" y1="458.8557" x2="1499.0381" y2="319.6576">
					<stop  offset="0" style="stop-color:#FFFFFF"/>
					<stop  offset="1" style="stop-color:#DDDDDD"/>
				</linearGradient>
				<polygon class="st109" points="1568.6,298 1475,343.7 1475,434.9 1568.6,480.5 1662.2,434.9 1662.2,343.7 				"/>
			</g>
			<linearGradient id="SVGID_111_" gradientUnits="userSpaceOnUse" x1="327.9461" y1="732.476" x2="188.7478" y2="593.2778">
				<stop  offset="0" style="stop-color:#FFFFFF"/>
				<stop  offset="1" style="stop-color:#DDDDDD"/>
			</linearGradient>
			<polygon class="st110" points="258.3,571.7 164.8,617.3 164.8,708.5 258.3,754.1 351.9,708.5 351.9,617.3 			"/>
			<linearGradient id="SVGID_112_" gradientUnits="userSpaceOnUse" x1="702.3148" y1="732.4761" x2="563.1164" y2="593.2777">
				<stop  offset="0" style="stop-color:#FFFFFF"/>
				<stop  offset="1" style="stop-color:#DDDDDD"/>
			</linearGradient>
			<polygon class="st111" points="632.7,571.7 539.1,617.3 539.1,708.5 632.7,754.1 726.3,708.5 726.3,617.3 			"/>
			<linearGradient id="SVGID_113_" gradientUnits="userSpaceOnUse" x1="1076.6832" y1="732.476" x2="937.485" y2="593.2778">
				<stop  offset="0" style="stop-color:#FFFFFF"/>
				<stop  offset="1" style="stop-color:#DDDDDD"/>
			</linearGradient>
			<polygon class="st112" points="1007.1,571.7 913.5,617.3 913.5,708.5 1007.1,754.1 1100.7,708.5 1100.7,617.3 			"/>
			<linearGradient id="SVGID_114_" gradientUnits="userSpaceOnUse" x1="1451.052" y1="732.4761" x2="1311.8536" y2="593.2777">
				<stop  offset="0" style="stop-color:#FFFFFF"/>
				<stop  offset="1" style="stop-color:#DDDDDD"/>
			</linearGradient>
			<polygon class="st113" points="1381.5,571.7 1287.9,617.3 1287.9,708.5 1381.5,754.1 1475,708.5 1475,617.3 			"/>
			<linearGradient id="SVGID_115_" gradientUnits="userSpaceOnUse" x1="1825.4205" y1="732.476" x2="1686.2223" y2="593.2778">
				<stop  offset="0" style="stop-color:#FFFFFF"/>
				<stop  offset="1" style="stop-color:#DDDDDD"/>
			</linearGradient>
			<polygon class="st114" points="1755.8,571.7 1662.2,617.3 1662.2,708.5 1755.8,754.1 1849.4,708.5 1849.4,617.3 			"/>
			<g>
				<linearGradient id="SVGID_116_" gradientUnits="userSpaceOnUse" x1="143.7089" y1="1003.1509" x2="10.408" y2="869.8499">
					<stop  offset="0" style="stop-color:#FFFFFF"/>
					<stop  offset="1" style="stop-color:#DDDDDD"/>
				</linearGradient>
				<polygon class="st115" points="0.6,993.3 71.2,1027.7 164.8,982.1 164.8,890.9 71.2,845.3 0.6,879.7 0.6,993.3 				"/>
			</g>
			<linearGradient id="SVGID_117_" gradientUnits="userSpaceOnUse" x1="515.1302" y1="1006.0963" x2="375.9321" y2="866.8981">
				<stop  offset="0" style="stop-color:#FFFFFF"/>
				<stop  offset="1" style="stop-color:#DDDDDD"/>
			</linearGradient>
			<polygon class="st116" points="445.5,845.3 351.9,890.9 351.9,982.1 445.5,1027.7 539.1,982.1 539.1,890.9 			"/>
			<linearGradient id="SVGID_118_" gradientUnits="userSpaceOnUse" x1="889.499" y1="1006.0962" x2="750.3009" y2="866.8981">
				<stop  offset="0" style="stop-color:#FFFFFF"/>
				<stop  offset="1" style="stop-color:#DDDDDD"/>
			</linearGradient>
			<polygon class="st117" points="819.9,845.3 726.3,890.9 726.3,982.1 819.9,1027.7 913.5,982.1 913.5,890.9 			"/>
			<linearGradient id="SVGID_119_" gradientUnits="userSpaceOnUse" x1="1263.8676" y1="1006.0963" x2="1124.6693" y2="866.8981">
				<stop  offset="0" style="stop-color:#FFFFFF"/>
				<stop  offset="1" style="stop-color:#DDDDDD"/>
			</linearGradient>
			<polygon class="st118" points="1194.3,845.3 1100.7,890.9 1100.7,982.1 1194.3,1027.7 1287.9,982.1 1287.9,890.9 			"/>
			<linearGradient id="SVGID_120_" gradientUnits="userSpaceOnUse" x1="1638.2363" y1="1006.0963" x2="1499.0381" y2="866.8981">
				<stop  offset="0" style="stop-color:#FFFFFF"/>
				<stop  offset="1" style="stop-color:#DDDDDD"/>
			</linearGradient>
			<polygon class="st119" points="1568.6,845.3 1475,890.9 1475,982.1 1568.6,1027.7 1662.2,982.1 1662.2,890.9 			"/>
		</g>
	</g>
</g>
<rect x="1" y="-4" class="st120" width="1919" height="1084"/>
</svg>
