<?xml version="1.0" encoding="utf-8"?>
<!-- Generator: Adobe Illustrator 22.0.0, SVG Export Plug-In . SVG Version: 6.00 Build 0)  -->
<svg version="1.1" id="Layer_1" xmlns="http://www.w3.org/2000/svg" xmlns:xlink="http://www.w3.org/1999/xlink" x="0px" y="0px"
	 viewBox="0 0 750 254.2" style="enable-background:new 0 0 750 254.2;" xml:space="preserve">
<style type="text/css">
	.st0{fill:url(#SVGID_1_);}
	.st1{opacity:0.3;}
	.st2{fill:none;}
	.st3{fill:#FFFFFF;}
</style>
<linearGradient id="SVGID_1_" gradientUnits="userSpaceOnUse" x1="124.3151" y1="-124.0945" x2="626.3984" y2="377.9888">
	<stop  offset="0" style="stop-color:#EBEBEB"/>
	<stop  offset="1" style="stop-color:#BDBDBD"/>
</linearGradient>
<rect x="0.4" y="-0.1" class="st0" width="750" height="254.2"/>
<g class="st1">
	<path class="st2" d="M-50.8,241.5c0.8,0.7,1.4,1.7,1.5,2.8l84.8-6.8c0-1,0.3-1.9,0.8-2.7l-50.7-41.4L-50.8,241.5z"/>
	<path class="st2" d="M29.1,136L-14,192.9l50.7,41.4c0.7-0.7,1.6-1.2,2.7-1.4l-7.7-96.2C30.7,136.8,29.8,136.5,29.1,136z"/>
	<path class="st2" d="M-14,309.2l51.1-68.3c-0.5-0.4-0.9-1-1.2-1.7l-73.7,25.9L-14,309.2z"/>
	<path class="st2" d="M-38.1,264.6l73.8-25.9c-0.1-0.2-0.1-0.4-0.1-0.6l-84.4,6.8L-38.1,264.6z"/>
	<path class="st2" d="M139.8,148.1c0-0.1,0-0.2,0-0.3L36,133.1c-0.2,1-0.8,1.9-1.6,2.6l47,65.9l59.5-50.9
		C140.3,150,139.9,149.1,139.8,148.1z"/>
	<path class="st2" d="M43.3,234.3L81,202l-47-65.9c-0.5,0.3-1.1,0.5-1.7,0.6l7.7,96.2C41.3,232.9,42.4,233.4,43.3,234.3z"/>
	<path class="st2" d="M205.4,200.8l0.4-24.7l0.4-27.4c-0.4,0.1-0.8,0.2-1.2,0.3c-0.7,0.1-1.3,0-1.9-0.3l-25.8,29.8l25.2,23.5
		c0.7-0.7,1.6-1.1,2.7-1.2C205.3,200.8,205.3,200.8,205.4,200.8z"/>
	<path class="st2" d="M43.7,234.7c0.5,0.7,0.8,1.5,0.9,2.4c0,0.3,0,0.5,0,0.8l66.4,10.8c0.2-1,0.8-1.9,1.6-2.5l-31.2-43.7
		L43.7,234.7z"/>
	<path class="st2" d="M118.5,246.4c0.3,0.3,0.5,0.6,0.7,1l82.1-40.4c-0.2-0.4-0.3-0.8-0.3-1.3c-0.1-1.2,0.3-2.4,1.1-3.3l-25.2-23.5
		L118.5,246.4z"/>
	<path class="st2" d="M147.7,150.8l29.2,27.3l25.6-29.6c-1.3-0.7-2.2-2-2.4-3.5l-51.3,3.2C148.8,149.1,148.3,150.1,147.7,150.8z"/>
	<path class="st2" d="M148.9,147.5l51.2-3.2c0-1.8,1.1-3.3,2.6-4l-19.4-50.7l-36.2,54.5c1,0.8,1.7,1.9,1.8,3.2
		C148.9,147.4,148.9,147.5,148.9,147.5z"/>
	<path class="st2" d="M142.9,152c-0.6-0.2-1.2-0.5-1.6-0.9l-59.5,51l31.2,43.7c0.6-0.4,1.3-0.6,2-0.7c0.5,0,0.9,0,1.3,0.1l18.5-64.7
		L142.9,152z"/>
	<path class="st2" d="M147.2,151.2c-0.7,0.6-1.6,1-2.5,1c-0.4,0-0.8,0-1.2-0.1l-25.2,88l-1.5,5.2c0.4,0.2,0.8,0.4,1.2,0.7l58.4-67.5
		L147.2,151.2z"/>
	<path class="st2" d="M239.9,190.6l-31.6-43.4c-0.4,0.5-0.9,1-1.5,1.3l-0.4,21.8l-0.5,30.6c1.6,0.1,2.9,1.1,3.7,2.4L239.9,190.6z"/>
	<path class="st2" d="M28.6,135.7c-0.3-0.3-0.6-0.5-0.8-0.9l-62.2,36.8c0.3,0.5,0.4,1.1,0.5,1.7c0.1,1-0.2,2-0.7,2.8l20.1,16.5
		L28.6,135.7z"/>
	<path class="st2" d="M27.1,132.6c0-0.6,0-1.1,0.2-1.7l-31.5-11.8L-35.8,170c0.4,0.3,0.7,0.6,1,0.9l62.4-36.6
		C27.3,133.8,27.1,133.2,27.1,132.6z"/>
	<path class="st2" d="M-25.7,106.9c1-0.1,2,0.2,2.8,0.7l66.2-88.7c-0.9-0.8-1.5-1.8-1.6-3.1c-0.1-0.7,0.1-1.4,0.3-2L-72.1-39.9
		c-0.5,1-1.3,1.7-2.3,2.1L-26.5,107C-26.3,106.9-26,106.9-25.7,106.9z"/>
	<path class="st2" d="M209.8,203.8c0.1,0.4,0.2,0.8,0.3,1.2c0.1,0.8-0.1,1.6-0.4,2.3l71.1,41.6c0.2-0.4,0.5-0.7,0.9-0.9L240.3,191
		L209.8,203.8z"/>
	<path class="st2" d="M305.6,86.5c-0.2-0.5-0.4-1-0.4-1.6c-0.1-1,0.2-2,0.7-2.8L230.1,27c-0.3,0.4-0.8,0.8-1.2,1l39.5,79.7
		L305.6,86.5z"/>
	<path class="st2" d="M305.9,87l-37.3,21.3l26.9,54.3c0.4-0.2,0.9-0.3,1.4-0.3c0.3,0,0.5,0,0.7,0l11.1-73.4
		C307.5,88.7,306.5,88,305.9,87z"/>
	<path class="st2" d="M208.4,142l59.4-33.9l-39.5-79.8c-0.4,0.2-0.9,0.3-1.4,0.3c-0.3,0-0.6,0-0.9,0l-20.3,111.5
		C206.8,140.4,207.8,141,208.4,142z"/>
	<path class="st2" d="M208.7,142.5c0.2,0.5,0.4,1,0.4,1.6c0,0.2,0,0.3,0,0.5l83.7,20.9c0.3-1.1,1.1-2,2-2.5l-26.9-54.3L208.7,142.5z
		"/>
	<path class="st2" d="M309.3,89l-11.1,73.4c1.1,0.2,2,0.9,2.7,1.8l57-36.2c-0.3-0.6-0.6-1.2-0.6-1.9c-0.1-1.1,0.2-2.1,0.8-2.9
		l-45-35.6c-0.7,0.8-1.8,1.4-3,1.5C309.8,89,309.5,89,309.3,89z"/>
	<path class="st2" d="M209.1,145.2c-0.1,0.5-0.2,1-0.5,1.4l31.8,43.7l52.5-22c-0.1-0.4-0.2-0.7-0.2-1.1c0-0.4,0-0.8,0.1-1.2
		l-51.5-12.8L209.1,145.2z"/>
	<path class="st2" d="M293.2,168.8l-52.4,22l41.3,56.8c0.6-0.4,1.3-0.6,2.1-0.7c0.3,0,0.5,0,0.7,0l11.3-75.7
		C294.9,171,293.8,170.1,293.2,168.8z"/>
	<path class="st2" d="M146.6,143.8C146.6,143.8,146.6,143.8,146.6,143.8L183.1,89l-3.1-8.1c-0.3,0.1-0.6,0.2-1,0.2
		c-0.7,0.1-1.4-0.1-2.1-0.3L146.6,143.8z"/>
	<path class="st2" d="M203.3,140.1c0.3-0.1,0.6-0.2,1-0.2c0.3,0,0.6,0,0.9,0l20.3-111.5c-0.4-0.1-0.8-0.3-1.2-0.5l-40.6,61
		L203.3,140.1z"/>
	<path class="st2" d="M144,143.2c0.7-0.1,1.4,0.1,2.1,0.3l30.4-63c-1.3-0.7-2.2-2-2.3-3.6c0,0,0,0,0,0L25.8,78
		c0,0.8-0.2,1.6-0.5,2.2l115.2,65.3C141.1,144.2,142.4,143.3,144,143.2z"/>
	<path class="st2" d="M31.2,127.7c2.5-0.2,4.7,1.7,4.9,4.2c0,0.2,0,0.5,0,0.7l87.2,12.3l16.5,2.3c0-0.4,0.2-0.8,0.3-1.1L24.9,80.7
		c-0.7,0.9-1.7,1.6-2.9,1.8l9,45.2C31.1,127.7,31.2,127.7,31.2,127.7z"/>
	<path class="st2" d="M27.5,130.4c0.6-1.2,1.6-2.2,3-2.5l-9-45.3c-1,0-1.9-0.2-2.6-0.7l-22.8,36.7L27.5,130.4z"/>
	<path class="st2" d="M-20.9,112.2l16.4,6.2l22.8-36.8c-0.3-0.2-0.5-0.5-0.7-0.8l-39.2,28.1c0.4,0.6,0.7,1.3,0.7,2.1
		C-20.8,111.4-20.8,111.8-20.9,112.2z"/>
	<path class="st2" d="M223.8,27.7C223.8,27.7,223.8,27.7,223.8,27.7l-41.9,45.7c0.7,0.7,1.2,1.7,1.3,2.8c0.2,2-0.9,3.7-2.6,4.5
		l3,7.7L223.8,27.7z"/>
	<path class="st3" d="M-157.3,354.3c2.5-0.2,4.4-2.4,4.2-4.9c0-0.2,0-0.4-0.1-0.6l139-38.8l0.1,0.2l0.2-0.3l1.1-0.3l-0.8-0.1
		l51-68.3c0.8,0.5,1.8,0.8,2.8,0.7c2-0.2,3.6-1.6,4.1-3.5l66.4,10.8c0,0.3,0,0.5,0,0.8c0.2,2.5,2.4,4.4,4.9,4.2
		c2.5-0.2,4.4-2.4,4.2-4.9c0-0.5-0.2-0.9-0.3-1.4l82.1-40.4c0.8,1.5,2.5,2.5,4.3,2.3c1.5-0.1,2.7-0.9,3.4-2l71.1,41.6
		c-0.4,0.7-0.5,1.5-0.5,2.4c0.2,2.5,2.4,4.4,4.9,4.2c2.5-0.2,4.4-2.4,4.2-4.9c-0.2-2-1.7-3.7-3.6-4.1l11.3-75.7c0.2,0,0.5,0,0.7,0
		c2.5-0.2,4.4-2.4,4.2-4.9c-0.1-0.7-0.2-1.3-0.5-1.8l57-36.2c0.9,1.2,2.4,1.9,3.9,1.7c2.5-0.2,4.4-2.4,4.2-4.9
		c-0.2-2.5-2.4-4.4-4.9-4.2c-1.2,0.1-2.3,0.7-3,1.5l-45-35.6c0.6-0.8,0.9-1.9,0.8-2.9c-0.2-2.5-2.4-4.4-4.9-4.2
		c-1.3,0.1-2.4,0.7-3.1,1.6l-75.8-55.1c0.5-0.8,0.8-1.8,0.7-2.8c-0.2-2.5-2.4-4.4-4.9-4.2c-2.5,0.2-4.4,2.4-4.2,4.9
		c0.1,1.1,0.6,2,1.3,2.8L181.5,73c-0.9-0.7-2-1.1-3.2-1c-2.3,0.2-4,2-4.2,4.3L25.7,77.4l0,0.3c0,0,0,0,0,0c-0.2-2.5-2.4-4.4-4.9-4.2
		c-2.5,0.2-4.4,2.4-4.2,4.9c0.1,0.7,0.3,1.3,0.6,1.9l-39.2,28.1c-0.2-0.2-0.3-0.3-0.5-0.5l66.2-88.7c0.8,0.5,1.8,0.8,2.8,0.7
		c2.5-0.2,4.4-2.4,4.2-4.9c-0.2-2.5-2.4-4.4-4.9-4.2c-1.6,0.1-2.9,1-3.6,2.3L-71.9-40.4c0.2-0.6,0.3-1.2,0.3-1.9
		c-0.2-2.5-2.4-4.4-4.9-4.2c-2.3,0.2-4,2-4.2,4.2l-59.6,1.8c-0.2-2.5-2.4-4.3-4.9-4.1c-2.5,0.2-4.4,2.4-4.2,4.9
		c0.1,1.8,1.3,3.2,2.8,3.8L-161,7.9c-0.4-0.1-0.9-0.1-1.4-0.1c-2.5,0.2-4.4,2.4-4.2,4.9s2.4,4.4,4.9,4.2c0,0,0,0,0.1,0l12.1,60.4
		c-2.2,0.5-3.7,2.5-3.5,4.8c0.1,0.7,0.3,1.4,0.6,2l-49.4,34.4c-0.9-1.1-2.3-1.8-3.9-1.7c-2.5,0.2-4.4,2.4-4.2,4.9s2.4,4.4,4.9,4.2
		c0.6-0.1,1.2-0.2,1.7-0.5l28.1,46.5c-1.3,0.9-2.1,2.4-1.9,4.1c0.1,1.3,0.7,2.3,1.6,3.1l-45.4,61.3c-0.8-0.5-1.8-0.8-2.8-0.7
		c-2.5,0.2-4.4,2.4-4.2,4.9c0.2,2.5,2.4,4.4,4.9,4.2c1.6-0.1,3-1.1,3.7-2.4l100.8,44c-0.2,0.6-0.3,1.2-0.3,1.9c0,0.2,0,0.4,0.1,0.5
		l-36.6,53.3c-0.8-0.5-1.7-0.7-2.7-0.6c-2.5,0.2-4.4,2.4-4.2,4.9C-161.9,352.6-159.7,354.5-157.3,354.3z M-14.6,309.4l-95.2-17.2
		c0-0.3,0-0.6,0-0.9c0-0.3-0.1-0.6-0.2-0.9l71.5-25.1L-14.6,309.4z M-130.9,144c0.8,0.7,1.9,1,3,1l13.1,142l-0.1,0.2
		c-0.4,0.1-0.7,0.2-1,0.3l-51.9-103.3L-130.9,144z M-131.8,143.1l-37.4,29.4c-0.5-0.6-1.2-1-2-1.3l10-38.6l28.7,7.1
		c-0.1,0.4-0.1,0.8-0.1,1.2C-132.5,141.7-132.2,142.4-131.8,143.1z M-127.4,145c0.6-0.1,1.2-0.3,1.7-0.6l55.6,78.2l-41.9,65.2
		c-0.7-0.4-1.5-0.6-2.3-0.6L-127.4,145z M-125.2,137l40.7-55.1c0.8,0.5,1.8,0.8,2.8,0.7c0.4,0,0.9-0.1,1.2-0.3l17.9,39.3l-61.3,17.4
		C-124.1,138.2-124.5,137.5-125.2,137z M-110.5,289.2l53.3-41.2c0.9,1,2.3,1.6,3.8,1.5c2.3-0.2,4-2,4.2-4.3l10.6,19.6l-71.4,25.1
		C-110.2,289.6-110.3,289.4-110.5,289.2z M-111.5,288l41.7-65l13.1,18.4c-1.1,0.9-1.8,2.3-1.7,3.9c0.1,0.8,0.3,1.5,0.8,2.2l-53,41
		l-0.2,0.2C-111,288.4-111.3,288.2-111.5,288z M-54.2,240.4c-0.7,0.1-1.4,0.3-2,0.7l-13.2-18.6l28.8-44.9c0.3,0.2,0.6,0.3,0.9,0.4
		l-13.4,62.5C-53.5,240.4-53.8,240.4-54.2,240.4z M-39.1,178.1c0.3,0,0.7,0.1,1,0c1.3-0.1,2.4-0.7,3.1-1.6l20.1,16.5l-36.5,48.2
		c-0.4-0.3-0.8-0.4-1.3-0.6L-39.1,178.1z M-34.6,176.1c0.5-0.8,0.8-1.8,0.7-2.8c0-0.6-0.2-1.2-0.5-1.7l62.2-36.8
		c0.2,0.3,0.5,0.6,0.8,0.9l-43.1,56.9L-34.6,176.1z M-26.4,115.8l-11.9,53.3c-0.2,0-0.3,0-0.5,0c-0.4,0-0.9,0.1-1.2,0.3L-61.7,122
		l32-9.1C-29.1,114.4-27.9,115.5-26.4,115.8z M-34.8,170.9c-0.3-0.4-0.6-0.7-1-0.9l31.6-50.9l31.5,11.8c-0.2,0.5-0.2,1.1-0.2,1.7
		c0,0.6,0.2,1.2,0.5,1.7L-34.8,170.9z M-36.3,169.6c-0.4-0.2-0.9-0.4-1.4-0.5l11.9-53.3c0.3,0,0.5,0,0.8,0c1.9-0.2,3.4-1.4,3.9-3.1
		l16.3,6.1L-36.3,169.6z M-29.9,111.8c0,0.2,0,0.4,0.1,0.6l-32.1,9.1l-18-39.4c0.6-0.3,1.2-0.8,1.6-1.4l48.9,28.7
		C-29.8,110.1-30,110.9-29.9,111.8z M-62.3,122.1l21.7,47.5c-0.9,0.5-1.6,1.2-2,2.1l-81.2-30c0.2-0.5,0.2-1.1,0.2-1.7
		c0-0.2,0-0.4-0.1-0.6L-62.3,122.1z M-42.8,172.4c-0.2,0.5-0.2,1.1-0.2,1.7c0.1,1.4,0.8,2.5,1.8,3.3L-69.8,222l-55.4-78
		c0.5-0.4,1-1,1.3-1.7L-42.8,172.4z M37.1,240.9L-14,309.2l-23.9-44.1l73.7-25.9C36.1,239.9,36.6,240.4,37.1,240.9z M35.7,238.6
		l-73.8,25.9l-10.7-19.7l84.4-6.8C35.6,238.3,35.6,238.5,35.7,238.6z M35.5,237.5l-84.8,6.8c-0.2-1.1-0.7-2.1-1.5-2.8l36.5-48.2
		l50.7,41.4C35.8,235.6,35.5,236.5,35.5,237.5z M39.4,232.9c-1.1,0.2-2,0.7-2.7,1.4L-14,192.9L29.1,136c0.7,0.5,1.6,0.8,2.6,0.7
		L39.4,232.9z M32.2,136.7c0.6-0.1,1.2-0.3,1.7-0.6L81,202l-37.7,32.3c-0.8-0.9-2-1.4-3.3-1.4L32.2,136.7z M34.5,135.7
		c0.8-0.6,1.4-1.6,1.6-2.6l103.8,14.6c0,0.1,0,0.2,0,0.3c0.1,1,0.5,1.9,1.1,2.6l-59.5,50.9L34.5,135.7z M110.9,248.7l-66.4-10.8
		c0-0.3,0-0.5,0-0.8c-0.1-0.9-0.4-1.7-0.9-2.4l37.7-32.2l31.2,43.7C111.7,246.8,111.2,247.7,110.9,248.7z M116.3,245.2
		c-0.4-0.1-0.9-0.1-1.3-0.1c-0.7,0.1-1.4,0.3-2,0.7l-31.2-43.7l59.5-51c0.5,0.4,1,0.7,1.6,0.9l-8.1,28.5L116.3,245.2z M116.9,245.4
		l1.5-5.2l25.2-88c0.4,0.1,0.8,0.1,1.2,0.1c1-0.1,1.9-0.5,2.5-1l29.3,27.3l-58.4,67.5C117.7,245.8,117.3,245.6,116.9,245.4z
		 M147.1,144.1l36.2-54.5l19.4,50.7c-1.5,0.7-2.6,2.2-2.6,4l-51.2,3.2c0-0.1,0-0.1,0-0.2C148.7,146,148.1,144.9,147.1,144.1z
		 M205.9,200.8l0.5-30.6l0.4-21.8c0.6-0.3,1.1-0.8,1.5-1.3l31.6,43.4l-30.3,12.7C208.9,201.9,207.5,201,205.9,200.8z M200.1,144.9
		c0.2,1.6,1.1,2.9,2.4,3.5l-25.6,29.6l-29.2-27.3c0.7-0.7,1.1-1.7,1.2-2.7L200.1,144.9z M201.1,205.7c0,0.5,0.1,0.9,0.3,1.3
		l-82.1,40.4c-0.2-0.4-0.5-0.7-0.7-1l58.4-67.5l25.2,23.5C201.4,203.3,201,204.5,201.1,205.7z M202.5,202l-25.2-23.5l25.8-29.8
		c0.6,0.2,1.2,0.3,1.9,0.3c0.4,0,0.8-0.1,1.2-0.3l-0.4,27.4l-0.4,24.7c0,0-0.1,0-0.1,0C204.2,200.9,203.2,201.4,202.5,202z
		 M280.8,248.9l-71.1-41.6c0.3-0.7,0.5-1.5,0.4-2.3c0-0.4-0.1-0.8-0.3-1.2l30.4-12.8l41.4,56.9C281.3,248.2,281,248.5,280.8,248.9z
		 M284.9,246.9c-0.2,0-0.5,0-0.7,0c-0.8,0.1-1.5,0.3-2.1,0.7l-41.3-56.8l52.4-22c0.6,1.2,1.7,2.1,3.1,2.4L284.9,246.9z M292.7,167.2
		c0,0.4,0.1,0.8,0.2,1.1l-52.5,22l-31.8-43.7c0.2-0.4,0.4-0.9,0.5-1.4l32.1,8l51.5,12.8C292.7,166.4,292.7,166.8,292.7,167.2z
		 M292.9,165.4l-83.7-20.9c0-0.2,0-0.3,0-0.5c0-0.6-0.2-1.1-0.4-1.6l59.4-33.9l26.9,54.3C294,163.5,293.2,164.4,292.9,165.4z
		 M296.9,162.3c-0.5,0-1,0.2-1.4,0.3l-26.9-54.3L305.9,87c0.6,1,1.7,1.7,2.8,1.9l-11.1,73.4C297.4,162.3,297.1,162.3,296.9,162.3z
		 M313,87.5l45,35.6c-0.6,0.8-0.9,1.9-0.8,2.9c0.1,0.7,0.3,1.4,0.6,1.9l-57,36.2c-0.6-0.9-1.6-1.5-2.7-1.8L309.3,89
		c0.2,0,0.5,0,0.7,0C311.2,88.9,312.3,88.4,313,87.5z M230.1,27l75.8,55.1c-0.5,0.8-0.8,1.8-0.7,2.8c0,0.6,0.2,1.1,0.4,1.6
		l-37.3,21.3L228.8,28C229.3,27.8,229.7,27.4,230.1,27z M226.1,28.6c0.3,0,0.6,0,0.9,0c0.5,0,1-0.2,1.4-0.3l39.5,79.8L208.4,142
		c-0.6-0.9-1.6-1.6-2.7-1.9L226.1,28.6z M225.5,28.5L205.2,140c-0.3,0-0.6,0-0.9,0c-0.3,0-0.7,0.1-1,0.2L183.7,89l40.6-61
		C224.7,28.2,225.1,28.4,225.5,28.5z M183.1,76.2c-0.1-1.1-0.5-2-1.3-2.8l41.8-45.8c0,0,0.1,0,0.1,0.1l-40.4,60.7l-3-7.7
		C182.2,79.9,183.3,78.1,183.1,76.2z M179,81.1c0.3,0,0.7-0.1,1-0.2l3.1,8.1l-36.5,54.8c0,0,0,0,0,0l30.4-63
		C177.6,81,178.3,81.1,179,81.1z M25.8,78l148.3-1.1c0,0,0,0,0,0c0.1,1.6,1,2.9,2.3,3.6l-30.4,63c-0.6-0.3-1.3-0.4-2.1-0.3
		c-1.6,0.1-2.9,1-3.6,2.3L25.2,80.2C25.6,79.6,25.8,78.8,25.8,78z M24.9,80.7L140.1,146c-0.1,0.4-0.2,0.7-0.3,1.1l-16.5-2.3
		l-87.2-12.3c0-0.2,0-0.5,0-0.7c-0.2-2.5-2.4-4.4-4.9-4.2c-0.1,0-0.2,0-0.2,0l-9-45.2C23.2,82.3,24.2,81.6,24.9,80.7z M18.8,81.9
		c0.8,0.5,1.7,0.7,2.6,0.7l9,45.3c-1.3,0.4-2.4,1.3-3,2.5l-31.4-11.8L18.8,81.9z M-21.6,108.9l39.2-28.1c0.2,0.3,0.5,0.6,0.7,0.8
		l-22.8,36.8l-16.4-6.2c0.1-0.4,0.1-0.8,0.1-1.2C-20.9,110.2-21.2,109.5-21.6,108.9z M-72.1-39.9L42,13.8c-0.2,0.6-0.4,1.3-0.3,2
		c0.1,1.2,0.7,2.3,1.6,3.1l-66.2,88.7c-0.8-0.5-1.8-0.8-2.8-0.7c-0.3,0-0.5,0.1-0.8,0.1L-74.4-37.7C-73.4-38.2-72.6-38.9-72.1-39.9z
		 M-76.1-37.4c0.1,0,0.2,0,0.4,0c0.3,0,0.5-0.1,0.8-0.1l47.9,144.8c-0.8,0.3-1.5,0.9-2,1.7L-78,80.1c0.4-0.7,0.5-1.5,0.5-2.4
		c-0.2-2.2-1.9-3.9-4-4.1L-76.1-37.4z M-157.5,12c-0.1-1.8-1.3-3.3-2.9-3.9l14.6-43.8c0.5,0.1,1,0.2,1.5,0.1
		c2.3-0.2,4.1-2.1,4.2-4.4l59.6-1.8c0,0,0,0.1,0,0.1c0.2,2.2,1.9,3.9,3.9,4.1l-5.4,111c-0.1,0-0.2,0-0.3,0c-1.2,0.1-2.2,0.6-2.9,1.4
		l-73.1-59.9C-157.8,14.2-157.5,13.1-157.5,12z M-160.8,16.7c0.7-0.2,1.4-0.6,1.9-1.1l73.1,59.9c-0.6,0.8-0.9,1.9-0.8,3
		c0.1,1.3,0.7,2.4,1.6,3.1l-40.7,55.1c-0.8-0.5-1.8-0.8-2.8-0.7c-0.2,0-0.3,0-0.5,0.1L-160.8,16.7z M-160.1,21.5l15.4,57.9
		c-0.9-1.4-2.5-2.3-4.2-2.2c0,0,0,0,0,0L-160.1,21.5z M-144,81.8l13.5,50.8l-16.1-46.8C-145.1,85.1-144.1,83.6-144,81.8z
		 M-149.3,86.2c0.3,0.1,0.7,0.1,1.1,0c0.4,0,0.7-0.1,1-0.2l17.3,50.3c-1.2,0.5-2.2,1.5-2.6,2.8l-28.7-7.1L-149.3,86.2z
		 M-200.9,120.9c-0.1-0.7-0.3-1.4-0.6-2l49.4-34.4c0.6,0.7,1.4,1.3,2.3,1.5l-11.8,45.8l-39.3-9.8
		C-200.8,121.7-200.8,121.3-200.9,120.9z M-199.5,130.4l-3.3-5.4c0.8-0.6,1.4-1.4,1.7-2.3l39.3,9.7l-10,38.6
		c-0.4-0.1-0.8-0.1-1.2-0.1c-0.6,0-1.2,0.2-1.7,0.5L-199.5,130.4z M-168.1,175.2c-0.1-0.8-0.3-1.6-0.8-2.2l37.4-29.4
		c0,0,0.1,0.1,0.1,0.1l-36.8,40l-2.1-4.2C-168.9,178.6-167.9,176.9-168.1,175.2z M-175.1,179.3c0.8,0.5,1.8,0.8,2.8,0.7
		c0.5,0,1-0.2,1.4-0.3l2.2,4.4l-51.2,55.7L-175.1,179.3z M-219.1,245.6c0.2-0.6,0.3-1.2,0.3-1.9c-0.1-1.1-0.5-2-1.2-2.8l51.8-56.3
		l51.8,103.1c-0.7,0.4-1.3,1.1-1.7,1.8L-219.1,245.6z M-154.8,346.2l36.3-53c0.7,1.8,2.5,3.1,4.6,2.9c2-0.2,3.6-1.6,4-3.4l94.5,17.1
		l-138,38.5C-153.6,347.5-154.1,346.8-154.8,346.2z"/>
</g>
<g class="st1">
	<path class="st2" d="M768.7,2.2c-0.8-0.6-1.5-1.6-1.7-2.7l-84.2,12.1c0.1,1-0.2,2-0.7,2.8l53.2,38.2L768.7,2.2z"/>
	<path class="st2" d="M695.5,112.6L735,53.1l-53.2-38.2c-0.6,0.8-1.5,1.3-2.6,1.6l13.8,95.5C693.9,111.9,694.8,112.2,695.5,112.6z"
		/>
	<path class="st2" d="M727.6-63L680.9,8.4c0.6,0.4,1,1,1.3,1.6l71.9-30.5L727.6-63z"/>
	<path class="st2" d="M754.5-20l-72,30.5c0.1,0.2,0.1,0.4,0.2,0.6l83.8-12.1L754.5-20z"/>
	<path class="st2" d="M584.3,107.5c0,0.1,0,0.2,0,0.3l104.5,8c0.1-1,0.7-2,1.4-2.7l-51-62.8L583,105
		C583.7,105.7,584.1,106.5,584.3,107.5z"/>
	<path class="st2" d="M675.2,15.4L639.6,50l51.1,62.8c0.5-0.4,1.1-0.6,1.7-0.7l-13.8-95.5C677.3,16.7,676.1,16.3,675.2,15.4z"/>
	<path class="st2" d="M515.5,59l1.2,24.7l1.3,27.4c0.4-0.2,0.8-0.3,1.2-0.3c0.7-0.1,1.3,0,1.9,0.1l23.8-31.3l-26.6-21.9
		c-0.7,0.7-1.6,1.2-2.6,1.3C515.6,59,515.6,59,515.5,59z"/>
	<path class="st2" d="M674.8,15c-0.5-0.6-0.9-1.4-1-2.3c0-0.3,0-0.5,0-0.8l-66.9-6.6c-0.2,1-0.7,1.9-1.4,2.6l33.9,41.6L674.8,15z"/>
	<path class="st2" d="M599.3,8c-0.3-0.3-0.6-0.6-0.8-0.9l-79.4,45.5c0.2,0.4,0.3,0.8,0.4,1.3c0.2,1.2-0.2,2.4-0.8,3.3l26.6,21.9
		L599.3,8z"/>
	<path class="st2" d="M576.3,105.3l-30.9-25.4l-23.7,31.2c1.3,0.6,2.4,1.8,2.6,3.4l51-6.4C575.3,107,575.7,106.1,576.3,105.3z"/>
	<path class="st2" d="M575.3,108.7l-50.9,6.4c0.1,1.7-0.9,3.3-2.4,4.1l22.6,49.4l32.7-56.7c-1-0.7-1.8-1.8-2-3.1
		C575.3,108.8,575.3,108.7,575.3,108.7z"/>
	<path class="st2" d="M580.9,103.8c0.6,0.2,1.2,0.4,1.7,0.8L638.8,50L604.9,8.3c-0.6,0.4-1.2,0.7-2,0.8c-0.5,0.1-0.9,0.1-1.3,0
		l-14.4,65.7L580.9,103.8z"/>
	<path class="st2" d="M576.7,104.9c0.7-0.6,1.5-1.1,2.5-1.2c0.4-0.1,0.8-0.1,1.2,0l19.5-89.5L601,9c-0.4-0.1-0.9-0.3-1.2-0.6
		l-54.1,71.1L576.7,104.9z"/>
	<path class="st2" d="M481.7,71.5l34.3,41.4c0.4-0.6,0.8-1.1,1.4-1.4l-1-21.8L515,59c-1.6,0-3-0.9-3.8-2.2L481.7,71.5z"/>
	<path class="st2" d="M696,112.9c0.3,0.2,0.6,0.5,0.8,0.8l59.8-40.7c-0.3-0.5-0.5-1.1-0.6-1.7c-0.1-1,0.1-2,0.5-2.8l-21.1-15.2
		L696,112.9z"/>
	<path class="st2" d="M697.8,115.9c0.1,0.6,0,1.1-0.1,1.7l32.2,9.8l28.3-52.7c-0.4-0.2-0.7-0.5-1-0.9l-59.9,40.5
		C697.5,114.7,697.7,115.3,697.8,115.9z"/>
	<path class="st2" d="M750.8,129.2c0.3,0,0.5,0,0.8,0l8.5-53.9c-0.5,0-1-0.2-1.5-0.4l-28.2,52.6l16.6,5.1
		C747.5,130.9,748.9,129.5,750.8,129.2z"/>
	<path class="st2" d="M735.8,53l21.1,15.2c0.7-1,1.8-1.6,3-1.8c0.3-0.1,0.7-0.1,1,0l9.5-63.2c-0.5-0.1-0.9-0.3-1.3-0.5L735.8,53z"/>
	<path class="st2" d="M752.1,138.2c-1,0.1-2-0.1-2.9-0.5l-60.5,92.7c0.9,0.7,1.6,1.7,1.8,3c0.1,0.7,0,1.4-0.2,2l117.3,46.4
		c0.4-1,1.2-1.8,2.2-2.3l-57-141.5C752.6,138.1,752.4,138.2,752.1,138.2z"/>
	<path class="st2" d="M510.9,56.3c-0.2-0.4-0.3-0.8-0.3-1.2c-0.1-0.8,0-1.6,0.3-2.3l-73.6-37c-0.2,0.4-0.5,0.7-0.8,1L481.3,71
		L510.9,56.3z"/>
	<path class="st2" d="M422.7,179.5c0.3,0.5,0.5,1,0.5,1.6c0.1,1-0.1,2-0.5,2.8l79.1,50.2c0.3-0.4,0.7-0.8,1.1-1.1l-44.4-77.1
		L422.7,179.5z"/>
	<path class="st2" d="M422.4,179l35.9-23.6L428,102.8c-0.4,0.2-0.9,0.4-1.4,0.4c-0.3,0-0.5,0-0.7,0l-6.4,73.9
		C420.7,177.4,421.7,178,422.4,179z"/>
	<path class="st2" d="M516.2,118l-57.1,37.6l44.4,77.1c0.4-0.2,0.9-0.4,1.4-0.4c0.3,0,0.6-0.1,0.9,0L519,119.7
		C517.9,119.5,516.9,118.9,516.2,118z"/>
	<path class="st2" d="M515.9,117.5c-0.3-0.5-0.5-1-0.5-1.6c0-0.2,0-0.3,0-0.5l-84.9-15.5c-0.3,1.1-1,2-1.9,2.7l30.3,52.5
		L515.9,117.5z"/>
	<path class="st2" d="M418.9,177.2l6.4-73.9c-1.1-0.2-2.1-0.7-2.8-1.6L368,141.4c0.4,0.6,0.6,1.2,0.7,1.9c0.2,1.1-0.1,2.1-0.6,3
		l47.1,32.7c0.7-0.9,1.7-1.5,2.9-1.7C418.4,177.2,418.6,177.2,418.9,177.2z"/>
	<path class="st2" d="M515.3,114.8c0-0.5,0.2-1,0.4-1.4l-34.5-41.6l-51,25.3c0.1,0.3,0.3,0.7,0.3,1.1c0.1,0.4,0.1,0.8,0,1.2
		l52.2,9.6L515.3,114.8z"/>
	<path class="st2" d="M429.9,96.5l50.9-25.2L436,17.2c-0.6,0.4-1.3,0.7-2,0.8c-0.2,0-0.5,0-0.7,0l-6.5,76.2
		C428.1,94.5,429.2,95.3,429.9,96.5z"/>
	<path class="st2" d="M577.8,112.3C577.8,112.2,577.8,112.2,577.8,112.3l-33,57l3.6,7.9c0.3-0.1,0.6-0.2,1-0.3
		c0.7-0.1,1.4,0,2.1,0.2L577.8,112.3z"/>
	<path class="st2" d="M521.4,119.5c-0.3,0.1-0.6,0.2-1,0.3c-0.3,0-0.6,0.1-0.9,0l-13.2,112.5c0.4,0.1,0.8,0.2,1.2,0.4l36.7-63.4
		L521.4,119.5z"/>
	<path class="st2" d="M580.4,112.7c-0.7,0.1-1.4,0-2.1-0.2L552,177.3c1.3,0.6,2.3,1.9,2.5,3.4c0,0,0,0,0,0l148-10.5
		c-0.1-0.8,0.1-1.6,0.4-2.3l-119.1-57.9C583.3,111.4,582,112.4,580.4,112.7z"/>
	<path class="st2" d="M693.9,121c-2.5,0.4-4.8-1.4-5.1-3.8c0-0.2,0-0.5,0-0.7l-87.8-6.8l-16.6-1.3c0,0.4-0.1,0.8-0.2,1.1l119.1,57.9
		c0.6-1,1.6-1.7,2.7-2L694.2,121C694.1,121,694,121,693.9,121z"/>
	<path class="st2" d="M697.5,118.1c-0.5,1.3-1.5,2.3-2.8,2.7l11.8,44.6c0.9-0.1,1.9,0.1,2.6,0.5l20.4-38.1L697.5,118.1z"/>
	<path class="st2" d="M747,133.2l-16.8-5.1l-20.5,38.2c0.3,0.2,0.6,0.5,0.8,0.7l37.3-30.5c-0.4-0.6-0.8-1.3-0.9-2.1
		C746.9,134,746.9,133.6,747,133.2z"/>
	<path class="st2" d="M508,233C508.1,233,508.1,233,508,233l39-48.3c-0.7-0.7-1.3-1.6-1.4-2.7c-0.3-1.9,0.7-3.8,2.3-4.6l-3.4-7.5
		L508,233z"/>
	<path class="st3" d="M867.7-117c-2.5,0.4-4.2,2.7-3.8,5.1c0,0.2,0.1,0.4,0.1,0.6L727.7-63.9l-0.1-0.2l-0.2,0.3l-1.1,0.4l0.8,0.1
		L680.5,8.1c-0.8-0.5-1.8-0.7-2.9-0.5c-2,0.3-3.5,1.9-3.8,3.8l-66.9-6.6c0-0.3,0-0.5,0-0.8c-0.4-2.5-2.7-4.2-5.1-3.8
		c-2.5,0.4-4.2,2.7-3.8,5.1c0.1,0.5,0.2,0.9,0.4,1.3l-79.4,45.5c-0.9-1.5-2.6-2.3-4.5-2.1c-1.4,0.2-2.6,1.1-3.3,2.3l-73.6-37
		c0.3-0.7,0.4-1.6,0.3-2.4c-0.4-2.5-2.7-4.2-5.1-3.8c-2.5,0.4-4.2,2.7-3.8,5.1c0.3,2,1.9,3.5,3.8,3.8l-6.5,76.2c-0.2,0-0.5,0-0.7,0
		c-2.5,0.4-4.2,2.7-3.8,5.1c0.1,0.7,0.3,1.3,0.7,1.8l-54.6,39.7c-1-1.1-2.5-1.7-4-1.5c-2.5,0.4-4.2,2.7-3.8,5.1
		c0.4,2.5,2.7,4.2,5.1,3.8c1.2-0.2,2.2-0.8,2.9-1.7l47.1,32.7c-0.5,0.9-0.8,1.9-0.6,3c0.4,2.5,2.7,4.2,5.1,3.8
		c1.3-0.2,2.3-0.9,3-1.8l79.1,50.2c-0.5,0.8-0.7,1.8-0.5,2.8c0.4,2.5,2.7,4.2,5.1,3.8c2.5-0.4,4.2-2.7,3.8-5.1
		c-0.2-1.1-0.7-2-1.4-2.7l38.9-48.3c0.9,0.6,2.1,1,3.3,0.8c2.3-0.3,3.9-2.3,3.9-4.5l148-10.5l0-0.3c0,0,0,0,0,0
		c0.4,2.5,2.7,4.2,5.1,3.8c2.5-0.4,4.2-2.7,3.8-5.1c-0.1-0.7-0.3-1.3-0.7-1.8l37.4-30.6c0.2,0.2,0.3,0.3,0.5,0.5L688.3,230
		c-0.8-0.5-1.8-0.7-2.9-0.5c-2.5,0.4-4.2,2.7-3.8,5.1c0.4,2.5,2.7,4.2,5.1,3.8c1.6-0.2,2.8-1.2,3.5-2.5l117.3,46.4
		c-0.2,0.6-0.2,1.2-0.1,1.9c0.4,2.5,2.7,4.2,5.1,3.8c2.2-0.3,3.9-2.2,3.9-4.4l59.4-5.5c0.4,2.4,2.7,4.1,5.1,3.8
		c2.5-0.4,4.2-2.7,3.8-5.1c-0.3-1.8-1.5-3.1-3.1-3.6l11.8-44.7c0.5,0.1,0.9,0.1,1.4,0c2.5-0.4,4.2-2.7,3.8-5.1
		c-0.4-2.5-2.7-4.2-5.1-3.8c0,0,0,0-0.1,0l-15.9-59.6c2.1-0.6,3.6-2.7,3.2-5c-0.1-0.7-0.4-1.4-0.8-1.9l47.1-37.5
		c1,1.1,2.5,1.7,4,1.4c2.5-0.4,4.2-2.7,3.8-5.1c-0.4-2.5-2.7-4.2-5.1-3.8c-0.6,0.1-1.2,0.3-1.7,0.6l-31-44.6c1.2-1,1.9-2.5,1.7-4.2
		c-0.2-1.2-0.8-2.3-1.8-3l41.4-64c0.8,0.5,1.8,0.7,2.9,0.5c2.5-0.4,4.2-2.7,3.8-5.1c-0.4-2.5-2.7-4.2-5.1-3.8
		c-1.6,0.2-2.9,1.3-3.5,2.7L833.1-50.5c0.2-0.6,0.2-1.3,0.1-1.9c0-0.2-0.1-0.4-0.1-0.5l33.2-55.6c0.8,0.4,1.7,0.6,2.7,0.5
		c2.5-0.4,4.2-2.7,3.8-5.1C872.5-115.7,870.2-117.4,867.7-117z M728.2-63.1L824.3-52c0,0.3,0,0.6,0,0.9c0,0.3,0.1,0.6,0.2,0.8
		l-69.8,29.6L728.2-63.1z M854.7,94.5c-0.9-0.6-1.9-0.9-3-0.8l-22-140.9l0.1-0.2c0.4-0.1,0.7-0.2,1-0.4l58.3,99.8L854.7,94.5z
		 M855.7,95.4l35.5-31.7c0.6,0.6,1.3,1,2,1.2l-7.5,39.2l-29.1-5.3c0-0.4,0-0.8,0-1.2C856.5,96.8,856.2,96,855.7,95.4z M851.1,93.8
		c-0.6,0.1-1.2,0.4-1.6,0.7L789.1,20l37.7-67.7c0.7,0.3,1.5,0.5,2.3,0.5L851.1,93.8z M849.4,101.9l-37.1,57.6
		c-0.8-0.5-1.8-0.7-2.8-0.5c-0.4,0.1-0.8,0.2-1.2,0.4l-20.4-38.1L848,100C848.3,100.7,848.8,101.4,849.4,101.9z M825.2-49L774.6-4.6
		c-1-1-2.4-1.5-3.8-1.3c-2.3,0.3-3.9,2.3-3.9,4.5l-11.8-18.9l69.7-29.5C824.9-49.5,825-49.3,825.2-49z M826.3-48l-37.6,67.5L774.5,2
		c1.1-1,1.6-2.4,1.4-4c-0.1-0.8-0.4-1.5-0.9-2.1l50.4-44.3l0.2-0.2C825.8-48.4,826-48.2,826.3-48z M772.1,3.1c0.7-0.1,1.4-0.4,2-0.8
		l14.4,17.8l-25.9,46.6c-0.3-0.1-0.6-0.3-1-0.3L771,3.2C771.4,3.2,771.7,3.2,772.1,3.1z M760.9,66.3c-0.3,0-0.7,0-1,0
		c-1.3,0.2-2.3,0.9-3,1.8L735.8,53l33.4-50.4c0.4,0.2,0.8,0.4,1.3,0.5L760.9,66.3z M756.6,68.6c-0.5,0.8-0.7,1.8-0.5,2.8
		c0.1,0.6,0.3,1.2,0.6,1.7l-59.8,40.7c-0.2-0.3-0.5-0.6-0.8-0.8l39.4-59.5L756.6,68.6z M752.2,129.3l8.5-53.9c0.2,0,0.3,0,0.5,0
		c0.4-0.1,0.8-0.2,1.2-0.4l24.6,46l-31.4,11.1C755,130.5,753.7,129.5,752.2,129.3z M757.1,73.8c0.3,0.3,0.6,0.6,1,0.9l-28.3,52.7
		l-32.2-9.8c0.1-0.5,0.2-1.1,0.1-1.7c-0.1-0.6-0.3-1.2-0.6-1.6L757.1,73.8z M758.7,74.9c0.5,0.2,0.9,0.3,1.5,0.4l-8.5,53.9
		c-0.3,0-0.5,0-0.8,0c-1.9,0.3-3.3,1.6-3.7,3.4l-16.6-5.1L758.7,74.9z M755.9,133.1c0-0.2-0.1-0.4-0.1-0.6l31.5-11.1l20.4,38.2
		c-0.6,0.4-1.1,0.9-1.5,1.5l-50.6-25.6C755.9,134.8,756.1,133.9,755.9,133.1z M787.6,120.7l-24.6-46c0.9-0.5,1.5-1.3,1.9-2.3
		l82.9,24.8c-0.1,0.5-0.2,1.1-0.1,1.7c0,0.2,0.1,0.4,0.1,0.6L787.6,120.7z M765,71.8c0.1-0.5,0.2-1.1,0.1-1.7c-0.2-1.4-1-2.5-2-3.2
		l25.8-46.4L849,94.9c-0.5,0.5-0.9,1.1-1.2,1.7L765,71.8z M680.9,8.4L727.6-63l26.6,42.5L682.3,10C682,9.4,681.5,8.9,680.9,8.4z
		 M682.5,10.6l72-30.5l11.9,19l-83.8,12.1C682.6,10.9,682.6,10.8,682.5,10.6z M682.7,11.7L767-0.4c0.2,1.1,0.8,2,1.7,2.7l-33.4,50.4
		l-53.2-38.2C682.6,13.7,682.8,12.7,682.7,11.7z M679.2,16.5c1-0.2,1.9-0.8,2.6-1.6L735,53.1l-39.4,59.5c-0.8-0.4-1.7-0.7-2.6-0.6
		L679.2,16.5z M692.4,112.1c-0.6,0.1-1.2,0.4-1.7,0.7L639.6,50l35.6-34.6c0.9,0.8,2.1,1.3,3.4,1.2L692.4,112.1z M690.2,113.2
		c-0.8,0.7-1.3,1.6-1.4,2.7l-104.5-8c0-0.1,0-0.2,0-0.3c-0.1-1-0.6-1.9-1.3-2.5l56.1-54.6L690.2,113.2z M606.8,5.3l66.9,6.6
		c0,0.3,0,0.5,0,0.8c0.1,0.9,0.5,1.7,1,2.3l-35.6,34.6L605.4,7.9C606.1,7.3,606.6,6.3,606.8,5.3z M601.6,9.1c0.4,0.1,0.9,0.1,1.3,0
		c0.7-0.1,1.4-0.4,2-0.8L638.8,50l-56.2,54.6c-0.5-0.4-1.1-0.7-1.7-0.8l6.3-29L601.6,9.1z M601,9l-1.1,5.3l-19.5,89.5
		c-0.4,0-0.8,0-1.2,0c-1,0.1-1.8,0.6-2.5,1.2l-30.9-25.4l54.1-71.1C600.2,8.6,600.6,8.8,601,9z M577.3,111.9l-32.7,56.7L522,119.2
		c1.5-0.8,2.4-2.4,2.4-4.1l50.9-6.4c0,0.1,0,0.1,0,0.2C575.5,110.1,576.3,111.2,577.3,111.9z M515,59l1.4,30.6l1,21.8
		c-0.6,0.4-1.1,0.9-1.4,1.4l-34.3-41.4l29.4-14.6C511.9,58.2,513.4,59,515,59z M524.3,114.5c-0.3-1.5-1.3-2.8-2.6-3.4l23.7-31.2
		l30.9,25.4c-0.6,0.8-1,1.7-1,2.7L524.3,114.5z M519.5,53.9c-0.1-0.5-0.2-0.9-0.4-1.3l79.4-45.5c0.2,0.3,0.5,0.7,0.8,0.9l-54,71.1
		l-26.6-21.9C519.4,56.3,519.7,55.1,519.5,53.9z M518.3,57.7l26.6,21.9l-23.8,31.3c-0.6-0.2-1.3-0.2-1.9-0.1
		c-0.4,0.1-0.8,0.2-1.2,0.3l-1.3-27.4L515.5,59c0,0,0.1,0,0.1,0C516.7,58.9,517.6,58.4,518.3,57.7z M437.2,15.8l73.6,37
		c-0.3,0.7-0.4,1.5-0.3,2.3c0.1,0.4,0.2,0.8,0.3,1.2L481.3,71l-44.9-54.2C436.7,16.5,437,16.2,437.2,15.8z M433.2,18
		c0.2,0,0.5,0,0.7,0c0.8-0.1,1.4-0.4,2-0.8l44.8,54.1l-50.9,25.2c-0.7-1.2-1.9-2-3.2-2.2L433.2,18z M430.5,98.1
		c-0.1-0.4-0.2-0.8-0.3-1.1l51-25.3l34.5,41.6c-0.2,0.4-0.3,0.9-0.4,1.4l-32.6-6l-52.2-9.6C430.6,98.9,430.6,98.5,430.5,98.1z
		 M430.4,99.9l84.9,15.5c0,0.2,0,0.3,0,0.5c0.1,0.6,0.3,1.1,0.5,1.6L458.8,155l-30.3-52.5C429.5,101.9,430.1,101,430.4,99.9z
		 M426.7,103.3c0.5-0.1,0.9-0.2,1.4-0.4l30.3,52.5L422.4,179c-0.7-0.9-1.8-1.6-2.9-1.7l6.4-73.9
		C426.2,103.3,426.4,103.3,426.7,103.3z M415.2,178.9l-47.1-32.7c0.5-0.9,0.8-1.9,0.6-3c-0.1-0.7-0.4-1.3-0.7-1.9l54.6-39.7
		c0.7,0.8,1.7,1.4,2.8,1.6l-6.4,73.9c-0.2,0-0.5,0-0.7,0C416.9,177.4,415.9,178,415.2,178.9z M501.9,234.1l-79.1-50.2
		c0.5-0.8,0.7-1.8,0.5-2.8c-0.1-0.6-0.3-1.1-0.5-1.6l35.9-23.6L503,233C502.6,233.3,502.2,233.6,501.9,234.1z M505.8,232.2
		c-0.3,0-0.6,0-0.9,0c-0.5,0.1-0.9,0.2-1.4,0.4l-44.4-77.1l57.1-37.6c0.7,0.9,1.7,1.5,2.8,1.7L505.8,232.2z M506.3,232.3l13.2-112.5
		c0.3,0,0.6,0,0.9,0c0.3,0,0.7-0.1,1-0.3l22.8,49.8l-36.7,63.4C507.2,232.5,506.8,232.4,506.3,232.3z M545.6,182
		c0.2,1.1,0.7,2,1.4,2.7L508.1,233c0,0-0.1,0-0.1-0.1l36.5-63.1l3.4,7.5C546.3,178.3,545.3,180.1,545.6,182z M549.4,176.9
		c-0.3,0-0.7,0.1-1,0.3l-3.6-7.9l32.9-57c0,0,0,0,0,0l-26.3,64.8C550.8,176.9,550.1,176.8,549.4,176.9z M702.5,170.3l-148,10.5
		c0,0,0,0,0,0c-0.2-1.5-1.2-2.8-2.5-3.4l26.3-64.8c0.6,0.2,1.4,0.3,2.1,0.2c1.6-0.2,2.8-1.2,3.4-2.5L702.9,168
		C702.6,168.7,702.5,169.5,702.5,170.3z M703.2,167.5l-119.1-57.9c0.1-0.4,0.2-0.7,0.2-1.1l16.6,1.3l87.8,6.8c0,0.2,0,0.5,0,0.7
		c0.4,2.5,2.7,4.2,5.1,3.8c0.1,0,0.2,0,0.2,0l11.8,44.6C704.8,165.8,703.8,166.5,703.2,167.5z M709.2,166c-0.8-0.4-1.7-0.6-2.6-0.5
		l-11.8-44.6c1.3-0.4,2.3-1.4,2.8-2.7l32.1,9.8L709.2,166z M747.8,136.5L710.5,167c-0.2-0.3-0.5-0.5-0.8-0.7l20.5-38.2l16.8,5.1
		c0,0.4,0,0.8,0,1.2C747.1,135.2,747.4,135.9,747.8,136.5z M807.6,281.8l-117.3-46.4c0.2-0.6,0.3-1.3,0.2-2c-0.2-1.2-0.8-2.3-1.8-3
		l60.5-92.7c0.8,0.5,1.8,0.7,2.9,0.5c0.3,0,0.5-0.1,0.8-0.2l57,141.5C808.8,280,808.1,280.8,807.6,281.8z M811.5,279.1
		c-0.1,0-0.2,0-0.4,0c-0.3,0-0.5,0.1-0.8,0.2l-57-141.5c0.8-0.4,1.5-1,1.9-1.8l50.6,25.6c-0.3,0.7-0.4,1.6-0.3,2.4
		c0.3,2.2,2.1,3.8,4.3,3.9L811.5,279.1z M889.6,224.6c0.3,1.8,1.5,3.2,3.2,3.7L881,273c-0.5-0.1-1-0.1-1.5,0
		c-2.3,0.3-3.9,2.3-3.9,4.6l-59.3,5.5c0,0,0-0.1,0-0.1c-0.3-2.2-2.1-3.7-4.2-3.9l-1.6-111.1c0.1,0,0.2,0,0.3,0
		c1.2-0.2,2.2-0.8,2.9-1.6l76.8,55.2C889.8,222.3,889.5,223.5,889.6,224.6z M892.6,219.7c-0.7,0.3-1.3,0.7-1.8,1.3L814,165.8
		c0.5-0.9,0.8-1.9,0.6-3c-0.2-1.2-0.9-2.3-1.8-3l37.1-57.6c0.8,0.5,1.8,0.7,2.8,0.5c0.2,0,0.3-0.1,0.5-0.1L892.6,219.7z M891.6,215
		l-19-56.8c0.9,1.4,2.6,2.2,4.4,1.9c0,0,0,0,0,0L891.6,215z M871.7,155.8L855,105.9l19.1,45.7C872.6,152.4,871.7,154,871.7,155.8z
		 M876.7,151.1c-0.4,0-0.7,0-1.1,0c-0.4,0.1-0.7,0.1-1,0.3l-20.5-49.1c1.2-0.6,2.1-1.7,2.4-3l29.1,5.3L876.7,151.1z M926,113.1
		c0.1,0.7,0.4,1.4,0.8,1.9l-47.1,37.5c-0.6-0.7-1.4-1.2-2.4-1.4l8.9-46.5L926,112C925.9,112.4,925.9,112.7,926,113.1z M924,103.8
		l3.6,5.2c-0.8,0.6-1.3,1.5-1.6,2.4l-39.8-7.3l7.5-39.2c0.4,0,0.8,0.1,1.2,0c0.6-0.1,1.2-0.3,1.7-0.6L924,103.8z M889.9,61.1
		c0.1,0.8,0.4,1.5,0.9,2.1L855.3,95c0,0-0.1-0.1-0.1-0.1l34.2-42.3l2.4,4.1C890.4,57.6,889.6,59.3,889.9,61.1z M896.6,56.5
		c-0.8-0.5-1.8-0.7-2.9-0.5c-0.5,0.1-1,0.2-1.4,0.4l-2.5-4.3l47.6-58.8L896.6,56.5z M936.4-12.4c-0.2,0.6-0.2,1.3-0.1,1.9
		c0.2,1.1,0.7,2,1.4,2.7l-48.1,59.4L831.3-48c0.7-0.5,1.3-1.2,1.6-1.9L936.4-12.4z M865.8-108.8l-32.9,55.1
		c-0.8-1.8-2.7-2.9-4.8-2.6c-2,0.3-3.5,1.8-3.8,3.7l-95.4-11.1l135.3-47.1C864.6-110,865.1-109.3,865.8-108.8z"/>
</g>
<path class="st3" d="M-20.1,93c1.5,0.7,3.2,0.3,4.3-0.8l68.9,55.5c-0.1,0.2-0.2,0.3-0.3,0.5c-0.9,1.9,0,4.2,1.9,5.1
	c1.9,0.9,4.2,0,5.1-1.9c0.1-0.3,0.2-0.6,0.3-0.9l49,3.6c0,1.4,0.9,2.8,2.2,3.4c1.9,0.9,4.2,0,5.1-1.9c0.4-0.9,0.4-1.8,0.2-2.6
	l50.5-19.2c0.4,0.8,1,1.4,1.9,1.8c0.9,0.4,1.9,0.4,2.8,0.1l51.2,116.9c-0.7,0.4-1.3,1-1.6,1.8c-0.9,1.9,0,4.2,1.9,5.1
	c1.9,0.9,4.2,0,5.1-1.9c0.3-0.6,0.4-1.1,0.3-1.7l153-20.2c-0.6,1.8,0.3,3.9,2.1,4.7c1.9,0.9,4.2,0,5.1-1.9c0.1-0.2,0.1-0.4,0.2-0.5
	l55.8,10.4c-0.1,1.6,0.7,3.1,2.2,3.8c0.8,0.3,1.6,0.4,2.4,0.3l21,68.6l-1-0.2l1.2,0.8l0.1,0.4l0.2-0.2l99.2,70.3
	c-0.1,0.1-0.1,0.2-0.2,0.3c-0.9,1.9,0,4.2,1.9,5.1c1.9,0.9,4.2,0,5.1-1.9c0.9-1.9,0-4.2-1.9-5.1c-0.7-0.3-1.5-0.4-2.2-0.3
	l-13.9-52.9c0.1-0.1,0.1-0.2,0.1-0.3c0.2-0.5,0.3-1,0.3-1.5l92.6-6.1c0.2,1.2,1,2.3,2.2,2.9c1.9,0.9,4.2,0,5.1-1.9
	c0.9-1.9,0-4.2-1.9-5.1c-0.8-0.3-1.6-0.4-2.3-0.3l-18.6-61.6c0.9-0.4,1.6-1,2-2c0.6-1.2,0.4-2.6-0.3-3.7l35.6-28.9
	c0.3,0.3,0.7,0.6,1.2,0.8c1.9,0.9,4.2,0,5.1-1.9c0.9-1.9,0-4.2-1.9-5.1c-1.2-0.5-2.5-0.4-3.5,0.2l-29.4-41.4c0.4-0.4,0.8-0.8,1-1.3
	c0.8-1.7,0.2-3.7-1.4-4.7l26.8-44.5c1.9,0.8,4.2,0,5-1.9c0.9-1.9,0-4.2-1.9-5.1c-0.3-0.2-0.7-0.2-1-0.3l0.9-39
	c1.4-0.1,2.6-0.9,3.2-2.2c0.2-0.3,0.3-0.7,0.3-1.1l59.2,2.6c0.1,1.4,0.9,2.7,2.2,3.3c1.9,0.9,4.2,0,5.1-1.9c0.9-1.9,0-4.2-1.9-5.1
	c-0.1-0.1-0.3-0.1-0.4-0.2l18.5-85.4c1.6,0.2,3.2-0.7,3.9-2.2c0.9-1.9,0-4.2-1.9-5.1c-1.9-0.9-4.2,0-5.1,1.9
	c-0.2,0.5-0.4,1.1-0.3,1.7L630.2,6.7c-0.3-1.1-1-2-2.1-2.5c-1.9-0.9-4.2,0-5.1,1.9s0,4.2,1.9,5.1c0.2,0.1,0.4,0.2,0.6,0.2l-5.2,44.7
	c-1.5-0.1-3,0.8-3.7,2.2c-0.2,0.5-0.3,1-0.3,1.5L510.4,69.9c-0.2-1.2-1-2.2-2.2-2.8c-1.9-0.9-4.2,0-5.1,1.9s0,4.2,1.9,5.1
	c0.4,0.2,0.9,0.3,1.4,0.3l1.7,49.2c-1.3,0.2-2.4,1-3,2.2l0.1-0.3L387.9,82.4c0.5-1.8-0.4-3.7-2.1-4.5c-0.9-0.4-1.9-0.4-2.7-0.2
	l-20.2-48.3c0.7-0.4,1.3-1,1.7-1.8c0.9-1.9,0-4.2-1.9-5.1c-1.9-0.9-4.2,0-5.1,1.9c-0.3,0.8-0.4,1.6-0.3,2.3l-75.8,22.1
	c-0.4-0.9-1-1.7-2-2.1c-1.9-0.9-4.2,0-5.1,1.9c-0.4,0.8-0.4,1.7-0.2,2.5l-45.9,15.4c-0.4-0.8-1-1.5-1.9-1.9c-1.9-0.9-4.2,0-5.1,1.9
	c-0.1,0.2-0.2,0.4-0.2,0.6l-87.8-12.5c0-1.5-0.8-2.9-2.2-3.6c-1.1-0.5-2.3-0.4-3.3,0.1L94.9,0c0.5-0.4,0.9-0.9,1.2-1.5
	c0.9-1.9,0-4.2-1.9-5.1c-1.9-0.9-4.2,0-5.1,1.9c0,0,0,0,0,0L43.5-15l-24.1-5.5c0.1-1.5-0.8-3-2.2-3.6c-1.9-0.9-4.2,0-5.1,1.9
	c-0.7,1.5-0.3,3.2,0.8,4.3l-29.8,45.7c0,0-0.1-0.1-0.1-0.1c-1.9-0.9-4.2,0-5.1,1.9c-0.9,1.9,0,4.2,1.9,5.1c0.5,0.2,0.9,0.3,1.4,0.3
	l-0.1,50.7c-1.3,0.1-2.5,0.9-3.1,2.2C-22.9,89.8-22.1,92.1-20.1,93z M16.1-16.9c1.2-0.2,2.3-1,2.9-2.2c0.1-0.2,0.2-0.5,0.2-0.7
	l27.4,6.2l42.3,9.7c-0.1,0.4-0.1,0.7-0.1,1.1L20.2,18.4L16.1-16.9z M280.2,53.5l23.5,27.5l-36.8,35.4c-0.3-0.2-0.6-0.4-0.9-0.6
	c-0.2-0.1-0.3-0.1-0.5-0.2l12.1-61.4C278.5,54.2,279.4,54,280.2,53.5z M358.6,29c0.3,0.2,0.6,0.4,0.9,0.6c0.2,0.1,0.4,0.2,0.6,0.2
	L344.5,124c-0.9-0.1-1.8,0.2-2.5,0.7L304.6,81L358.6,29z M628.9,265l-17.5-41.6l21,33.5c-0.5,0.4-0.9,0.9-1.2,1.5
	c-0.6,1.3-0.4,2.9,0.5,3.9L628.9,265z M652,327.3c-0.2,0.5-0.3,1-0.3,1.5l-92.6,6.1c-0.1-0.6-0.4-1.2-0.8-1.8l70.4-66.9l25,59.3
	C653,325.9,652.4,326.5,652,327.3z M227.5,253.3c-0.3-0.3-0.7-0.6-1.1-0.8l22.9-58.8c1.8,0.5,3.7-0.3,4.5-2.1c0,0,0,0,0,0l36.1,12.4
	L227.5,253.3z M-16.1,33.9c0.1-0.1,0.1-0.1,0.2-0.2l39.4,38.4c-0.2,0.2-0.4,0.5-0.5,0.8c-0.4,0.8-0.4,1.7-0.2,2.4l-10.6,3.5
	L-16.1,33.9z M95.9,123.8l13.5,9.5c-0.1,0.1-0.1,0.2-0.2,0.3c-0.3,0.7-0.4,1.5-0.3,2.2L97,138.9l-66.3-61L95.9,123.8z M109.8,132.8
	L62.5,99.4l-32.7-23c0.1-0.1,0.1-0.2,0.2-0.3c0.3-0.6,0.4-1.3,0.3-2l71-13.8l10.5,71.2C111,131.7,110.3,132.2,109.8,132.8z M23,76.1
	c0.4,0.8,1,1.5,1.9,1.9c0.9,0.4,1.8,0.4,2.6,0.2l27,68.2l-42-66.9L23,76.1z M57.8,146.3c-0.9-0.4-1.8-0.4-2.6-0.2l-27-68.2
	c0.3-0.2,0.6-0.3,0.8-0.6l67.2,61.8l-36.3,9.4C59.5,147.6,58.8,146.8,57.8,146.3z M60,149.2l36.8-9.5l13,12
	c-0.2,0.2-0.3,0.5-0.4,0.7c-0.1,0.3-0.2,0.6-0.3,0.9l-49-3.6C60.1,149.6,60.1,149.4,60,149.2z M112.5,150.2c-0.8,0.1-1.6,0.4-2.2,1
	l-12.7-11.7l11.5-3c0.3,0.9,1,1.7,2,2.2c0.4,0.2,0.8,0.3,1.3,0.3L112.5,150.2z M116.1,133.6l41.6-24.9l10.6,20.2
	c-0.6,0.4-1.1,0.9-1.4,1.6c-0.2,0.5-0.3,1-0.3,1.4l-50.1,2.8C116.4,134.3,116.3,134,116.1,133.6z M222.5,71.2
	c0.2,0.2,0.5,0.4,0.8,0.5c0.6,0.3,1.2,0.4,1.8,0.3l10.7,50.8l-61.7,8.4c-0.2-0.7-0.5-1.3-1-1.8L222.5,71.2z M510.7,130.7l23.1,33.5
	c-0.5,0.4-0.8,0.8-1.1,1.4c-0.1,0.3-0.2,0.6-0.3,0.9l-14.7,0.2l-7.6-35.7C510.3,130.9,510.5,130.8,510.7,130.7z M670.4,79.9
	c-0.3,1.2-0.1,2.4,0.6,3.4l-18.8,17.1l-29.4-37.7c0.3-0.3,0.6-0.7,0.8-1.1L670.4,79.9z M622.3,63.1l29.4,37.8L593.2,154
	c-0.3-0.3-0.6-0.5-1-0.7c0,0-0.1,0-0.1-0.1l27.4-89.6C620.5,63.9,621.5,63.6,622.3,63.1z M251.9,186.5c-0.2-0.1-0.3-0.1-0.5-0.2
	L264,123c1.1,0.1,2.2-0.2,3-1l35.2,32.3l-48.9,33.2C252.9,187.1,252.5,186.7,251.9,186.5z M267.4,121.5c0.2-0.2,0.3-0.5,0.4-0.7
	c0.1-0.3,0.2-0.6,0.3-0.8l72.3,7.3c-0.1,0.3-0.1,0.7,0,1l-37.7,25.6L267.4,121.5z M340.6,129c0.1,0.5,0.4,0.9,0.7,1.3l-13,38.2
	l-1.3,3.7c-1.2-0.3-2.5,0-3.4,0.8l-20.3-18.6L340.6,129z M327.7,172.4C327.7,172.4,327.7,172.4,327.7,172.4l1.2-3.7l12.9-37.9
	c0.2,0.2,0.5,0.4,0.8,0.5c0.5,0.2,1,0.3,1.5,0.3l11.9,30.9L329.4,174C329.1,173.3,328.5,172.8,327.7,172.4z M253.7,188.1l49-33.3
	l20.4,18.7c-0.2,0.2-0.4,0.5-0.5,0.8c-0.3,0.6-0.4,1.2-0.3,1.9L254,188.9C253.9,188.6,253.8,188.4,253.7,188.1z M382.7,233.8
	l-53.6-55.5c0.2-0.3,0.4-0.5,0.5-0.9c0.4-0.9,0.4-1.9,0.1-2.8l26.6-11.4l27.1,70.1C383.2,233.5,382.9,233.6,382.7,233.8z M357,163
	l30.9-13.3c0.4,0.6,1,1.1,1.7,1.5c0.3,0.1,0.6,0.2,0.9,0.3l-3.3,49.5l-2.1,32c-0.3,0-0.6,0.1-0.9,0.1L357,163z M553.5,332.1
	l-18.9-29.6L523,284.3c0.5-0.4,0.9-0.9,1.1-1.4c0.5-1.2,0.4-2.4-0.2-3.5l15.5-10.8l14.6,63.4C553.9,332,553.7,332,553.5,332.1z
	 M487.2,170.6l38.9,47c-0.3,0.3-0.6,0.7-0.8,1.1c-0.3,0.7-0.4,1.5-0.3,2.3l-20.6,7.3l-18-57.3C486.7,170.9,487,170.7,487.2,170.6z
	 M525.2,221.7c0.4,0.9,1,1.7,2,2.1c0.2,0.1,0.5,0.2,0.7,0.2l-7.1,53.4c-0.3,0-0.6,0-1,0.1L504.7,229L525.2,221.7z M523.6,278.8
	c-0.4-0.4-0.8-0.8-1.3-1c-0.2-0.1-0.5-0.2-0.7-0.2l2.5-19.1l4.6-34.3c0.2,0,0.4,0,0.6,0l10.1,43.8L523.6,278.8z M530,223.9
	c1-0.3,1.8-1,2.3-2.1c0.2-0.4,0.3-0.8,0.3-1.3l73-0.7c0.1,0.5,0.2,1,0.5,1.5l-66.1,46L530,223.9z M605.9,217.9
	c-0.2,0.4-0.3,0.8-0.3,1.3l-73,0.7c-0.1-0.8-0.4-1.5-0.9-2.1l30.7-31.5l43.7,31.2C606,217.7,605.9,217.8,605.9,217.9z M531.2,217.3
	c-0.2-0.2-0.5-0.4-0.8-0.5c-0.1,0-0.2-0.1-0.3-0.1l5.7-45.7c1.2,0.1,2.4-0.4,3.2-1.3l22.7,16.3L531.2,217.3z M534.6,170.6
	c0.2,0.1,0.4,0.1,0.5,0.2l-5.7,45.7c-0.4-0.1-0.7-0.1-1.1,0l-10.5-49.1l14.5-0.2C532.3,168.6,533.2,170,534.6,170.6z M527.7,216.6
	c-0.3,0.1-0.6,0.2-0.8,0.4l-39.1-46.9c0.3-0.3,0.6-0.7,0.8-1.1c0.2-0.4,0.3-0.8,0.3-1.3l28.3-0.4L527.7,216.6z M394.6,149.2
	c0-0.1,0-0.1,0.1-0.2l51.2,10.6l35.3,7.3c-0.1,0.8,0.1,1.6,0.5,2.3l-56,38.8l-32.6-57.2C393.8,150.5,394.3,149.9,394.6,149.2z
	 M483.8,171.1c0.7,0.2,1.4,0.3,2,0.1l18,57.3l-52,18.4c-0.3-0.7-0.9-1.3-1.6-1.7L483.8,171.1z M452.1,247.6l51.9-18.4l15.2,48.5
	c-0.8,0.3-1.4,0.9-1.8,1.6L452,249.8C452.2,249,452.2,248.3,452.1,247.6z M519.1,284.7c1.1,0.5,2.3,0.4,3.3-0.1l8.5,13.3l22,34.5
	c-0.1,0.1-0.2,0.2-0.4,0.3l-49.4-40.2l13.8-12.3C516.5,282.1,517.4,284,519.1,284.7z M556.5,331.9c-0.6-0.2-1.2-0.2-1.8-0.2
	l-14.6-63.6l66.3-46.1c0.3,0.3,0.6,0.6,1,0.8L556.5,331.9z M606.5,217l-43.6-31.2l25.3-26c0.2,0.2,0.5,0.4,0.8,0.5
	c0.8,0.3,1.6,0.4,2.3,0.3l16.6,55.4C607.4,216.2,606.9,216.5,606.5,217z M587.7,159.3l-25.4,26.1l-22.8-16.3
	c0.1-0.1,0.1-0.2,0.2-0.4c0.3-0.6,0.4-1.3,0.3-1.9l47-8.9C587.1,158.4,587.4,158.9,587.7,159.3z M509.4,131.2l7.6,35.5l-28.1,0.4
	c-0.1-1.1-0.7-2-1.5-2.7l20-33.4C508,131.3,508.7,131.3,509.4,131.2z M506.7,130.7l-20,33.3c0,0-0.1,0-0.1,0c-1.9-0.9-4.2,0-5.1,1.9
	c-0.1,0.2-0.1,0.3-0.2,0.5l-79-16.4l-7.5-1.6c0.1-0.3,0.1-0.5,0.1-0.8l110.1-19C505.3,129.4,505.9,130.2,506.7,130.7z M387.6,149
	l-30.9,13.3l-11.8-30.7c1.2-0.2,2.2-0.9,2.8-2l39.8,17.2C387.3,147.5,387.3,148.3,387.6,149z M262.8,122.7c0.2,0.1,0.3,0.1,0.5,0.2
	l-12.6,63.3c-0.3,0-0.6,0-0.8,0l-13.2-62.8l24-3.3C260.9,121.2,261.7,122.2,262.8,122.7z M173.9,133.6c0.3-0.6,0.4-1.2,0.3-1.7
	l61.7-8.4l13.2,62.9c-0.7,0.2-1.3,0.6-1.7,1.1L173.7,134C173.8,133.9,173.9,133.8,173.9,133.6z M254,190.9c0.1-0.4,0.1-0.8,0.1-1.3
	l68.3-12.7c0.1,0.4,0.3,0.8,0.5,1.1l-32.3,25.5L254,190.9z M323.4,178.5c0.3,0.3,0.7,0.6,1.2,0.8c1.4,0.6,2.9,0.4,4-0.6l53.6,55.5
	c-0.2,0.2-0.3,0.4-0.4,0.6l-90.4-31.1L323.4,178.5z M386.7,233.3c-0.3-0.1-0.6-0.2-1-0.3l5.4-81.6c0.5,0,0.9-0.1,1.3-0.2l32.7,57.3
	L388,234.3C387.7,233.9,387.2,233.5,386.7,233.3z M426.1,208.8l56-38.9c0.3,0.3,0.6,0.6,1,0.9l-33.5,74.1c-1-0.3-2-0.3-2.8,0.1
	L426.1,208.8z M451.7,250.4l64.9,29.4l-13.9,12.4l-51.1-41.6C451.6,250.6,451.6,250.5,451.7,250.4z M552.2,333.4
	c-0.1,0.2-0.2,0.4-0.3,0.5c-0.1,0.2-0.2,0.4-0.2,0.6l-80.2-13.5l31.3-27.9L552.2,333.4z M557.9,332.6c-0.2-0.1-0.3-0.3-0.5-0.4
	l-0.1-0.2l50.8-108.9c0.8,0.3,1.7,0.3,2.4,0l17.9,42.4L557.9,332.6z M673,228.4l-35.6,28.9c-0.3-0.3-0.7-0.6-1.2-0.8
	c-0.3-0.1-0.6-0.2-0.9-0.3l3.1-33.4l33.8,3.4C672.4,227,672.6,227.8,673,228.4z M634.7,256.2c-0.6,0-1.2,0.1-1.7,0.4l-21.3-34
	c0.5-0.4,0.9-0.9,1.2-1.5c0.1-0.3,0.2-0.6,0.3-0.8l24.7,2.5L634.7,256.2z M613.2,219.5c0-1-0.4-2-1.2-2.8l28.1-35
	c0.2,0.2,0.4,0.3,0.7,0.4c0.2,0.1,0.5,0.2,0.8,0.3l-3.7,39.6L613.2,219.5z M639.6,181.3l-24.3,30.3l23.4-33.8
	C638.4,179.1,638.7,180.4,639.6,181.3z M611.3,216.2c-0.1-0.1-0.2-0.1-0.3-0.2c-0.8-0.3-1.6-0.4-2.3-0.3l-16.6-55.4
	c0.9-0.4,1.6-1,2.1-2c0.4-0.8,0.4-1.7,0.2-2.5l75.1-26.7c0.3,0.5,0.6,0.9,1.1,1.3L611.3,216.2z M594.1,155.3
	c-0.1-0.2-0.2-0.5-0.4-0.7l58.5-53.2l18.1,23.3c-0.4,0.3-0.7,0.7-0.9,1.2c-0.4,0.9-0.4,1.8-0.2,2.6L594.1,155.3z M670.8,124.3
	l-18.2-23.4l18.8-17.1c0.3,0.3,0.6,0.5,1,0.7c0.4,0.2,0.8,0.3,1.1,0.3l-0.9,38.9C672,123.7,671.4,123.9,670.8,124.3z M675.7,77.5
	c-1.9-0.8-4.1-0.1-5,1.8l-46.6-18.3l112.2,22.4l-58.4-2.6C677.8,79.4,677,78.1,675.7,77.5z M737.4,82.3c-0.1,0.2-0.1,0.3-0.2,0.5
	L624,60.2c0-0.6-0.1-1.1-0.3-1.7L669,36.4l68.6,45.7C737.5,82.1,737.4,82.2,737.4,82.3z M618.6,63.4c0.1,0,0.1,0,0.2,0.1l-27.4,89.6
	c-1.1-0.2-2.3,0.1-3.2,0.8l-22.8-23.5l52.7-67.3C618.2,63.2,618.4,63.3,618.6,63.4z M587.7,154.4c-0.2,0.3-0.4,0.6-0.6,0.9
	c-0.3,0.6-0.4,1.3-0.3,1.9l-47,8.9c-0.2-0.7-0.5-1.2-1-1.7l26.2-33.4L587.7,154.4z M538.2,163.9c-0.2-0.1-0.3-0.2-0.5-0.3
	c-0.8-0.3-1.6-0.4-2.3-0.3l-27.3-89.2c0.3-0.1,0.7-0.3,1-0.6l55.4,56.9L538.2,163.9z M507.5,74.4l27.3,89.2c-0.1,0-0.2,0.1-0.3,0.2
	l-23.1-33.5c0.4-0.3,0.7-0.8,0.9-1.2c0.9-1.9,0-4.2-1.9-5.1c-0.4-0.2-0.9-0.3-1.4-0.3l-1.7-49.2C507.3,74.4,507.4,74.4,507.5,74.4z
	 M504.9,127.9l-110,19c-0.2-1.2-1-2.2-2.2-2.7c-0.5-0.2-1.1-0.3-1.6-0.3L385,85.1c1.1-0.2,2.2-1,2.7-2.1l117.4,43.2
	C504.9,126.7,504.8,127.3,504.9,127.9z M382.6,84.9c0.5,0.2,1.1,0.3,1.6,0.3l6,57.4l-13-52.6l4.7-5.5
	C382.2,84.6,382.4,84.8,382.6,84.9z M389.9,144c-1,0.3-1.8,1-2.2,2c0,0,0,0,0,0l-39.8-17.1c0.4-1.3,0-2.8-0.9-3.7l29.7-34.6
	L389.9,144z M346.4,124.7c-0.2-0.1-0.4-0.3-0.6-0.4c-0.2-0.1-0.4-0.2-0.6-0.2l15.6-94.3c0.3,0,0.6,0,0.8,0l14.8,59.9L346.4,124.7z
	 M341.5,125.2c-0.3,0.3-0.6,0.7-0.7,1.1c0,0.1-0.1,0.2-0.1,0.3l-72.4-7.3c0-0.9-0.3-1.7-0.8-2.4l36.7-35.4L341.5,125.2z
	 M261.8,116.4c-0.4,0.3-0.7,0.7-0.9,1.2c-0.3,0.6-0.4,1.2-0.3,1.7l-24,3.3l-10.7-50.8c0.4-0.1,0.7-0.2,1-0.4L261.8,116.4z M222,70.7
	l-49.4,58.3c-0.2-0.1-0.4-0.3-0.6-0.4c-1-0.5-2.1-0.4-3,0l-10.6-20.2l63.4-38C221.8,70.4,221.9,70.5,222,70.7z M157.4,108l-41.6,25
	c-0.4-0.5-0.9-0.9-1.5-1.2c-0.1-0.1-0.3-0.1-0.4-0.2l12.3-58.5l3.1-14.7c0.7,0.1,1.3,0,1.9-0.3L157.4,108z M128,58.1
	c0.2,0.1,0.3,0.1,0.5,0.2l-15.4,73.2c-0.2,0-0.4,0-0.6,0L102,60.2l23.9-4.6C126.2,56.7,127,57.6,128,58.1z M101.2,59.7L30.1,73.5
	c-0.2-0.6-0.5-1.2-0.9-1.6L90-0.2C90.3,0,90.6,0.3,91,0.5c0.5,0.2,1,0.3,1.5,0.3L101.2,59.7z M88.9-2.1c0.1,0.5,0.3,0.9,0.6,1.3
	L28.6,71.4c-0.2-0.1-0.4-0.2-0.6-0.3c-0.5-0.2-1.1-0.3-1.7-0.3l-6-51.6L88.9-2.1z M25.7,70.8c-0.6,0.1-1.2,0.4-1.7,0.8l-39.4-38.4
	c0.1-0.2,0.2-0.3,0.3-0.5c0.4-0.9,0.4-1.8,0.2-2.7l34.7-10.7L25.7,70.8z M-16.6,34.4l28.1,44.8L-15.1,88c-0.4-0.8-1-1.5-1.9-1.9
	c-0.4-0.2-0.8-0.3-1.2-0.3l0.1-50.8C-17.6,34.8-17.1,34.7-16.6,34.4z M-15.4,91.6c0.1-0.2,0.2-0.3,0.3-0.5c0.4-0.8,0.4-1.7,0.2-2.4
	l26.7-8.9l42.1,67c-0.1,0.1-0.3,0.2-0.4,0.4L-15.4,91.6z M116.3,152.3c-0.4-0.8-1-1.4-1.9-1.8c-0.4-0.2-0.8-0.3-1.3-0.3l-0.1-11.1
	c1.3-0.1,2.5-0.9,3.1-2.2c0.2-0.5,0.3-1,0.3-1.4l50.1-2.8c0,0.2,0.1,0.3,0.1,0.5L116.3,152.3z M172.3,135.4c0.4-0.2,0.7-0.5,1-0.8
	L247,188c-0.1,0.1-0.1,0.2-0.2,0.4c-0.8,1.9-0.1,4.1,1.8,5l-22.9,58.8c-0.8-0.2-1.5-0.2-2.3,0L172.3,135.4z M228.4,255
	c-0.1-0.4-0.3-0.9-0.5-1.2l62.8-49.6l89.3,30.8L228.4,255z M388.9,237.1c0.1-0.8-0.1-1.6-0.5-2.2l37.1-25.7l20.6,36.2
	c-0.5,0.4-1,0.9-1.3,1.6c-0.1,0.2-0.1,0.4-0.2,0.5L388.9,237.1z M449.8,252.1c0.5-0.2,0.9-0.5,1.3-0.9l51,41.5l-31.3,28L449.8,252.1
	z M571.9,390.4c-0.6,0.2-1.2,0.6-1.6,1.1l-98.2-69.6l79.4,13.3c-0.1,1.6,0.7,3.1,2.2,3.8c1.5,0.7,3.3,0.3,4.4-0.9L571.9,390.4z
	 M653.2,322.6l-24-56.9l3-2.8c0.3,0.2,0.6,0.4,0.9,0.6c0.8,0.3,1.6,0.4,2.3,0.3L653.2,322.6z M673.7,223.4c-0.4,0.4-0.8,0.8-1,1.3
	c-0.1,0.3-0.2,0.6-0.3,0.8l-33.8-3.4l3.7-39.6c0.7,0,1.4-0.2,2-0.5L673.7,223.4z M643.9,175.2c-1.2-0.5-2.6-0.4-3.7,0.3l26.7-38.5
	L643.9,175.2z M741.3,80.1c-1.3-0.2-2.6,0.4-3.4,1.4L669.7,36l88-43c0.4,0.6,1,1.2,1.7,1.5c0.1,0.1,0.3,0.1,0.4,0.2L741.3,80.1z
	 M757.2-8.2c0,0.2,0.1,0.4,0.2,0.5L669,35.6L629.9,9.5c0-0.1,0.1-0.1,0.1-0.2c0.3-0.6,0.4-1.3,0.3-1.9L757.2-8.2z M626.2,11.6
	c1.3,0.1,2.5-0.4,3.3-1.4l38.8,25.8l-44.9,22c-0.4-0.6-0.9-1.1-1.7-1.4c-0.2-0.1-0.5-0.2-0.7-0.2L626.2,11.6z M616.4,60.5
	c0.1,0.8,0.5,1.6,1.2,2.2l-52.6,67.2l-55.3-56.8c0.2-0.3,0.4-0.6,0.6-0.9c0.2-0.5,0.3-1.1,0.3-1.6L616.4,60.5z M380.7,79.8
	c-0.7,1.5-0.3,3.1,0.7,4.2l-4.4,5.1l-14.5-58.7L382.4,78C381.7,78.4,381.1,79,380.7,79.8z M357.6,27.5c0.1,0.4,0.3,0.7,0.6,1l-54,52
	L280.7,53c0.3-0.3,0.6-0.7,0.7-1.1c0.3-0.8,0.4-1.6,0.3-2.3L357.6,27.5z M274.5,51.9c0.4,0.8,1,1.5,1.9,1.9c0.2,0.1,0.3,0.1,0.5,0.2
	l-12.1,61.4c-0.9-0.1-1.7,0.1-2.4,0.6L227.4,71c0.4-0.3,0.7-0.8,1-1.3c0.4-0.8,0.4-1.7,0.2-2.5L274.5,51.9z M221.1,67.9
	c0,0.6,0.1,1.2,0.3,1.7l-63.4,38l-26.3-49.9c0.6-0.4,1-0.9,1.3-1.6c0.1-0.3,0.2-0.5,0.3-0.8L221.1,67.9z M127.3,51.6
	c-0.5,0.4-0.9,0.9-1.2,1.5c-0.3,0.6-0.4,1.3-0.3,1.9l-23.9,4.6L93.2,0.8c0.4-0.1,0.8-0.2,1.1-0.4L127.3,51.6z M13.4-17.5
	c0.2,0.1,0.4,0.2,0.6,0.3c0.5,0.2,1,0.3,1.5,0.3l4.1,35.4l-34.8,10.8c-0.3-0.5-0.6-0.9-1.1-1.3L13.4-17.5z"/>
</svg>
