<svg id="Layer_1" data-name="Layer 1" xmlns="http://www.w3.org/2000/svg" xmlns:xlink="http://www.w3.org/1999/xlink" viewBox="0 0 1920 300"><defs><style>.cls-1{fill:url(#linear-gradient);}.cls-2{opacity:0.3;}.cls-3{fill:none;}.cls-4{fill:#fff;}</style><linearGradient id="linear-gradient" x1="31.01" y1="-649.42" x2="1465.42" y2="784.99" gradientUnits="userSpaceOnUse"><stop offset="0" stop-color="#ebebeb"/><stop offset="1" stop-color="#bdbdbd"/></linearGradient></defs><title>Cover</title><rect class="cls-1" x="-431.11" y="-187.3" width="2358.65" height="510.17"/><g class="cls-2"><path class="cls-3" d="M7.45,110.23c0-.22,0-.44,0-.66L-318.91,80.23a9.61,9.61,0,0,1-4.95,5.19l147.72,132.21,187-102.19A7.88,7.88,0,0,1,7.45,110.23Z"/><path class="cls-3" d="M213.59,216.1l1.27-49.53,1.41-55.08a21.84,21.84,0,0,1-3.82.54,21.53,21.53,0,0,1-6-.53l-81,59.74,79.26,47.23a18.78,18.78,0,0,1,8.47-2.36Z"/><path class="cls-3" d="M-59.48,307.65a10.81,10.81,0,0,1,2.35,1.94L201,228.5a6.54,6.54,0,0,1-.94-2.59c-.31-2.49,1-4.82,3.32-6.59l-79.18-47.19Z"/><path class="cls-3" d="M32.16,115.65l91.92,54.79L204.66,111c-4.08-1.38-7-4-7.52-7.12L35.86,110.3A8.06,8.06,0,0,1,32.16,115.65Z"/><path class="cls-3" d="M35.9,109.11l161.16-6.41c.15-3.51,3.47-6.58,8.31-8L144.3-7.08l-114,109.36c3.1,1.51,5.23,3.82,5.57,6.49C35.89,108.89,35.89,109,35.9,109.11Z"/><path class="cls-3" d="M17.27,118.16a17.34,17.34,0,0,1-5.1-1.88L-175.07,218.6-77,306.39a20.12,20.12,0,0,1,6.36-1.34,22.79,22.79,0,0,1,4.16.18L-8.33,175.37Z"/><path class="cls-3" d="M30.82,116.47a18.92,18.92,0,0,1-8,2.1,21,21,0,0,1-3.74-.13L-60,295.16l-4.65,10.4a17.54,17.54,0,0,1,3.8,1.32L122.87,171.33Z"/><path class="cls-3" d="M322.22,195.45l-99.34-87.18a14.26,14.26,0,0,1-4.74,2.68L217,154.66l-1.57,61.46c4.94.25,9.27,2.12,11.5,4.84Z"/><path class="cls-3" d="M227.68,222.05a6.43,6.43,0,0,1,.84,2.41,6.34,6.34,0,0,1-1.36,4.65l223.66,83.47a12.49,12.49,0,0,1,2.7-1.9L323.34,196.43Z"/><path class="cls-3" d="M528.79-13.41a6.78,6.78,0,0,1-1.41-3.26,6.73,6.73,0,0,1,2.18-5.59L291.27-132.82a14.52,14.52,0,0,1-3.83,2.06L411.59,29.3Z"/><path class="cls-3" d="M529.7-12.38,412.41,30.36,497,139.42a21.07,21.07,0,0,1,4.34-.67,23,23,0,0,1,2.35,0L538.56-8.51A16.09,16.09,0,0,1,529.7-12.38Z"/><path class="cls-3" d="M223.21,98,410,29.88,285.79-130.23a21.07,21.07,0,0,1-4.34.67,21.41,21.41,0,0,1-2.78,0L214.77,94.14A15.72,15.72,0,0,1,223.21,98Z"/><path class="cls-3" d="M224.12,99a6.82,6.82,0,0,1,1.41,3.26,7.47,7.47,0,0,1,0,.94l263.34,41.88a11.43,11.43,0,0,1,6.44-5.1l-84.55-109Z"/><path class="cls-3" d="M540.39-8.34,505.53,138.93a16.37,16.37,0,0,1,8.46,3.53l179.12-72.6A7.1,7.1,0,0,1,691.17,66a6.87,6.87,0,0,1,2.48-5.9L552.18-11.31a18,18,0,0,1-9.44,3A23,23,0,0,1,540.39-8.34Z"/><path class="cls-3" d="M225.39,104.36a7,7,0,0,1-1.46,2.82L324,195l165-44.19a6.29,6.29,0,0,1-.74-2.24,5.8,5.8,0,0,1,.19-2.35l-162-25.77Z"/><path class="cls-3" d="M489.73,151.88,325.09,196,455,310a20.15,20.15,0,0,1,6.48-1.38,22.6,22.6,0,0,1,2.33,0l35.65-151.9C495.23,156.13,491.65,154.33,489.73,151.88Z"/><path class="cls-3" d="M28.68,101.58l.1,0,114.71-110-9.75-16.26a21.41,21.41,0,0,1-3.08.39,21.64,21.64,0,0,1-6.48-.64Z"/><path class="cls-3" d="M207.09,94.27a21.43,21.43,0,0,1,3.08-.38,23.33,23.33,0,0,1,2.78,0l63.9-223.73a19.5,19.5,0,0,1-3.65-.93L145.56-8.29Z"/><path class="cls-3" d="M20.53,100.43a21.7,21.7,0,0,1,6.48.64l95.5-126.52c-4-1.43-6.81-4.07-7.21-7.19v-.07l-466.52,2.23A6.63,6.63,0,0,1-352.94-26l362.17,131C11.47,102.5,15.61,100.68,20.53,100.43Z"/><path class="cls-3" d="M-334,69.3c7.85-.4,14.73,3.34,15.36,8.35a5.55,5.55,0,0,1,0,1.41l274.36,24.67,51.82,4.66a6.65,6.65,0,0,1,.93-2.27L-353.93-25a16.58,16.58,0,0,1-9,3.61l28.23,90.74Z"/><path class="cls-4" d="M-926.76,524.15c7.85-.4,13.7-4.79,13.07-9.8a6.3,6.3,0,0,0-.27-1.14l437.24-77.81.33.4.68-.58,3.58-.63-2.5-.29,160.55-137.14a20.64,20.64,0,0,0,8.91,1.45c6.35-.32,11.4-3.26,12.75-7l208.76,21.67a5.71,5.71,0,0,0,0,1.6c.63,5,7.5,8.75,15.35,8.34s13.71-4.79,13.08-9.8a6.75,6.75,0,0,0-1-2.75l258.12-81.07c2.62,3,7.86,5,13.63,4.69,4.58-.24,8.47-1.84,10.8-4.12L449.89,313.6a6.37,6.37,0,0,0-1.47,4.8c.63,5,7.5,8.74,15.35,8.34s13.7-4.79,13.07-9.8c-.51-4.09-5.2-7.34-11.19-8.16l35.65-151.9a22.6,22.6,0,0,0,2.33,0c7.85-.4,13.7-4.79,13.07-9.8a6.85,6.85,0,0,0-1.71-3.64L694.15,70.84c2.85,2.32,7.42,3.73,12.38,3.47,7.85-.4,13.7-4.79,13.07-9.8s-7.51-8.74-15.35-8.34a18,18,0,0,0-9.44,3L553.33-12.23a6.87,6.87,0,0,0,2.48-5.9c-.63-5-7.5-8.74-15.35-8.34a17.72,17.72,0,0,0-9.82,3.26L292.35-133.77a6.69,6.69,0,0,0,2.17-5.59c-.63-5-7.5-8.74-15.35-8.34s-13.7,4.79-13.07,9.8a8.13,8.13,0,0,0,3.93,5.57L138.43-40.47a20.05,20.05,0,0,0-10.05-2c-7.19.36-12.69,4.08-13.08,8.55l-466.55,2.23v.6h0c-.63-5-7.5-8.74-15.35-8.34s-13.71,4.79-13.08,9.8a7.06,7.06,0,0,0,1.81,3.74l-123.37,56.5a13.79,13.79,0,0,0-1.53-1l208.15-177.94a20.77,20.77,0,0,0,8.9,1.45c7.85-.41,13.71-4.79,13.08-9.8s-7.51-8.75-15.36-8.35c-4.95.26-9.1,2.09-11.33,4.67L-658.22-268.16a6.2,6.2,0,0,0,.8-3.8c-.63-5-7.51-8.75-15.36-8.35-7.09.37-12.53,4-13.06,8.38l-187.44,3.52c-.73-4.95-7.55-8.61-15.33-8.22s-13.7,4.79-13.07,9.8c.44,3.55,4,6.45,8.85,7.7l-45.85,88a22.49,22.49,0,0,0-4.37-.2c-7.85.4-13.71,4.78-13.08,9.8s7.51,8.74,15.36,8.34l.22,0,38,121.31c-6.83,1-11.68,5-11.11,9.6a7.12,7.12,0,0,0,2,4L-1067,50.76c-2.86-2.28-7.38-3.64-12.29-3.39-7.85.4-13.7,4.79-13.07,9.8s7.5,8.74,15.35,8.34a20.71,20.71,0,0,0,5.43-1l88.35,93.29c-4,1.79-6.49,4.85-6.07,8.19.32,2.51,2.21,4.71,5,6.22l-142.76,123a20.59,20.59,0,0,0-8.86-1.43c-7.85.4-13.7,4.79-13.07,9.8s7.5,8.74,15.35,8.34c5.1-.26,9.34-2.2,11.52-4.9L-805,395.28a6.07,6.07,0,0,0-.8,3.81,5.21,5.21,0,0,0,.25,1.09L-920.62,507.26A20.9,20.9,0,0,0-929,506c-7.85.4-13.71,4.79-13.08,9.8S-934.61,524.55-926.76,524.15ZM-478,433.91l-299.4-34.51a5.77,5.77,0,0,0,0-1.76,6.19,6.19,0,0,0-.48-1.73L-553,345.49ZM-844,102a19.87,19.87,0,0,0,9.33,2l41.1,285-.39.37a19.81,19.81,0,0,0-3.19.59L-960.27,182.72Zm-2.8-1.93L-964.45,159.2a16.37,16.37,0,0,0-6.15-2.58l31.34-77.57L-849,93.35a6,6,0,0,0-.2,2.34A7.35,7.35,0,0,0-846.76,100.11Zm14,3.84a19.59,19.59,0,0,0,5.26-1.24L-652.8,259.58l-131.64,130.9a20.6,20.6,0,0,0-7.2-1.21Zm7-15.94L-697.93-22.65a20.75,20.75,0,0,0,8.83,1.42,21,21,0,0,0,3.92-.57l56.39,78.87-192.8,34.86A10.3,10.3,0,0,0-825.82,88Zm46.18,305.35,167.51-82.68a18.94,18.94,0,0,0,11.82,3.05c7.19-.37,12.68-4.08,13.08-8.55l33.32,39.26L-778.44,394.8A8.49,8.49,0,0,0-779.64,393.36Zm-3.27-2.22,131.26-130.53,41.2,37c-3.51,1.83-5.61,4.69-5.22,7.79a7.36,7.36,0,0,0,2.4,4.36L-780.1,392.1l-.67.33A13.2,13.2,0,0,0-782.91,391.14Zm180.32-95.55a20.27,20.27,0,0,0-6.35,1.33l-41.63-37.38L-560,169.48a21.5,21.5,0,0,0,2.92.77l-42.29,125.41A21.5,21.5,0,0,0-602.59,295.59Zm47.4-125.08a23.15,23.15,0,0,0,3.24.08,17.83,17.83,0,0,0,9.83-3.27l63.32,33-114.81,96.73a18.84,18.84,0,0,0-3.94-1.16Zm14.15-4.15a6.71,6.71,0,0,0,2.16-5.57,6.86,6.86,0,0,0-1.5-3.39l195.74-73.9a12.69,12.69,0,0,0,2.45,1.76L-477.68,199.4Zm25.8-120.92-37.48,107c-.5,0-1,0-1.52,0a21.15,21.15,0,0,0-3.92.57l-68.05-95.18,100.76-18.22C-523.82,42.54-519.95,44.74-515.24,45.44ZM-541.76,156a13.94,13.94,0,0,0-3-1.89L-445.59,52l99.08,23.7a6,6,0,0,0-.57,3.36,6.73,6.73,0,0,0,1.48,3.36Zm-4.62-2.51a20.3,20.3,0,0,0-4.49-1l37.46-106.91a23.63,23.63,0,0,0,2.53,0c5.91-.31,10.69-2.87,12.42-6.26l51.11,12.22ZM-526.24,37.3a7,7,0,0,0,.29,1.18L-627,56.74l-56.5-79a13.94,13.94,0,0,0,5-2.91l153.71,57.68A6.45,6.45,0,0,0-526.24,37.3ZM-628,58.16l68.17,95.34a12.53,12.53,0,0,0-6.28,4.31L-821.36,97.56a6,6,0,0,0,.56-3.32,6.13,6.13,0,0,0-.28-1.18Zm61.26,100.76a6,6,0,0,0-.56,3.32c.34,2.74,2.55,5.08,5.76,6.59l-90.18,89.68L-826,102a10.94,10.94,0,0,0,4-3.35Zm251.18,137.54L-476.14,433.62l-75.11-88.52,231.82-52A10.83,10.83,0,0,0-315.57,296.46ZM-320,292l-232.11,52.06-33.6-39.6,265.34-13.59A6.49,6.49,0,0,0-320,292Zm-.52-2.31-266.8,13.67c-.51-2.24-2.26-4.18-4.77-5.57l114.77-96.69,159.45,83.16A7.1,7.1,0,0,0-320.56,289.68Zm12.19-9.13a17.74,17.74,0,0,0-8.37,2.79l-159.51-83.19L-340.72,86a20.44,20.44,0,0,0,8.07,1.5ZM-330.81,87.37a19.54,19.54,0,0,0,5.44-1.26L-177.55,218.4l-118.56,64.79a19,19,0,0,0-10.42-2.74Zm6.95-2a9.61,9.61,0,0,0,4.95-5.19L7.42,109.57c0,.22,0,.44,0,.66a7.88,7.88,0,0,0,3.43,5.21l-187,102.19ZM-83.37,312.08l-208.76-21.66a5.78,5.78,0,0,0,0-1.61,7.57,7.57,0,0,0-2.81-4.72l118.43-64.72,98,87.7A9.72,9.72,0,0,0-83.37,312.08Zm16.91-6.85a22.79,22.79,0,0,0-4.16-.18A20.12,20.12,0,0,0-77,306.39l-98.09-87.79L12.17,116.28a17.34,17.34,0,0,0,5.1,1.88l-25.6,57.21Zm1.78.33,4.65-10.4,79.1-176.72a21,21,0,0,0,3.74.13,18.92,18.92,0,0,0,8-2.1l92.05,54.86L-60.88,306.88A17.54,17.54,0,0,0-64.68,305.56Zm95-203.28L144.3-7.08,205.37,94.7c-4.84,1.42-8.16,4.49-8.31,8L35.9,109.11c0-.11,0-.22,0-.34C35.54,106.1,33.41,103.79,30.31,102.28ZM215.44,216.12,217,154.66,218.14,111a14.26,14.26,0,0,0,4.74-2.68l99.34,87.18L226.94,221C224.71,218.24,220.38,216.37,215.44,216.12Zm-18.3-112.24c.5,3.13,3.44,5.74,7.52,7.12l-80.58,59.44L32.16,115.65a8.06,8.06,0,0,0,3.7-5.35Zm3,122a6.54,6.54,0,0,0,.94,2.59L-57.13,309.59a10.81,10.81,0,0,0-2.35-1.94L124.23,172.13l79.18,47.19C201.07,221.09,199.78,223.42,200.09,225.91Zm4.61-7.44-79.26-47.23,81-59.74a21.53,21.53,0,0,0,6,.53,21.84,21.84,0,0,0,3.82-.54l-1.41,55.08-1.27,49.53h-.42A18.78,18.78,0,0,0,204.7,218.47Zm246.12,94.11L227.16,229.11a6.34,6.34,0,0,0,1.36-4.65,6.43,6.43,0,0,0-.84-2.41l95.66-25.62L453.52,310.68A12.49,12.49,0,0,0,450.82,312.58Zm13-4a22.6,22.6,0,0,0-2.33,0A20.15,20.15,0,0,0,455,310L325.09,196l164.64-44.08c1.92,2.45,5.5,4.25,9.74,4.83Zm24.46-160.06a6.29,6.29,0,0,0,.74,2.24L324,195l-100-87.8a7,7,0,0,0,1.46-2.82l101.06,16.07,162,25.77A5.8,5.8,0,0,0,488.28,148.55Zm.63-3.5L225.57,103.17a7.47,7.47,0,0,0,0-.94A6.82,6.82,0,0,0,224.12,99l186.68-68,84.55,109A11.43,11.43,0,0,0,488.91,145.05Zm12.44-6.3a21.07,21.07,0,0,0-4.34.67L412.41,30.36,529.7-12.38a16.09,16.09,0,0,0,8.86,3.87L503.7,138.76A23,23,0,0,0,501.35,138.75ZM552.18-11.31,693.65,60.07a6.87,6.87,0,0,0-2.48,5.9,7.1,7.1,0,0,0,1.94,3.89L514,142.46a16.37,16.37,0,0,0-8.46-3.53L540.39-8.34a23,23,0,0,0,2.35,0A18,18,0,0,0,552.18-11.31ZM291.27-132.82,529.56-22.26a6.73,6.73,0,0,0-2.18,5.59,6.78,6.78,0,0,0,1.41,3.26L411.59,29.3,287.44-130.76A14.52,14.52,0,0,0,291.27-132.82Zm-12.6,3.23a21.41,21.41,0,0,0,2.78,0,21.07,21.07,0,0,0,4.34-.67L410,29.88,223.21,98a15.72,15.72,0,0,0-8.44-3.81Zm-1.82-.22L213,93.92a23.33,23.33,0,0,0-2.78,0,21.43,21.43,0,0,0-3.08.38L145.56-8.29,273.2-130.74A19.5,19.5,0,0,0,276.85-129.81ZM143.73-34.1a8.14,8.14,0,0,0-3.93-5.58l131.6-91.86.27.14L144.75-9.64l-9.29-15.47C140.75-26.66,144.22-30.19,143.73-34.1Zm-13.07,9.8a21.41,21.41,0,0,0,3.08-.39l9.75,16.26L28.78,101.62l-.1,0,95.5-126.52A21.64,21.64,0,0,0,130.66-24.3Zm-481.88-6.18L115.3-32.71v.07c.4,3.12,3.23,5.76,7.21,7.19L27,101.07a21.7,21.7,0,0,0-6.48-.64c-4.92.25-9.06,2.07-11.3,4.62L-352.94-26A6.63,6.63,0,0,0-351.22-30.48ZM-353.93-25,8.44,106.12a6.65,6.65,0,0,0-.93,2.27l-51.82-4.66L-318.67,79.06a5.55,5.55,0,0,0,0-1.41c-.63-5-7.51-8.75-15.36-8.35l-.72.06L-363-21.38A16.58,16.58,0,0,0-353.93-25ZM-373-22.63a20.66,20.66,0,0,0,8.21,1.37l28.26,90.85c-4.21.71-7.59,2.6-9.33,5L-444.6,51Zm-127.11,54.2,123.26-56.45a12.38,12.38,0,0,0,2.34,1.56l-71.84,73.91L-498,38.23a5.79,5.79,0,0,0,.21-2.38A7.21,7.21,0,0,0-500.12,31.57ZM-659-267.08l358.85,107.83a6.13,6.13,0,0,0-1,4.06c.31,2.5,2.19,4.69,5,6.2L-504.26,29a20.62,20.62,0,0,0-8.9-1.45,21.1,21.1,0,0,0-2.45.27L-666.3-262.79A13.84,13.84,0,0,0-659-267.08Zm-12.68,4.94c.38,0,.76,0,1.14,0a23.64,23.64,0,0,0,2.44-.27L-517.37,28.14a14.73,14.73,0,0,0-6.44,3.32L-677.52-26.22A6.37,6.37,0,0,0-676-31c-.55-4.42-6-7.84-12.6-8.32ZM-927.7-163c-.46-3.63-4.2-6.58-9.21-7.79l45.83-88a22.45,22.45,0,0,0,4.75.28c7.3-.38,12.86-4.19,13.1-8.75l187.37-3.52c0,.08,0,.16,0,.24.55,4.36,5.83,7.76,12.36,8.3l-17,222.82h-.91a18.22,18.22,0,0,0-9.27,2.87l-230-120.22C-928.54-158.46-927.41-160.66-927.7-163Zm-10.16,9.45a17,17,0,0,0,6-2.29l230,120.24a6.93,6.93,0,0,0-2.63,6c.32,2.52,2.22,4.72,5,6.23L-827.32,87.32a20.78,20.78,0,0,0-8.83-1.43c-.56,0-1.1.09-1.63.15Zm2.12,9.67,48.51,116.12c-2.71-2.84-7.77-4.64-13.32-4.35h-.14ZM-885.16-22.8l42.58,102-50.74-94C-888.55-16.26-885.3-19.31-885.16-22.8Zm-16.48,8.74a22.11,22.11,0,0,0,3.37.09,22.09,22.09,0,0,0,3.23-.41l54.52,101c-3.86,1-6.81,3.1-8.08,5.63l-90.2-14.3Zm-162.25,69.77a7.12,7.12,0,0,0-2-4l155.35-69.1a16.33,16.33,0,0,0,7.12,3l-37.15,91.95-123.5-19.58A5.75,5.75,0,0,0-1063.89,55.71Zm4.21,19.05L-1070,63.9a10.87,10.87,0,0,0,5.44-4.7L-941,78.77l-31.34,77.57a21.71,21.71,0,0,0-3.8-.14,20.86,20.86,0,0,0-5.43,1Zm98.85,89.78a7.38,7.38,0,0,0-2.47-4.42L-845.61,101l.29.21L-961.16,181.6l-6.68-8.49C-963.27,171.4-960.38,168.14-960.83,164.54Zm-21.93,8.37a20.57,20.57,0,0,0,8.85,1.43,21.06,21.06,0,0,0,4.42-.69l7,8.88-161.15,111.78Zm-138.58,133a6.05,6.05,0,0,0,.81-3.82,8.1,8.1,0,0,0-3.9-5.55l162.82-112.94,162.85,206.87a12.66,12.66,0,0,0-5.45,3.68Zm202.24,202,114.25-106.29c2.22,3.67,8,6.13,14.44,5.8,6.27-.33,11.25-3.19,12.69-6.88l297.32,34.27-434.06,77.24A10.59,10.59,0,0,0-919.1,507.93Z"/></g><g class="cls-2"><path class="cls-3" d="M1755.15,39l124-119.41L1711.71-157a16.78,16.78,0,0,1-8.07,3.13L1747,37.83A21.08,21.08,0,0,1,1755.15,39Z"/><path class="cls-3" d="M1405.27,28.8a5,5,0,0,1,.1.66L1734,45.61a8.78,8.78,0,0,1,4.42-5.39l-160.49-126L1401.34,23.74A8.48,8.48,0,0,1,1405.27,28.8Z"/><path class="cls-3" d="M1691.14-156,1579.22-86.6,1739.81,39.48a18.8,18.8,0,0,1,5.31-1.48l-43.31-191.72A19.76,19.76,0,0,1,1691.14-156Z"/><path class="cls-3" d="M1189.09-68.56l3.62,49.48,4,55a19.74,19.74,0,0,1,3.76-.7,21.76,21.76,0,0,1,6.07.28l74.92-62.88-83.77-43.94a18,18,0,0,1-8.22,2.69C1189.37-68.57,1189.23-68.57,1189.09-68.56Z"/><path class="cls-3" d="M1380.09,24.39l-97.16-51L1208.39,36c4.21,1.22,7.4,3.7,8.21,6.81l160.32-12.9A7.47,7.47,0,0,1,1380.09,24.39Z"/><path class="cls-3" d="M1377,31.06,1216.79,44c.19,3.51-2.81,6.71-7.5,8.32l71,99.12,103-113.73c-3.25-1.38-5.6-3.6-6.2-6.26C1377,31.29,1377,31.18,1377,31.06Z"/><path class="cls-3" d="M1394.69,21.28A18.61,18.61,0,0,1,1400,23L1576.72-86.7l-106.57-83.67a19.31,19.31,0,0,1-6.22,1.6,22.22,22.22,0,0,1-4.16,0L1414.59-36.84Z"/><path class="cls-3" d="M1381.34,23.51a18.39,18.39,0,0,1,7.79-2.42,22.25,22.25,0,0,1,3.74,0l61.48-179.56L1458-169a19.11,19.11,0,0,1-3.93-1.16l-170,142.67Z"/><path class="cls-3" d="M1082.71-43.57l107.76,83a13,13,0,0,1,4.47-2.86l-3.2-43.67-4.5-61.4c-5,0-9.46-1.74-12-4.37Z"/><path class="cls-3" d="M1756.69,39.65a13.59,13.59,0,0,1,2.62,1.65l188-81.63a7.21,7.21,0,0,1-1.83-3.32,6.33,6.33,0,0,1,1.6-5.64l-66.5-30.43Z"/><path class="cls-3" d="M1762.18,45.6a5.85,5.85,0,0,1-.24,3.37l101.23,19.67L1952.1-37.23a14.35,14.35,0,0,1-3.22-1.76L1760.37,42.3A7.2,7.2,0,0,1,1762.18,45.6Z"/><path class="cls-3" d="M1929,72.39a21.35,21.35,0,0,1,2.52-.08l26.82-108.2a21.49,21.49,0,0,1-4.57-.78L1865,69l52.21,10.15C1918.57,75.69,1923.09,72.93,1929,72.39Z"/><path class="cls-3" d="M1933,90.41a21.24,21.24,0,0,1-9-1.09l-190.15,186c2.92,1.39,5,3.5,5.57,6a6,6,0,0,1-.56,4.09l368.79,93.18a12.73,12.73,0,0,1,6.9-4.58L1935.45,90A22.68,22.68,0,0,1,1933,90.41Z"/><path class="cls-3" d="M897.2,173.19a7.24,7.24,0,0,1,1.72,3.19,6.4,6.4,0,0,1-1.61,5.67L1146,282.79a13.65,13.65,0,0,1,3.62-2.2L1009.94,125.85Z"/><path class="cls-3" d="M896.19,172.2,1009,124.82,913.81,19.38a20.57,20.57,0,0,1-4.27.85,23.07,23.07,0,0,1-2.34.08L887,168.69A17.07,17.07,0,0,1,896.19,172.2Z"/><path class="cls-3" d="M1191.16,49.75,1011.49,125.2,1151.26,280a20.61,20.61,0,0,1,4.26-.84,21.67,21.67,0,0,1,2.78-.08L1200,53.21A16.81,16.81,0,0,1,1191.16,49.75Z"/><path class="cls-3" d="M1190.15,48.76a7.22,7.22,0,0,1-1.72-3.2,6,6,0,0,1-.14-.93L921.34,13.44c-.87,2.19-3,4.1-5.93,5.35l95.15,105.38Z"/><path class="cls-3" d="M885.12,168.59,905.36,20.22a17.39,17.39,0,0,1-8.8-3.19L725,96.7a7.57,7.57,0,0,1,2.32,3.81,6.5,6.5,0,0,1-1.89,6L873.65,172a17.13,17.13,0,0,1,9.12-3.36A23.26,23.26,0,0,1,885.12,168.59Z"/><path class="cls-3" d="M1188.35,43.44a6.73,6.73,0,0,1,1.18-2.88L1081-43,920.66,7.72a6.62,6.62,0,0,1,1,2.2,5.83,5.83,0,0,1,0,2.35l164.25,19.2Z"/><path class="cls-3" d="M919.84,6.66,1079.8-44,938.86-152.53a19.29,19.29,0,0,1-6.32,1.64,22.87,22.87,0,0,1-2.33.08l-20.56,153C913.93,2.64,917.69,4.29,919.84,6.66Z"/><path class="cls-3" d="M1385,38.29l-.1,0L1281.24,152.71l11.33,15.82a22.16,22.16,0,0,1,3-.5,21.65,21.65,0,0,1,6.53.38Z"/><path class="cls-3" d="M1207.61,52.77a20.38,20.38,0,0,1-3,.5,21.67,21.67,0,0,1-2.78.08l-41.66,225.86a19.88,19.88,0,0,1,3.73.79l115.29-127.35Z"/><path class="cls-3" d="M1393.2,39.11a22,22,0,0,1-6.53-.38l-82.81,130.11c4.11,1.28,7.2,3.79,7.9,6.9a.15.15,0,0,1,0,.07l465.37-21a6.3,6.3,0,0,1,1.28-4.55L1404,34C1402,36.68,1398.08,38.66,1393.2,39.11Z"/><path class="cls-3" d="M1750.1,55.9c-7.79.72-15-2.73-16.15-7.71a6.7,6.7,0,0,1-.13-1.4L1457.58,33.21l-52.18-2.57a6.14,6.14,0,0,1-.7,2.3l374.61,116.27a15.5,15.5,0,0,1,8.64-4l-37.14-89.43C1750.58,55.84,1750.34,55.88,1750.1,55.9Z"/><path class="cls-3" d="M1761.41,50.1c-1.49,2.51-4.68,4.53-8.81,5.42L1789.78,145a21.23,21.23,0,0,1,8.33,1l64.17-76.38Z"/><path class="cls-3" d="M1916.85,80.31l-52.77-10.26-64.4,76.65a14.43,14.43,0,0,1,2.5,1.47l117.43-61.29a7.9,7.9,0,0,1-2.73-4.18A6,6,0,0,1,1916.85,80.31Z"/><path class="cls-3" d="M1165.47,280.59l.28.13,122.26-97a8.83,8.83,0,0,1-4.48-5.41c-.87-3.88,2.25-7.54,7.37-9.3L1280.1,154Z"/><path class="cls-4" d="M2296.72-421.91c-7.79.72-13.2,5.34-12.08,10.31a6.57,6.57,0,0,0,.39,1.13l-428.68,95.25-.38-.38-.61.61-3.51.78,2.52.18L1707.7-170.7a21.11,21.11,0,0,0-9-1.09c-6.31.58-11.05,3.72-12,7.53l-210.48-13.22a5.44,5.44,0,0,0-.13-1.6c-1.12-5-8.35-8.43-16.15-7.71s-13.2,5.33-12.07,10.31a6.85,6.85,0,0,0,1.31,2.7L1199.5-82.47c-2.92-2.93-8.33-4.66-14.06-4.13-4.55.42-8.28,2.17-10.38,4.54L943.62-156.35a6.14,6.14,0,0,0,1-4.85c-1.12-5-8.35-8.42-16.14-7.71s-13.21,5.34-12.08,10.31c.92,4.07,5.92,7.11,12,7.7L907.8,2.13a23,23,0,0,0-2.33.08c-7.79.72-13.2,5.33-12.07,10.31a7.32,7.32,0,0,0,2.07,3.56L723.84,95.77a19.25,19.25,0,0,0-12.7-3c-7.79.71-13.2,5.33-12.07,10.3s8.35,8.43,16.14,7.71a17.16,17.16,0,0,0,9.13-3.35L872.59,173a6.47,6.47,0,0,0-1.89,6c1.12,5,8.35,8.43,16.14,7.71a16.78,16.78,0,0,0,9.48-3.65l248.74,100.75a6.41,6.41,0,0,0-1.62,5.66c1.13,5,8.36,8.43,16.15,7.71s13.21-5.33,12.08-10.31a8.82,8.82,0,0,0-4.47-5.4l122.26-97a20.62,20.62,0,0,0,10.22,1.57c7.14-.65,12.26-4.58,12.21-9.06l465.4-21-.06-.59h0c1.12,5,8.35,8.42,16.15,7.7s13.2-5.33,12.07-10.3a7.41,7.41,0,0,0-2.17-3.66l117.55-61.35a13.91,13.91,0,0,0,1.62.91l-190.15,186a21.24,21.24,0,0,0-9-1.09c-7.8.72-13.2,5.33-12.08,10.31s8.35,8.43,16.15,7.71c4.91-.45,8.87-2.46,10.85-5.12L2107,379.64a6,6,0,0,0-.42,3.83c1.12,5,8.35,8.42,16.15,7.71,7-.65,12.12-4.48,12.21-8.89l186.72-11.06c1.22,4.91,8.38,8.29,16.11,7.58s13.2-5.33,12.08-10.3c-.8-3.52-4.65-6.27-9.6-7.33l37.06-89.66a22.16,22.16,0,0,0,4.39,0c7.79-.72,13.2-5.33,12.08-10.31s-8.36-8.42-16.15-7.71l-.22,0L2327.48,134c6.73-1.25,11.17-5.48,10.14-10a7.64,7.64,0,0,0-2.41-3.89L2483.42,44.9a19.39,19.39,0,0,0,12.6,2.89c7.8-.72,13.21-5.33,12.08-10.31s-8.35-8.42-16.15-7.71a20,20,0,0,0-5.32,1.21l-97.39-89.55c3.84-1.94,6-5.09,5.25-8.41-.56-2.5-2.67-4.61-5.61-6L2519.21-201.5a21.17,21.17,0,0,0,9,1.07c7.79-.72,13.2-5.33,12.08-10.31s-8.36-8.42-16.15-7.71c-5.06.47-9.1,2.58-11,5.36l-325.22-75.29a5.9,5.9,0,0,0,.43-3.84,6.81,6.81,0,0,0-.35-1.08l104.29-111.5a21.4,21.4,0,0,0,8.53.91c7.8-.72,13.2-5.33,12.08-10.31S2304.52-422.62,2296.72-421.91Zm-439,108.13L2160-291.39a5.84,5.84,0,0,0,.13,1.76,6.7,6.7,0,0,0,.65,1.71l-219.37,59.36ZM2255.8,2.7a20.32,20.32,0,0,0-9.51-1.63l-69.18-282.76.35-.38a19.64,19.64,0,0,0,3.13-.72L2363.91-82.51Zm3,1.81L2370.4-59.2a17.58,17.58,0,0,0,6.39,2.33L2353.18,21.8l-91.46-10.64a5.78,5.78,0,0,0,0-2.34A7.86,7.86,0,0,0,2258.79,4.51Zm-14.33-3.27a18.57,18.57,0,0,0-5.12,1.46L2049.46-146.83l118.43-135.94a21.34,21.34,0,0,0,7.3.92Zm-5.37,16.19L2122.39,133a21.4,21.4,0,0,0-9-1.06,20.53,20.53,0,0,0-3.85.73L2045.5,56.24l189-42.55A11.3,11.3,0,0,0,2239.09,17.43Zm-76.27-302.88-159,89.26a19.67,19.67,0,0,0-12.1-2.57c-7.14.66-12.26,4.58-12.21,9.06l-37.14-37.84,219.11-59.3A9.21,9.21,0,0,0,2162.82-285.45Zm3.48,2.08L2048.2-147.81l-44.77-35.26c3.32-2,5.13-4.9,4.44-8a7.89,7.89,0,0,0-2.83-4.26l158.37-88.9.62-.35A14.72,14.72,0,0,0,2166.3-283.37ZM1995.79-180.75a19.32,19.32,0,0,0,6.2-1.58l45.24,35.63-81.49,93.53a19.77,19.77,0,0,0-3-.65l29.81-126.87A23.31,23.31,0,0,0,1995.79-180.75ZM1960.84-54a22,22,0,0,0-3.24,0,16.91,16.91,0,0,0-9.49,3.66l-66.46-30.41,105-101.15a20.26,20.26,0,0,0,4.06,1Zm-13.71,4.72a6.33,6.33,0,0,0-1.6,5.64,7.21,7.21,0,0,0,1.83,3.32l-188,81.63a13.59,13.59,0,0,0-2.62-1.65L1880.63-79.72Zm-13.8,121.71,26.83-108.27c.5,0,1,0,1.51-.09a20.8,20.8,0,0,0,3.86-.73l77.33,92.26-98.77,22.23C1942.18,75,1938.1,72.92,1933.33,72.42ZM1948.88-39a14.35,14.35,0,0,0,3.22,1.76L1863.17,68.64,1761.94,49a5.85,5.85,0,0,0,.24-3.37,7.2,7.2,0,0,0-1.81-3.3Zm4.85,2.32a21.49,21.49,0,0,0,4.57.78l-26.82,108.2a21.35,21.35,0,0,0-2.52.08c-5.87.54-10.39,3.3-11.78,6.75L1865,69ZM1945.11,80.1a6.12,6.12,0,0,0-.4-1.16l99-22.3,64.2,76.6a13,13,0,0,0-4.74,3.1L1944.1,85A6.16,6.16,0,0,0,1945.11,80.1Zm99.51-24.91-77.46-92.41a11.5,11.5,0,0,0,5.84-4.55L2233.69,8.08a5.83,5.83,0,0,0-.23,3.34,6.12,6.12,0,0,0,.4,1.16Zm-71.1-98.1a5.83,5.83,0,0,0,.23-3.34c-.61-2.71-3-5-6.39-6.34l81.13-93.13L2237.9,3.44A10.09,10.09,0,0,0,2234.21,7ZM1709.25-170.06l146.69-143.35,83.72,85.32-226.23,61.22A11.66,11.66,0,0,0,1709.25-170.06Zm4.9,4.28,226.5-61.3,37.45,38.17-263.47,24.25A6.51,6.51,0,0,0,1714.15-165.78Zm.75,2.29,264.92-24.39a9.75,9.75,0,0,0,5.31,5.37l-105,101.11L1712.79-158A6.7,6.7,0,0,0,1714.9-163.49Zm-11.26,9.6a16.78,16.78,0,0,0,8.07-3.13l167.42,76.61L1755.15,39a21.08,21.08,0,0,0-8.2-1.17ZM1745.12,38a18.8,18.8,0,0,0-5.31,1.48L1579.22-86.6,1691.14-156a19.76,19.76,0,0,0,10.67,2.31Zm-6.74,2.22a8.78,8.78,0,0,0-4.42,5.39L1405.37,29.46a5,5,0,0,0-.1-.66,8.48,8.48,0,0,0-3.93-5.06L1577.89-85.78ZM1476-176.3l210.49,13.22a5.82,5.82,0,0,0,.12,1.6,8.16,8.16,0,0,0,3.28,4.6L1578.05-87.52l-106.46-83.59A9,9,0,0,0,1476-176.3Zm-16.2,7.52a22.22,22.22,0,0,0,4.16,0,19.31,19.31,0,0,0,6.22-1.6L1576.72-86.7,1400,23a18.61,18.61,0,0,0-5.27-1.67l19.9-58.12ZM1458-169l-3.61,10.56L1392.87,21.08a22.25,22.25,0,0,0-3.74,0,18.39,18.39,0,0,0-7.79,2.42l-97.29-51L1454-170.2A19.11,19.11,0,0,0,1458-169Zm-74.71,206.7-103,113.73-71-99.12c4.69-1.61,7.69-4.81,7.5-8.32L1377,31.06c0,.12,0,.23,0,.34C1377.65,34.06,1380,36.28,1383.25,37.66Zm-196-106.16,4.5,61.4,3.2,43.67a13,13,0,0,0-4.47,2.86l-107.76-83,92.57-29.3C1177.78-70.24,1182.28-68.55,1187.24-68.5ZM1216.6,42.78c-.81-3.11-4-5.59-8.21-6.81l74.54-62.56,97.16,51a7.47,7.47,0,0,0-3.17,5.49Zm-15-121.67a7.07,7.07,0,0,0-1.19-2.55L1450-172.76a12,12,0,0,0,2.53,1.85L1282.62-28.28l-83.69-43.9C1201.09-74,1202.14-76.42,1201.59-78.89Zm-3.86,7.61,83.77,43.94-74.92,62.88a21.76,21.76,0,0,0-6.07-.28,19.74,19.74,0,0,0-3.76.7l-4-55-3.62-49.48c.14,0,.28,0,.42,0A18,18,0,0,0,1197.73-71.28Zm-254.94-84L1174.26-81a6.15,6.15,0,0,0-.9,4.71,6.86,6.86,0,0,0,1.08,2.37L1081.5-44.51,940.29-153.29A11.5,11.5,0,0,0,942.79-155.29Zm-12.58,4.48a22.87,22.87,0,0,0,2.33-.08,19.29,19.29,0,0,0,6.32-1.64L1079.8-44l-160,50.63c-2.15-2.37-5.91-4-10.19-4.44ZM921.62,9.92a6.62,6.62,0,0,0-1-2.2L1081-43l108.52,83.6a6.73,6.73,0,0,0-1.18,2.88l-102.44-12L921.66,12.27A5.83,5.83,0,0,0,921.62,9.92Zm-.28,3.52,266.95,31.19a6,6,0,0,0,.14.93,7.22,7.22,0,0,0,1.72,3.2l-179.59,75.41L915.41,18.79C918.34,17.54,920.47,15.63,921.34,13.44Zm-11.8,6.79a20.57,20.57,0,0,0,4.27-.85L1009,124.82,896.19,172.2a17.07,17.07,0,0,0-9.23-3.51L907.2,20.31A23.07,23.07,0,0,0,909.54,20.23ZM873.65,172,725.4,106.49a6.5,6.5,0,0,0,1.89-6A7.57,7.57,0,0,0,725,96.7L896.56,17a17.39,17.39,0,0,0,8.8,3.19L885.12,168.59a23.26,23.26,0,0,0-2.35.08A17.13,17.13,0,0,0,873.65,172ZM1146,282.79,897.31,182.05a6.4,6.4,0,0,0,1.61-5.67,7.24,7.24,0,0,0-1.72-3.19l112.74-47.34,139.72,154.74A13.65,13.65,0,0,0,1146,282.79Zm12.26-3.72a21.67,21.67,0,0,0-2.78.08,20.61,20.61,0,0,0-4.26.84L1011.49,125.2l179.67-75.45a16.81,16.81,0,0,0,8.8,3.46Zm1.84.14L1201.8,53.35a21.67,21.67,0,0,0,2.78-.08,20.38,20.38,0,0,0,3-.5l71.55,99.88L1163.87,280A19.88,19.88,0,0,0,1160.14,279.21Zm123.39-100.88a8.83,8.83,0,0,0,4.48,5.41l-122.26,97-.28-.13L1280.1,154,1290.9,169C1285.78,170.79,1282.66,174.45,1283.53,178.33Zm12.08-10.3a22.16,22.16,0,0,0-3,.5l-11.33-15.82L1384.85,38.26l.1,0-82.81,130.12A21.65,21.65,0,0,0,1295.61,168Zm481.53-13.24-465.37,21a.15.15,0,0,0,0-.07c-.7-3.11-3.79-5.62-7.9-6.9l82.81-130.11a22,22,0,0,0,6.53.38c4.88-.45,8.83-2.43,10.82-5.07l374.4,116.2A6.3,6.3,0,0,0,1777.14,154.79Zm2.17-5.58L1404.7,32.94a6.14,6.14,0,0,0,.7-2.3l52.18,2.57,276.24,13.58a6.7,6.7,0,0,0,.13,1.4c1.13,5,8.36,8.43,16.15,7.71.24,0,.48-.06.71-.09L1788,145.24A15.5,15.5,0,0,0,1779.31,149.21Zm18.8-3.13a21.23,21.23,0,0,0-8.33-1L1752.6,55.52c4.13-.89,7.32-2.91,8.81-5.42l100.87,19.6Zm121.5-59.2-117.43,61.29a14.43,14.43,0,0,0-2.5-1.47l64.4-76.65,52.77,10.26a6,6,0,0,0,0,2.39A7.9,7.9,0,0,0,1919.61,86.88Zm188,291.66-368.79-93.18a6,6,0,0,0,.56-4.09c-.56-2.48-2.65-4.59-5.57-6L1924,89.32a21.24,21.24,0,0,0,9,1.09,22.68,22.68,0,0,0,2.42-.37L2114.55,374A12.73,12.73,0,0,0,2107.65,378.54Zm12.17-5.45c-.38,0-.76,0-1.14.07a22.88,22.88,0,0,0-2.41.37L1937.17,89.61a13.76,13.76,0,0,0,6.1-3.59l159.1,51.38a6.11,6.11,0,0,0-1,4.87c1,4.38,6.71,7.58,13.39,7.79Zm245.75-109.25c.81,3.61,4.84,6.4,10,7.4l-37,89.64a22.28,22.28,0,0,0-4.77-.08c-7.25.66-12.42,4.7-12.21,9.26l-186.65,11.05a2,2,0,0,0,0-.24c-1-4.33-6.59-7.5-13.16-7.78L2116.6,150l.9-.05a17.32,17.32,0,0,0,9-3.24l241.4,110.72A6.66,6.66,0,0,0,2365.57,263.84Zm9.21-9.84a16.17,16.17,0,0,0-5.79,2.53L2127.56,145.79a6.56,6.56,0,0,0,2-6.12c-.56-2.5-2.68-4.62-5.63-6l116.7-115.6a21.23,21.23,0,0,0,9,1.07c.55-.05,1.08-.13,1.61-.22Zm-3.08-9.56L2311.82,130.5c3,2.73,8.2,4.31,13.72,3.8h.13Zm-62.44-118.81-52.58-100,59.93,91.74C2312,119,2309.05,122.14,2309.26,125.63Zm15.58-9.39a22.38,22.38,0,0,0-3.37.05,19.52,19.52,0,0,0-3.18.55L2253.9,18.27c3.75-1.18,6.49-3.37,7.5-5.94L2352.83,23Zm155-76.16a7.62,7.62,0,0,0,2.4,3.89l-148.21,75.21a17.34,17.34,0,0,0-7.4-2.75l28-93.26,125.19,14.56A5.65,5.65,0,0,0,2479.88,40.08Zm-6.09-18.84,11.33,10.42a9.93,9.93,0,0,0-5,4.91L2355,22l23.61-78.67a21.94,21.94,0,0,0,3.8,0,19.86,19.86,0,0,0,5.32-1.2ZM2366.26-64.38a8,8,0,0,0,2.9,4.31L2257.55,3.63l-.31-.2,107.67-84.85,7.5,8.2C2368-71.33,2365.46-67.95,2366.26-64.38Zm21.07-9.24a21.22,21.22,0,0,0-9-1.07,20.6,20.6,0,0,0-4.34.87l-7.85-8.58,149.79-118ZM2512.47-212a6,6,0,0,0-.43,3.84,8.85,8.85,0,0,0,4.44,5.39L2365.15-83.49l-183-199.9a11.65,11.65,0,0,0,5.08-3.89ZM2290.68-405.41,2187.16-294.73c-2.58-3.57-8.59-5.79-15-5.2-6.23.57-10.92,3.63-12,7.37l-300.12-22.23,425.57-94.57A11.5,11.5,0,0,0,2290.68-405.41Z"/></g><path class="cls-4" d="M-495.58-.39C-490.84,1-485.44.21-482-2l216.69,111.47a7.83,7.83,0,0,0-.94,1.07c-2.74,3.86-.06,8.41,6,10.16s13.18,0,15.91-3.83a5.89,5.89,0,0,0,.89-1.89l154.19,7.29c.09,2.87,2.69,5.59,7,6.85,6,1.75,13.18,0,15.91-3.83a5.15,5.15,0,0,0,.63-5.22L93,81.4A11,11,0,0,0,98.81,85a18.26,18.26,0,0,0,8.74.28L268.61,319.91a10.49,10.49,0,0,0-5.14,3.54c-2.73,3.86-.05,8.41,6,10.16s13.17,0,15.91-3.83a5.34,5.34,0,0,0,1.05-3.46l481-40.48c-1.91,3.68.8,7.76,6.46,9.4,6.05,1.74,13.17,0,15.91-3.83a6,6,0,0,0,.6-1.07l175.4,20.78c-.46,3.16,2.21,6.3,7,7.69a18.39,18.39,0,0,0,7.4.51l66,137.71-3-.32,3.64,1.65.4.83.63-.37,312,141.18a7.11,7.11,0,0,0-.55.68c-2.74,3.86,0,8.41,6,10.15s13.17,0,15.91-3.83,0-8.4-6-10.15a18.26,18.26,0,0,0-6.92-.58l-43.62-106.13c.16-.18.31-.36.45-.55a5.53,5.53,0,0,0,1.07-3l291.07-12.34c.62,2.46,3.1,4.68,6.92,5.78,6,1.75,13.17,0,15.91-3.83s0-8.41-6-10.15a18.16,18.16,0,0,0-7.35-.52l-58.38-123.62a11.25,11.25,0,0,0,6.44-3.94c1.78-2.51,1.26-5.3-1-7.43l111.8-58a13.18,13.18,0,0,0,3.63,1.63c6,1.75,13.18,0,15.91-3.83s0-8.4-6-10.15a18.16,18.16,0,0,0-11,.35l-92.46-83.12a9.06,9.06,0,0,0,3.12-2.65c2.46-3.46.54-7.47-4.25-9.52L1679,75.92c6,1.68,13.06,0,15.77-3.86s0-8.41-6-10.16a18.57,18.57,0,0,0-3.23-.6l2.91-78.19c4.27-.19,8.24-1.83,10.13-4.5a5.63,5.63,0,0,0,1-2.12l186.14,5.22c.21,2.78,2.79,5.39,7,6.61,6,1.75,13.17,0,15.91-3.82s0-8.41-6-10.16c-.44-.13-.89-.23-1.34-.32l58-171.43c5.08.39,10.18-1.33,12.4-4.46,2.73-3.86,0-8.4-6-10.15s-13.17,0-15.91,3.83a5.32,5.32,0,0,0-1,3.39l-399.22,31.27c-.92-2.11-3.25-4-6.62-4.94-6-1.75-13.18,0-15.91,3.83s0,8.41,6,10.15a14.24,14.24,0,0,0,1.83.41L1518.6-74.39c-4.78-.14-9.43,1.55-11.52,4.5a5.53,5.53,0,0,0-1.06,3L1173-46.63c-.71-2.37-3.14-4.49-6.84-5.56-6-1.75-13.18,0-15.91,3.82s-.06,8.41,6,10.16a17.74,17.74,0,0,0,4.27.66L1166,61.14c-4,.33-7.64,1.93-9.42,4.44l.38-.66L787.71-21.72c1.49-3.57-1.21-7.39-6.65-9a18.34,18.34,0,0,0-8.54-.33l-63.44-96.86a10.58,10.58,0,0,0,5.32-3.61c2.73-3.86.05-8.41-6-10.15s-13.17,0-15.91,3.82a5.18,5.18,0,0,0-.84,4.63l-238.5,44.4A10.58,10.58,0,0,0,446.93-93c-6.05-1.74-13.17,0-15.91,3.83a5.14,5.14,0,0,0-.73,4.92L286.09-53.28a10.8,10.8,0,0,0-6-3.89c-6.05-1.75-13.18,0-15.91,3.83a5.82,5.82,0,0,0-.68,1.24L-12.62-77.2c.13-3-2.51-5.9-7.06-7.21A18.27,18.27,0,0,0-30-84.29L-133.79-186.93a9.5,9.5,0,0,0,3.71-3c2.74-3.86.05-8.4-6-10.15s-13.17,0-15.91,3.83a.56.56,0,0,1,0,.08l-143.52-20.92-75.86-11.06c.19-3-2.45-6-7.05-7.31-6-1.75-13.18,0-15.91,3.82-2.13,3-1,6.41,2.48,8.6l-93.63,91.65c-.15,0-.3-.11-.45-.15-6-1.75-13.18,0-15.91,3.82s-.05,8.41,6,10.16a17.77,17.77,0,0,0,4.41.67L-491.72-15c-4.16.25-8,1.87-9.86,4.48C-504.32-6.68-501.63-2.14-495.58-.39Zm114.05-220.48c3.85-.39,7.33-2,9-4.41a5.67,5.67,0,0,0,.76-1.43l86,12.54,133,19.38a5.07,5.07,0,0,0-.28,2.2L-368.56-150.1ZM448.9-79.7l73.81,55.11-115.61,71a14.75,14.75,0,0,0-2.9-1.18c-.51-.15-1-.26-1.55-.36l38.1-123.24A17.53,17.53,0,0,0,448.9-79.7Zm246.69-49.14a13.94,13.94,0,0,0,2.9,1.19,17.38,17.38,0,0,0,1.9.42L651.19,62a17.38,17.38,0,0,0-7.79,1.38L525.76-24.49ZM1545.72,344.9l-55.16-83.48,66,67.31a9.59,9.59,0,0,0-3.66,2.94c-1.91,2.7-1.16,5.74,1.52,7.92Zm72.52,125a5.47,5.47,0,0,0-1.07,3L1326.1,485.21a6.84,6.84,0,0,0-2.44-3.54l221.26-134.33,78.6,119A10.49,10.49,0,0,0,1618.24,469.91ZM283.14,321.33a13.16,13.16,0,0,0-3.35-1.57l71.95-118.11c5.64,1,11.76-.69,14.25-4.21h0l113.62,25ZM-482.72-118.92l.54-.35,123.81,77A8.14,8.14,0,0,0-360-40.6a5.13,5.13,0,0,0-.75,4.9l-33.22,7.05ZM-130.78,61.52l42.57,19.13a8.06,8.06,0,0,0-.53.66,5.22,5.22,0,0,0-.92,4.38l-37.47,6.17L-335.73-30.59Zm43.85,18L-235.79,12.59-338.6-33.62a7.79,7.79,0,0,0,.52-.65,5.25,5.25,0,0,0,1-3.92l223.38-27.63L-80.63,77A14.05,14.05,0,0,0-86.93,79.5ZM-360-34.36a10.88,10.88,0,0,0,6,3.92,18.35,18.35,0,0,0,8.32.36l84.88,136.85-132-134.18Zm109.67,141a18.5,18.5,0,0,0-8.32-.37L-343.59-30.6A14.1,14.1,0,0,0-341-31.74l211.28,124L-244,111.07C-245.06,109.19-247.27,107.56-250.36,106.67Zm6.92,5.78,115.69-19,40.92,24a7.79,7.79,0,0,0-1.39,1.49,5.73,5.73,0,0,0-.9,1.89l-154.18-7.3A4.83,4.83,0,0,0-243.44,112.45Zm165,2a16,16,0,0,0-6.84,1.94L-125.19,93l36.09-5.94c1.06,1.89,3.27,3.51,6.36,4.41a17.61,17.61,0,0,0,3.95.64ZM-67,81.15,63.8,31.07,97.21,71.59a10.1,10.1,0,0,0-4.4,3.27,5.54,5.54,0,0,0-1.06,2.88l-157.66,5.6A5.9,5.9,0,0,0-67,81.15ZM267.59-44.2a14.33,14.33,0,0,0,2.57,1,18.14,18.14,0,0,0,5.66.67l33.6,101.89-194,16.92a7.68,7.68,0,0,0-3.12-3.64ZM1173.86,75.27l72.62,67.22a9.34,9.34,0,0,0-3.48,2.84,6,6,0,0,0-.85,1.72l-46.3.41-24-71.57A17.4,17.4,0,0,0,1173.86,75.27ZM1676.13-26.68c-1.08,2.36-.3,4.86,1.93,6.75L1618.93,14.4l-92.31-75.76a8.81,8.81,0,0,0,2.37-2.2Zm-151.2-33.77,92.36,75.81-184,106.82a13.69,13.69,0,0,0-3.15-1.33l-.41-.1,86-179.94A17.65,17.65,0,0,0,1524.93-60.45ZM360,187.29a15.67,15.67,0,0,0-1.54-.36L398,59.88a16.88,16.88,0,0,0,9.32-1.94L518,122.69,364.3,189.4A12.94,12.94,0,0,0,360,187.29Zm48.82-130.4a7.74,7.74,0,0,0,1.39-1.48,5.76,5.76,0,0,0,.83-1.69L638.48,68.37a5,5,0,0,0-.1,2.06L519.87,121.88Zm230.07,15a7.64,7.64,0,0,0,2.22,2.59l-40.92,76.66-4,7.42a17.41,17.41,0,0,0-10.72,1.67l-63.94-37.41Zm-40.54,87.14h0l4-7.39,40.6-76a15.09,15.09,0,0,0,2.51,1,18.56,18.56,0,0,0,4.67.68l37.52,62-83.72,23A11.53,11.53,0,0,0,598.34,159.07Zm-232.79,31.5,154.12-66.89L584,161.3a8.19,8.19,0,0,0-1.53,1.59,5.31,5.31,0,0,0-1,3.74l-214.8,25.56A6.84,6.84,0,0,0,365.55,190.57Zm405.79,91.7L602.64,170.94a8.32,8.32,0,0,0,1.69-1.72,5.14,5.14,0,0,0,.42-5.63l83.61-23,85.15,140.75A14.52,14.52,0,0,0,771.34,282.27ZM690.4,140.06l97.28-26.71a11.86,11.86,0,0,0,5.26,2.94,17.68,17.68,0,0,0,2.7.54l-10.38,99.43-6.71,64.32a18.12,18.12,0,0,0-3,.29Zm618.21,339.59-59.34-59.39-36.68-36.71a9.37,9.37,0,0,0,3.58-2.89,5.3,5.3,0,0,0-.5-7L1264.5,352l45.78,127.16A17,17,0,0,0,1308.61,479.65ZM1099.9,155.41l122.37,94.27a8.87,8.87,0,0,0-2.47,2.27,5.15,5.15,0,0,0-.84,4.6l-64.75,14.64-56.45-115A15.85,15.85,0,0,0,1099.9,155.41Zm119.67,102.5a10.58,10.58,0,0,0,6.23,4.19,16.24,16.24,0,0,0,2.28.49L1205.7,369.83a17.53,17.53,0,0,0-3,.17l-47.83-97.46Zm-5.17,114.64a12.93,12.93,0,0,0-4.23-2.05,19.08,19.08,0,0,0-2.27-.49l8-38.3,14.43-68.93c.68,0,1.34,0,2-.07L1264,350.53Zm20.12-110.16c3.08-.65,5.75-2.08,7.19-4.12a5.58,5.58,0,0,0,1-2.53l229.5-1.38a6,6,0,0,0,1.5,3l-207.8,92.3Zm238.7-12a5.65,5.65,0,0,0-1,2.53l-229.5,1.39a6.72,6.72,0,0,0-2.81-4.19L1336.39,187l137.4,62.72C1473.59,249.94,1473.4,250.17,1473.22,250.41Zm-234.91-1.26a14,14,0,0,0-2.6-1l-.87-.22,18-91.77a16.06,16.06,0,0,0,10.17-2.62l71.52,32.65ZM1249,155.49a16.48,16.48,0,0,0,1.69.38l-18,91.67a18.53,18.53,0,0,0-3.33,0l-33-98.62,45.6-.41C1241.92,151.4,1244.54,154.2,1249,155.49Zm-21.82,92.3a15.78,15.78,0,0,0-2.66.77l-122.88-94.07a8.71,8.71,0,0,0,2.45-2.25,5.57,5.57,0,0,0,1-2.56l89-.78ZM808.85,112.46a3.37,3.37,0,0,0,.19-.32L970.13,133.5l111.05,14.72a5.47,5.47,0,0,0,1.49,4.63l-176,77.93L804.09,115.87A10.27,10.27,0,0,0,808.85,112.46Zm280.35,43.87a18.65,18.65,0,0,0,6.44.25l56.48,115.08L988.67,308.6a10.34,10.34,0,0,0-5-3.45ZM989.42,309.94,1152.78,273l47.81,97.41a11.86,11.86,0,0,0-5.82,3.28L989.13,314.32A5,5,0,0,0,989.42,309.94Zm210.84,74.54a18.21,18.21,0,0,0,10.46-.17l26.74,26.77,69.29,69.34a11.73,11.73,0,0,0-1.1.64l-155.41-80.65,43.3-24.71C1192.2,379.21,1194.92,382.94,1200.26,384.48Zm117.79,94.67a18.38,18.38,0,0,0-5.62-.31l-46-127.69L1475,258.52a12.45,12.45,0,0,0,3.12,1.68Zm157-230.59L1338,186l79.71-52.17a14.52,14.52,0,0,0,2.6,1,18.42,18.42,0,0,0,7.33.53l52.08,111.11A13.25,13.25,0,0,0,1475.09,248.56Zm-59-115.75-80,52.32-71.8-32.77a6.23,6.23,0,0,0,.57-.7,5.26,5.26,0,0,0,1-3.89L1413.68,130A7.47,7.47,0,0,0,1416.09,132.81ZM1169.75,76.28l23.84,71.2-88.52.79c-.36-2.11-2.07-4.08-4.83-5.37l63-67A18.26,18.26,0,0,0,1169.75,76.28Zm-8.49-1-62.93,66.89-.25-.08c-6-1.75-13.17,0-15.91,3.83a7.14,7.14,0,0,0-.53.91L833.25,113.91l-23.57-3.13a5.14,5.14,0,0,0,.23-1.54l346.18-38.15A9.38,9.38,0,0,0,1161.26,75.28Zm-374.57,36.8L689.6,138.74,652.36,77.18c3.61-.4,6.87-1.85,8.65-4.07l125.18,34.44A5.1,5.1,0,0,0,786.69,112.08ZM394.29,59.24c.5.15,1,.26,1.53.36L356.28,186.65a17.61,17.61,0,0,0-2.62,0L312.08,60.57,387.54,54C388.36,56.23,390.74,58.22,394.29,59.24ZM114.72,81.18a5.29,5.29,0,0,0,1-3.49L309.88,60.76,351.49,187a14,14,0,0,0-5.5,2.26L114.11,81.93A7.14,7.14,0,0,0,114.72,81.18Zm252,114.92a5,5,0,0,0,.29-2.52L581.76,168a6.81,6.81,0,0,0,1.54,2.21L481.68,221.38Zm218-24.76a13.38,13.38,0,0,0,3.75,1.71,17.67,17.67,0,0,0,12.66-1.11L769.74,283.25a8.45,8.45,0,0,0-1.32,1.2L484.17,221.93ZM783.81,281.25a17.45,17.45,0,0,0-3-.57L797.85,117a18.43,18.43,0,0,0,4.24-.48l102.77,115.1L788.05,283.31A12.9,12.9,0,0,0,783.81,281.25Zm124-49.24,176.14-78a12.05,12.05,0,0,0,3.25,1.74L981.69,304.57a18.45,18.45,0,0,0-8.88.26Zm80.42,83.6,204,58.92-43.76,25L987.75,316.08C987.91,315.93,988.07,315.77,988.21,315.61Zm316,166.55a8.39,8.39,0,0,0-1,1.1,6.43,6.43,0,0,0-.65,1.2l-252.35-27,98.29-56.11Zm17.89-1.51a13.48,13.48,0,0,0-1.62-.76l-.21-.5,159.82-218.6a18.22,18.22,0,0,0,7.67.09L1544,346ZM1684.3,271.48l-111.81,58a13.65,13.65,0,0,0-3.63-1.63,17,17,0,0,0-2.74-.54l9.73-67.06,106.41,6.91A5.9,5.9,0,0,0,1684.3,271.48Zm-120.39,55.69a17.66,17.66,0,0,0-5.41.82l-67-68.31a9.51,9.51,0,0,0,3.66-2.94,6.06,6.06,0,0,0,.84-1.69l77.67,5.05Zm-67.72-73.52c0-2.09-1.29-4.12-3.66-5.58l88.36-70.22a13.92,13.92,0,0,0,2.12.79,17.51,17.51,0,0,0,2.39.51l-11.55,79.54Zm83-76.73-76.45,60.74,73.5-67.79C1575.32,172.41,1576.49,175.06,1579.23,176.92Zm-89.16,70c-.3-.1-.61-.21-.94-.3a18.17,18.17,0,0,0-7.32-.53L1429.72,135a11.18,11.18,0,0,0,6.46-3.95,5.14,5.14,0,0,0,.7-5l236.26-53.59a9.71,9.71,0,0,0,3.35,2.59Zm-53.94-122.27a8.47,8.47,0,0,0-1.3-1.4L1618.65,16.48l57,46.8a8.78,8.78,0,0,0-2.76,2.45,5.12,5.12,0,0,0-.58,5.31Zm241.3-62.21L1620.3,15.52l59.26-34.41a13.33,13.33,0,0,0,3.15,1.33,17.26,17.26,0,0,0,3.56.63l-2.91,78.16A17.48,17.48,0,0,0,1677.43,62.41Zm15.19-93.95c-5.9-1.7-12.8-.11-15.68,3.54L1530.4-64.73l352.9,45-183.64-5.14C1699.45-27.71,1696.87-30.31,1692.62-31.54Zm194.13,9.71a6.39,6.39,0,0,0-.55,1L1530-66.22a5.23,5.23,0,0,0-.83-3.35L1671.54-114l215.6,91.67C1887-22.15,1886.87-22,1886.75-21.83Zm-373.67-37.9.59.14-86,179.92a17.43,17.43,0,0,0-10,1.55l-71.86-47.1L1511.55-60.28A16.16,16.16,0,0,0,1513.08-59.73Zm-97,182.59a8,8,0,0,0-1.81,1.82,5.23,5.23,0,0,0-1,3.88L1265.5,146.38a8.1,8.1,0,0,0-3.3-3.46l82.24-67Zm-155.64,19.19a15.61,15.61,0,0,0-1.55-.55,18.29,18.29,0,0,0-7.38-.51l-85.74-179.1a14.57,14.57,0,0,0,3-1.13L1342.88,74.88ZM1163.65-37.7l85.74,179.1c-.36.1-.71.2-1.05.32l-72.71-67.31a9,9,0,0,0,2.85-2.5c2.74-3.86,0-8.41-6-10.16a17.67,17.67,0,0,0-4.27-.66l-5.46-98.69C1163.05-37.62,1163.35-37.66,1163.65-37.7Zm-8,107.41L809.68,107.82c-.72-2.35-3.15-4.45-6.83-5.51a18,18,0,0,0-5.1-.68l-19.3-117.8c3.6-.46,6.81-2,8.5-4.22l369.22,86.63A5,5,0,0,0,1155.61,69.71ZM771.15-16.7a17.59,17.59,0,0,0,5.09.67L795.12,99.18,754.24-6.39l14.9-11A15.27,15.27,0,0,0,771.15-16.7ZM794,102.06a11.54,11.54,0,0,0-7,4.08.16.16,0,0,0,0,.07L661.84,71.79c1.26-2.68.09-5.55-2.87-7.5l93.5-69.36ZM657.29,63.36a15.27,15.27,0,0,0-2-.74,17.38,17.38,0,0,0-1.9-.42L702.58-127a16.86,16.86,0,0,0,2.66-.06L751.81-6.76Zm-15.58.91a8.76,8.76,0,0,0-2.34,2.18c-.12.18-.22.35-.32.53L411.26,52.31a6.22,6.22,0,0,0-2.63-4.84l115.53-71ZM391,46.65a8.87,8.87,0,0,0-2.73,2.44,5.29,5.29,0,0,0-1.05,3.49l-75.61,6.6L278-42.74a16.36,16.36,0,0,0,3.22-.85ZM266-45.19,110.66,71.74a14.73,14.73,0,0,0-1.94-.71,18.18,18.18,0,0,0-9.54-.09L65.7,30.34,265-46A10.91,10.91,0,0,0,266-45.19Zm-203.23,75L-68.1,79.94a12.5,12.5,0,0,0-4.73-2.46c-.47-.13-.94-.24-1.42-.33L-35.67-40.23l9.72-29.56a18.31,18.31,0,0,0,6.09-.6ZM-29.59-70.43c.48.14,1,.25,1.46.35L-76.42,76.85a17,17,0,0,0-2,0L-111.51-66.09l75.27-9.31C-35.32-73.27-33-71.41-29.59-70.43ZM-114-67.22-337.5-39.58a7.89,7.89,0,0,0-3-3.24l191.15-144.69a13.76,13.76,0,0,0,3.33,1.44,17.68,17.68,0,0,0,4.62.68Zm-38.66-124a7,7,0,0,0,1.88,2.58L-342.17-43.73a15.64,15.64,0,0,0-1.9-.7,18,18,0,0,0-5.25-.67l-19-103.57ZM-351.52-44.93a15.47,15.47,0,0,0-5.3,1.66l-124-77.13a8.17,8.17,0,0,0,.82-1,5.14,5.14,0,0,0,.54-5.4l109-21.48Zm-133-73.12,88.37,89.86-83.51,17.73a10.79,10.79,0,0,0-6-3.91A17.23,17.23,0,0,0-489.5-15l.24-101.92A16.64,16.64,0,0,0-484.49-118Zm3.87,114.91a8,8,0,0,0,.95-1.08,5.16,5.16,0,0,0,.74-4.9l84-17.83,132.28,134.52a13.92,13.92,0,0,0-1.31.75ZM-66.48,118.7a11.16,11.16,0,0,0-5.83-3.6,17.8,17.8,0,0,0-4-.65l-.3-22.35c4.11-.27,7.9-1.88,9.73-4.46a5.43,5.43,0,0,0,1.06-2.88L91.88,79.15a6.76,6.76,0,0,0,.31.93Zm176.06-34a13.08,13.08,0,0,0,3.23-1.65L344.69,190.37a8.69,8.69,0,0,0-.61.75c-2.67,3.77-.16,8.19,5.59,10l-71.94,118.1a18.55,18.55,0,0,0-7.09.1ZM286.14,324.91a6.76,6.76,0,0,0-1.63-2.47L482.1,223l281,61.79Zm504.68-36a5.5,5.5,0,0,0-1.5-4.46L906,232.82l64.92,72.72a9.74,9.74,0,0,0-4.06,3.11,6.48,6.48,0,0,0-.6,1.08Zm191.51,30a13.69,13.69,0,0,0,4-1.73l160.47,83.28-98.45,56.19ZM1366.2,596.63a13.65,13.65,0,0,0-5,2.22L1052.4,459.13l249.85,26.73c-.36,3.12,2.3,6.19,7,7.56s10.36.57,13.78-1.79Zm255.91-136.11L1546.64,346.3l9.36-5.69a13.89,13.89,0,0,0,3,1.22,18.33,18.33,0,0,0,7.35.52Zm64.34-199.11a9.1,9.1,0,0,0-3.13,2.65,6,6,0,0,0-.83,1.68l-106.43-6.91,11.54-79.51a17.79,17.79,0,0,0,6.39-1Zm-93.73-96.8a18,18,0,0,0-11.49.69L1665.06,88Zm306.43-190.9c-4.08-.31-8.18.75-10.78,2.8L1673.85-114.7,1950.55-201a11.71,11.71,0,0,0,5.31,3c.44.13.89.23,1.34.33Zm49.93-177.11a5.88,5.88,0,0,0,.49,1.09l-277.86,86.7-123-52.33c.1-.12.21-.24.3-.37a5.26,5.26,0,0,0,1-3.82Zm-412,39.57c4,.19,7.89-.89,10.38-2.91l121.94,51.85L1528.19-70.83a11.91,11.91,0,0,0-5.2-2.89,16.42,16.42,0,0,0-2.19-.47Zm-30.91,98.3a7.44,7.44,0,0,0,3.63,4.38L1344.26,73.75l-173.9-114a8,8,0,0,0,1.81-1.81,5.32,5.32,0,0,0,1.06-3.18Zm-741,38.67c-2.09,2.95-1,6.3,2.31,8.49L753.59-8.08,708-125.88l62.49,95.42A10.63,10.63,0,0,0,765.15-26.86Zm-72.88-105a8.12,8.12,0,0,0,1.78,2L524.31-25.57l-73.72-55a8.61,8.61,0,0,0,2.34-2.18,5.16,5.16,0,0,0,.84-4.62ZM431-82.86A10.85,10.85,0,0,0,437-79c.51.14,1,.26,1.55.36L400.47,44.62a17.79,17.79,0,0,0-7.69,1.16L283-44.42a9,9,0,0,0,3-2.6,5.14,5.14,0,0,0,.74-4.92ZM263.13-50.7a5.21,5.21,0,0,0,.88,3.44L64.67,29.09-17.92-71.07a9.83,9.83,0,0,0,4.24-3.19,6.25,6.25,0,0,0,.79-1.54Zm-295-32.84a9.6,9.6,0,0,0-3.7,3,5.3,5.3,0,0,0-1,3.78l-75.22,9.31-27.3-118a17.54,17.54,0,0,0,3.46-.71ZM-390.17-222.1a14.9,14.9,0,0,0,1.78.65,18.33,18.33,0,0,0,4.64.68l13,71.09-109.57,21.61a9.9,9.9,0,0,0-3.36-2.55Z"/></svg>