<?xml version="1.0" encoding="utf-8"?>
<!-- Generator: Adobe Illustrator 22.0.0, SVG Export Plug-In . SVG Version: 6.00 Build 0)  -->
<svg version="1.1" id="Layer_1" xmlns="http://www.w3.org/2000/svg" xmlns:xlink="http://www.w3.org/1999/xlink" x="0px" y="0px"
	 viewBox="0 0 750 117.2" style="enable-background:new 0 0 750 117.2;" xml:space="preserve">
<style type="text/css">
	.st0{fill:url(#SVGID_1_);}
	.st1{opacity:0.3;}
	.st2{fill:none;}
	.st3{fill:#FFFFFF;}
</style>
<linearGradient id="SVGID_1_" gradientUnits="userSpaceOnUse" x1="123.3151" y1="-213.0945" x2="625.3984" y2="288.9888">
	<stop  offset="0" style="stop-color:#EBEBEB"/>
	<stop  offset="1" style="stop-color:#BDBDBD"/>
</linearGradient>
<rect x="-0.6" y="-89.1" class="st0" width="750" height="254.2"/>
<g class="st1">
	<path class="st2" d="M-51.8,152.5c0.8,0.7,1.4,1.7,1.5,2.8l84.8-6.8c0-1,0.3-1.9,0.8-2.7l-50.7-41.4L-51.8,152.5z"/>
	<path class="st2" d="M28.1,47L-15,103.9l50.7,41.4c0.7-0.7,1.6-1.2,2.7-1.4l-7.7-96.2C29.7,47.8,28.8,47.5,28.1,47z"/>
	<path class="st2" d="M-124.6,51.1c0,0.6,0,1.1-0.2,1.7l81.2,30c0.4-0.9,1.1-1.7,2-2.1l-21.7-47.5l-61.4,17.4
		C-124.6,50.7-124.6,50.9-124.6,51.1z"/>
	<path class="st2" d="M-15,220.2l51.1-68.3c-0.5-0.4-0.9-1-1.2-1.7l-73.7,25.9L-15,220.2z"/>
	<path class="st2" d="M-126.2,55l55.4,78l28.7-44.7c-1-0.8-1.7-1.9-1.8-3.3c0-0.6,0-1.1,0.2-1.7l-81.2-30
		C-125.2,54-125.7,54.6-126.2,55z"/>
	<path class="st2" d="M-39.1,175.6l73.8-25.9c-0.1-0.2-0.1-0.4-0.1-0.6l-84.4,6.8L-39.1,175.6z"/>
	<path class="st2" d="M138.8,59.1c0-0.1,0-0.2,0-0.3L35,44.1c-0.2,1-0.8,1.9-1.6,2.6l47,65.9l59.5-50.9
		C139.3,61,138.9,60.1,138.8,59.1z"/>
	<path class="st2" d="M42.3,145.3L80,113L33,47.1c-0.5,0.3-1.1,0.5-1.7,0.6l7.7,96.2C40.3,143.9,41.4,144.4,42.3,145.3z"/>
	<path class="st2" d="M204.4,111.8l0.4-24.7l0.4-27.4c-0.4,0.1-0.8,0.2-1.2,0.3c-0.7,0.1-1.3,0-1.9-0.3l-25.8,29.8l25.2,23.5
		c0.7-0.7,1.6-1.1,2.7-1.2C204.3,111.8,204.3,111.8,204.4,111.8z"/>
	<path class="st2" d="M42.7,145.7c0.5,0.7,0.8,1.5,0.9,2.4c0,0.3,0,0.5,0,0.8l66.4,10.8c0.2-1,0.8-1.9,1.6-2.5l-31.2-43.7
		L42.7,145.7z"/>
	<path class="st2" d="M117.5,157.4c0.3,0.3,0.5,0.6,0.7,1l82.1-40.4c-0.2-0.4-0.3-0.8-0.3-1.3c-0.1-1.2,0.3-2.4,1.1-3.3l-25.2-23.5
		L117.5,157.4z"/>
	<path class="st2" d="M146.7,61.8l29.2,27.3l25.6-29.6c-1.3-0.7-2.2-2-2.4-3.5l-51.3,3.2C147.8,60.1,147.3,61.1,146.7,61.8z"/>
	<path class="st2" d="M147.9,58.5l51.2-3.2c0-1.8,1.1-3.3,2.6-4L182.3,0.6l-36.2,54.5c1,0.8,1.7,1.9,1.8,3.2
		C147.9,58.4,147.9,58.5,147.9,58.5z"/>
	<path class="st2" d="M141.9,63c-0.6-0.2-1.2-0.5-1.6-0.9l-59.5,51l31.2,43.7c0.6-0.4,1.3-0.6,2-0.7c0.5,0,0.9,0,1.3,0.1l18.5-64.7
		L141.9,63z"/>
	<path class="st2" d="M146.2,62.2c-0.7,0.6-1.6,1-2.5,1c-0.4,0-0.8,0-1.2-0.1l-25.2,88l-1.5,5.2c0.4,0.2,0.8,0.4,1.2,0.7l58.4-67.5
		L146.2,62.2z"/>
	<path class="st2" d="M238.9,101.6l-31.6-43.4c-0.4,0.5-0.9,1-1.5,1.3l-0.4,21.8l-0.5,30.6c1.6,0.1,2.9,1.1,3.7,2.4L238.9,101.6z"/>
	<path class="st2" d="M-113,198.7l41.9-65.2l-55.6-78.2c-0.5,0.3-1.1,0.5-1.7,0.6l13.1,142.1C-114.5,198.1-113.7,198.3-113,198.7z"
		/>
	<path class="st2" d="M-80.9-6.9l18,39.4l32.1-9.1c0-0.2-0.1-0.4-0.1-0.6c-0.1-0.9,0.1-1.7,0.5-2.4L-79.3-8.4
		C-79.7-7.8-80.2-7.3-80.9-6.9z"/>
	<path class="st2" d="M-63.5,32.6L-81.4-6.7c-0.4,0.1-0.8,0.2-1.2,0.3c-1,0.1-2-0.2-2.8-0.7L-126.2,48c0.6,0.5,1.1,1.2,1.3,2
		L-63.5,32.6z"/>
	<path class="st2" d="M-117,198.5c0.3-0.1,0.7-0.2,1-0.3l0.1-0.2L-129,56c-1.1,0-2.2-0.3-3-1l-37,40.2L-117,198.5z"/>
	<path class="st2" d="M-110.9,201.4c0.1,0.3,0.1,0.6,0.2,0.9c0,0.3,0,0.6,0,0.9l95.2,17.2l-23.9-44L-110.9,201.4z"/>
	<path class="st2" d="M-39.7,175.8l-10.6-19.6c-0.1,2.2-1.9,4.1-4.2,4.3c-1.5,0.1-2.8-0.5-3.8-1.5l-53.3,41.2
		c0.1,0.2,0.3,0.5,0.4,0.7L-39.7,175.8z"/>
	<path class="st2" d="M-133.5,50.7l-28.7-7.1l-10,38.6c0.8,0.2,1.4,0.7,2,1.3l37.4-29.4c-0.4-0.6-0.7-1.4-0.8-2.2
		C-133.6,51.5-133.6,51.1-133.5,50.7z"/>
	<path class="st2" d="M27.6,46.7c-0.3-0.3-0.6-0.5-0.8-0.9l-62.2,36.8c0.3,0.5,0.4,1.1,0.5,1.7c0.1,1-0.2,2-0.7,2.8l20.1,16.5
		L27.6,46.7z"/>
	<path class="st2" d="M26.1,43.6c0-0.6,0-1.1,0.2-1.7L-5.2,30.1L-36.8,81c0.4,0.3,0.7,0.6,1,0.9l62.4-36.6
		C26.3,44.8,26.1,44.2,26.1,43.6z"/>
	<path class="st2" d="M-26,26.9c-0.3,0-0.5,0-0.8,0l-11.9,53.3c0.5,0.1,1,0.2,1.4,0.5l31.5-50.8l-16.3-6.1
		C-22.6,25.5-24.1,26.8-26,26.9z"/>
	<path class="st2" d="M-111.6,199.5l53-41c-0.4-0.6-0.7-1.4-0.8-2.2c-0.1-1.5,0.5-3,1.7-3.9L-70.8,134l-41.7,65
		c0.2,0.2,0.5,0.4,0.7,0.6L-111.6,199.5z"/>
	<path class="st2" d="M-40.7,89c-0.3-0.1-0.6-0.2-0.9-0.4l-28.8,44.9l13.2,18.6c0.6-0.4,1.3-0.6,2-0.7c0.4,0,0.7,0,1,0L-40.7,89z"/>
	<path class="st2" d="M-15.8,104l-20.1-16.5c-0.8,0.9-1.9,1.5-3.1,1.6c-0.4,0-0.7,0-1,0l-13.5,62.5c0.4,0.1,0.9,0.3,1.3,0.6
		L-15.8,104z"/>
	<path class="st2" d="M-62.7,33L-41,80.4c0.4-0.1,0.8-0.2,1.2-0.3c0.2,0,0.3,0,0.5,0l11.9-53.3c-1.5-0.3-2.7-1.4-3.2-2.9L-62.7,33z"
		/>
	<path class="st2" d="M-145-7.2c0,1.7-1.1,3.3-2.6,4l16.1,46.8L-145-7.2z"/>
	<path class="st2" d="M-145.7-9.7l-15.4-57.9l11.1,55.7c0,0,0,0,0,0C-148.1-12-146.5-11.1-145.7-9.7z"/>
	<path class="st2" d="M-150.8-3c-0.9-0.3-1.7-0.8-2.3-1.5L-202.5,30c0.4,0.6,0.6,1.3,0.6,2c0,0.4,0,0.8-0.1,1.2l39.3,9.8L-150.8-3z"
		/>
	<path class="st2" d="M-26.7,17.9c1-0.1,2,0.2,2.8,0.7l66.2-88.7c-0.9-0.8-1.5-1.8-1.6-3.1c-0.1-0.7,0.1-1.4,0.3-2l-114.1-53.7
		c-0.5,1-1.3,1.7-2.3,2.1L-27.5,18C-27.3,17.9-27,17.9-26.7,17.9z"/>
	<path class="st2" d="M-78.5-11.3c0.1,0.9-0.1,1.7-0.5,2.4l48.9,28.7c0.5-0.7,1.2-1.3,2-1.7L-76-126.6c-0.3,0.1-0.5,0.1-0.8,0.1
		c-0.1,0-0.2,0-0.4,0l-5.4,111C-80.4-15.2-78.7-13.5-78.5-11.3z"/>
	<path class="st2" d="M-83.4-15.4c0.1,0,0.2,0,0.3,0l5.4-111c-2.1-0.3-3.8-2-3.9-4.1c0,0,0-0.1,0-0.1l-59.6,1.8
		c-0.1,2.3-1.8,4.2-4.2,4.4c-0.5,0-1,0-1.5-0.1l-14.6,43.8c1.6,0.6,2.8,2.1,2.9,3.9c0.1,1.2-0.3,2.3-0.9,3.1L-86.4-14
		C-85.6-14.8-84.6-15.3-83.4-15.4z"/>
	<path class="st2" d="M-129.4,47c1-0.1,2,0.2,2.8,0.7L-86-7.5c-0.9-0.8-1.5-1.8-1.6-3.1c-0.1-1.1,0.2-2.2,0.8-3l-73.1-59.9
		c-0.5,0.5-1.2,0.9-1.9,1.1L-130,47C-129.8,47-129.6,47-129.4,47z"/>
	<path class="st2" d="M-133.4,50.1c0.4-1.3,1.3-2.3,2.6-2.8L-148.2-3c-0.3,0.1-0.7,0.2-1,0.2c-0.4,0-0.7,0-1.1,0L-162.1,43
		L-133.4,50.1z"/>
	<path class="st2" d="M208.8,114.8c0.1,0.4,0.2,0.8,0.3,1.2c0.1,0.8-0.1,1.6-0.4,2.3l71.1,41.6c0.2-0.4,0.5-0.7,0.9-0.9L239.3,102
		L208.8,114.8z"/>
	<path class="st2" d="M-110.9,203.7c-0.5,1.8-2,3.3-4,3.4c-2,0.2-3.9-1.1-4.6-2.9l-36.3,53c0.7,0.5,1.2,1.2,1.5,2.1l138-38.5
		L-110.9,203.7z"/>
	<path class="st2" d="M-132.4,54.6c0,0-0.1-0.1-0.1-0.1L-169.9,84c0.4,0.6,0.7,1.4,0.8,2.2c0.1,1.8-0.8,3.4-2.2,4.3l2.1,4.2
		L-132.4,54.6z"/>
	<path class="st2" d="M-172.8,82.1l10-38.6l-39.3-9.7c-0.3,1-0.9,1.8-1.7,2.3l3.3,5.4l24.8,41.1c0.5-0.3,1.1-0.4,1.7-0.5
		C-173.6,82-173.1,82-172.8,82.1z"/>
	<path class="st2" d="M-117.5,198.7l-51.8-103.1l-51.8,56.3c0.7,0.7,1.2,1.7,1.2,2.8c0.1,0.7,0,1.3-0.3,1.9l100.8,44
		C-118.9,199.8-118.3,199.2-117.5,198.7z"/>
	<path class="st2" d="M-171.8,90.7c-0.4,0.2-0.9,0.3-1.4,0.3c-1,0.1-2-0.2-2.8-0.7l-44.8,60.5l51.2-55.7L-171.8,90.7z"/>
	<path class="st2" d="M304.6-2.5c-0.2-0.5-0.4-1-0.4-1.6c-0.1-1,0.2-2,0.7-2.8L229.1-62c-0.3,0.4-0.8,0.8-1.2,1l39.5,79.7L304.6-2.5
		z"/>
	<path class="st2" d="M304.9-2l-37.3,21.3l26.9,54.3c0.4-0.2,0.9-0.3,1.4-0.3c0.3,0,0.5,0,0.7,0l11.1-73.4
		C306.5-0.3,305.5-1,304.9-2z"/>
	<path class="st2" d="M207.4,53l59.4-33.9l-39.5-79.8c-0.4,0.2-0.9,0.3-1.4,0.3c-0.3,0-0.6,0-0.9,0L204.7,51.1
		C205.8,51.4,206.8,52,207.4,53z"/>
	<path class="st2" d="M207.7,53.5c0.2,0.5,0.4,1,0.4,1.6c0,0.2,0,0.3,0,0.5l83.7,20.9c0.3-1.1,1.1-2,2-2.5l-26.9-54.3L207.7,53.5z"
		/>
	<path class="st2" d="M308.3,0l-11.1,73.4c1.1,0.2,2,0.9,2.7,1.8l57-36.2c-0.3-0.6-0.6-1.2-0.6-1.9c-0.1-1.1,0.2-2.1,0.8-2.9
		L312-1.5c-0.7,0.8-1.8,1.4-3,1.5C308.8,0,308.5,0,308.3,0z"/>
	<path class="st2" d="M208.1,56.2c-0.1,0.5-0.2,1-0.5,1.4l31.8,43.7l52.5-22c-0.1-0.4-0.2-0.7-0.2-1.1c0-0.4,0-0.8,0.1-1.2
		l-51.5-12.8L208.1,56.2z"/>
	<path class="st2" d="M292.2,79.8l-52.4,22l41.3,56.8c0.6-0.4,1.3-0.6,2.1-0.7c0.3,0,0.5,0,0.7,0l11.3-75.7
		C293.9,82,292.8,81.1,292.2,79.8z"/>
	<path class="st2" d="M145.6,54.8C145.6,54.8,145.6,54.8,145.6,54.8L182.1,0L179-8.1c-0.3,0.1-0.6,0.2-1,0.2
		c-0.7,0.1-1.4-0.1-2.1-0.3L145.6,54.8z"/>
	<path class="st2" d="M202.3,51.1c0.3-0.1,0.6-0.2,1-0.2c0.3,0,0.6,0,0.9,0l20.3-111.5c-0.4-0.1-0.8-0.3-1.2-0.5L182.7,0L202.3,51.1
		z"/>
	<path class="st2" d="M143,54.2c0.7-0.1,1.4,0.1,2.1,0.3l30.4-63c-1.3-0.7-2.2-2-2.3-3.6c0,0,0,0,0,0L24.8-11c0,0.8-0.2,1.6-0.5,2.2
		l115.2,65.3C140.1,55.2,141.4,54.3,143,54.2z"/>
	<path class="st2" d="M30.2,38.7c2.5-0.2,4.7,1.7,4.9,4.2c0,0.2,0,0.5,0,0.7l87.2,12.3l16.5,2.3c0-0.4,0.2-0.8,0.3-1.1L23.9-8.3
		c-0.7,0.9-1.7,1.6-2.9,1.8l9,45.2C30.1,38.7,30.2,38.7,30.2,38.7z"/>
	<path class="st2" d="M26.5,41.4c0.6-1.2,1.6-2.2,3-2.5l-9-45.3c-1,0-1.9-0.2-2.6-0.7L-4.9,29.6L26.5,41.4z"/>
	<path class="st2" d="M-21.9,23.2l16.4,6.2L17.4-7.4c-0.3-0.2-0.5-0.5-0.7-0.8l-39.2,28.1c0.4,0.6,0.7,1.3,0.7,2.1
		C-21.8,22.4-21.8,22.8-21.9,23.2z"/>
	<path class="st2" d="M222.8-61.3C222.8-61.3,222.8-61.3,222.8-61.3l-41.9,45.7c0.7,0.7,1.2,1.7,1.3,2.8c0.2,2-0.9,3.7-2.6,4.5
		l3,7.7L222.8-61.3z"/>
	<path class="st3" d="M-158.3,265.3c2.5-0.2,4.4-2.4,4.2-4.9c0-0.2,0-0.4-0.1-0.6l139-38.8l0.1,0.2l0.2-0.3l1.1-0.3l-0.8-0.1
		l51-68.3c0.8,0.5,1.8,0.8,2.8,0.7c2-0.2,3.6-1.6,4.1-3.5l66.4,10.8c0,0.3,0,0.5,0,0.8c0.2,2.5,2.4,4.4,4.9,4.2
		c2.5-0.2,4.4-2.4,4.2-4.9c0-0.5-0.2-0.9-0.3-1.4l82.1-40.4c0.8,1.5,2.5,2.5,4.3,2.3c1.5-0.1,2.7-0.9,3.4-2l71.1,41.6
		c-0.4,0.7-0.5,1.5-0.5,2.4c0.2,2.5,2.4,4.4,4.9,4.2c2.5-0.2,4.4-2.4,4.2-4.9c-0.2-2-1.7-3.7-3.6-4.1l11.3-75.7c0.2,0,0.5,0,0.7,0
		c2.5-0.2,4.4-2.4,4.2-4.9c-0.1-0.7-0.2-1.3-0.5-1.8l57-36.2c0.9,1.2,2.4,1.9,3.9,1.7c2.5-0.2,4.4-2.4,4.2-4.9
		c-0.2-2.5-2.4-4.4-4.9-4.2c-1.2,0.1-2.3,0.7-3,1.5l-45-35.6c0.6-0.8,0.9-1.9,0.8-2.9c-0.2-2.5-2.4-4.4-4.9-4.2
		c-1.3,0.1-2.4,0.7-3.1,1.6l-75.8-55.1c0.5-0.8,0.8-1.8,0.7-2.8c-0.2-2.5-2.4-4.4-4.9-4.2c-2.5,0.2-4.4,2.4-4.2,4.9
		c0.1,1.1,0.6,2,1.3,2.8L180.5-16c-0.9-0.7-2-1.1-3.2-1c-2.3,0.2-4,2-4.2,4.3L24.7-11.6l0,0.3c0,0,0,0,0,0c-0.2-2.5-2.4-4.4-4.9-4.2
		c-2.5,0.2-4.4,2.4-4.2,4.9c0.1,0.7,0.3,1.3,0.6,1.9l-39.2,28.1c-0.2-0.2-0.3-0.3-0.5-0.5l66.2-88.7c0.8,0.5,1.8,0.8,2.8,0.7
		c2.5-0.2,4.4-2.4,4.2-4.9c-0.2-2.5-2.4-4.4-4.9-4.2c-1.6,0.1-2.9,1-3.6,2.3l-114.1-53.7c0.2-0.6,0.3-1.2,0.3-1.9
		c-0.2-2.5-2.4-4.4-4.9-4.2c-2.3,0.2-4,2-4.2,4.2l-59.6,1.8c-0.2-2.5-2.4-4.3-4.9-4.1c-2.5,0.2-4.4,2.4-4.2,4.9
		c0.1,1.8,1.3,3.2,2.8,3.8L-162-81.1c-0.4-0.1-0.9-0.1-1.4-0.1c-2.5,0.2-4.4,2.4-4.2,4.9c0.2,2.5,2.4,4.4,4.9,4.2c0,0,0,0,0.1,0
		l12.1,60.4c-2.2,0.5-3.7,2.5-3.5,4.8c0.1,0.7,0.3,1.4,0.6,2l-49.4,34.4c-0.9-1.1-2.3-1.8-3.9-1.7c-2.5,0.2-4.4,2.4-4.2,4.9
		c0.2,2.5,2.4,4.4,4.9,4.2c0.6,0,1.2-0.2,1.7-0.5l28.1,46.5c-1.3,0.9-2.1,2.4-1.9,4.1c0.1,1.3,0.7,2.3,1.6,3.1l-45.4,61.3
		c-0.8-0.5-1.8-0.8-2.8-0.7c-2.5,0.2-4.4,2.4-4.2,4.9c0.2,2.5,2.4,4.4,4.9,4.2c1.6-0.1,3-1.1,3.7-2.4l100.8,44
		c-0.2,0.6-0.3,1.2-0.3,1.9c0,0.2,0,0.4,0.1,0.5l-36.6,53.3c-0.8-0.5-1.7-0.7-2.7-0.6c-2.5,0.2-4.4,2.4-4.2,4.9
		C-162.9,263.6-160.7,265.5-158.3,265.3z M-15.6,220.4l-95.2-17.2c0-0.3,0-0.6,0-0.9c0-0.3-0.1-0.6-0.2-0.9l71.5-25.1L-15.6,220.4z
		 M-131.9,55c0.8,0.7,1.9,1,3,1l13.1,142l-0.1,0.2c-0.4,0.1-0.7,0.2-1,0.3l-51.9-103.3L-131.9,55z M-132.8,54.1l-37.4,29.4
		c-0.5-0.6-1.2-1-2-1.3l10-38.6l28.7,7.1c-0.1,0.4-0.1,0.8-0.1,1.2C-133.5,52.7-133.2,53.4-132.8,54.1z M-128.4,56
		c0.6-0.1,1.2-0.3,1.7-0.6l55.6,78.2l-41.9,65.2c-0.7-0.4-1.5-0.6-2.3-0.6L-128.4,56z M-126.2,48l40.7-55.1c0.8,0.5,1.8,0.8,2.8,0.7
		c0.4,0,0.9-0.1,1.2-0.3l17.9,39.3L-124.8,50C-125.1,49.2-125.5,48.5-126.2,48z M-111.5,200.2l53.3-41.2c0.9,1,2.3,1.6,3.8,1.5
		c2.3-0.2,4-2,4.2-4.3l10.6,19.6l-71.4,25.1C-111.2,200.6-111.3,200.4-111.5,200.2z M-112.5,199l41.7-65l13.1,18.4
		c-1.1,0.9-1.8,2.3-1.7,3.9c0.1,0.8,0.3,1.5,0.8,2.2l-53,41l-0.2,0.2C-112,199.4-112.3,199.2-112.5,199z M-55.2,151.4
		c-0.7,0.1-1.4,0.3-2,0.7l-13.2-18.6l28.8-44.9c0.3,0.2,0.6,0.3,0.9,0.4l-13.4,62.5C-54.5,151.4-54.8,151.4-55.2,151.4z M-40.1,89.1
		c0.3,0,0.7,0.1,1,0c1.3-0.1,2.4-0.7,3.1-1.6l20.1,16.5l-36.5,48.2c-0.4-0.3-0.8-0.4-1.3-0.6L-40.1,89.1z M-35.6,87.1
		c0.5-0.8,0.8-1.8,0.7-2.8c0-0.6-0.2-1.2-0.5-1.7l62.2-36.8c0.2,0.3,0.5,0.6,0.8,0.9l-43.1,56.9L-35.6,87.1z M-27.4,26.8l-11.9,53.3
		c-0.2,0-0.3,0-0.5,0c-0.4,0-0.9,0.1-1.2,0.3L-62.7,33l32-9.1C-30.1,25.4-28.9,26.5-27.4,26.8z M-35.8,81.9c-0.3-0.4-0.6-0.7-1-0.9
		l31.6-50.9l31.5,11.8c-0.2,0.5-0.2,1.1-0.2,1.7c0,0.6,0.2,1.2,0.5,1.7L-35.8,81.9z M-37.3,80.6c-0.4-0.2-0.9-0.4-1.4-0.5l11.9-53.3
		c0.3,0,0.5,0,0.8,0c1.9-0.2,3.4-1.4,3.9-3.1l16.3,6.1L-37.3,80.6z M-30.9,22.8c0,0.2,0,0.4,0.1,0.6l-32.1,9.1l-18-39.4
		c0.6-0.3,1.2-0.8,1.6-1.4l48.9,28.7C-30.8,21.1-31,21.9-30.9,22.8z M-63.3,33.1l21.7,47.5c-0.9,0.5-1.6,1.2-2,2.1l-81.2-30
		c0.2-0.5,0.2-1.1,0.2-1.7c0-0.2,0-0.4-0.1-0.6L-63.3,33.1z M-43.8,83.4c-0.2,0.5-0.2,1.1-0.2,1.7c0.1,1.4,0.8,2.5,1.8,3.3
		L-70.8,133l-55.4-78c0.5-0.4,1-1,1.3-1.7L-43.8,83.4z M36.1,151.9L-15,220.2l-23.9-44.1l73.7-25.9
		C35.1,150.9,35.6,151.4,36.1,151.9z M34.7,149.6l-73.8,25.9l-10.7-19.7l84.4-6.8C34.6,149.3,34.6,149.5,34.7,149.6z M34.5,148.5
		l-84.8,6.8c-0.2-1.1-0.7-2.1-1.5-2.8l36.5-48.2l50.7,41.4C34.8,146.6,34.5,147.5,34.5,148.5z M38.4,143.9c-1.1,0.2-2,0.7-2.7,1.4
		L-15,103.9L28.1,47c0.7,0.5,1.6,0.8,2.6,0.7L38.4,143.9z M31.2,47.7c0.6-0.1,1.2-0.3,1.7-0.6L80,113l-37.7,32.3
		c-0.8-0.9-2-1.4-3.3-1.4L31.2,47.7z M33.5,46.7c0.8-0.6,1.4-1.6,1.6-2.6l103.8,14.6c0,0.1,0,0.2,0,0.3c0.1,1,0.5,1.9,1.1,2.6
		l-59.5,50.9L33.5,46.7z M109.9,159.7l-66.4-10.8c0-0.3,0-0.5,0-0.8c-0.1-0.9-0.4-1.7-0.9-2.4l37.7-32.2l31.2,43.7
		C110.7,157.8,110.2,158.7,109.9,159.7z M115.3,156.2c-0.4-0.1-0.9-0.1-1.3-0.1c-0.7,0.1-1.4,0.3-2,0.7l-31.2-43.7l59.5-51
		c0.5,0.4,1,0.7,1.6,0.9l-8.1,28.5L115.3,156.2z M115.9,156.4l1.5-5.2l25.2-88c0.4,0.1,0.8,0.1,1.2,0.1c1-0.1,1.9-0.5,2.5-1
		l29.3,27.3l-58.4,67.5C116.7,156.8,116.3,156.6,115.9,156.4z M146.1,55.1l36.2-54.5l19.4,50.7c-1.5,0.7-2.6,2.2-2.6,4l-51.2,3.2
		c0-0.1,0-0.1,0-0.2C147.7,57,147.1,55.9,146.1,55.1z M204.9,111.8l0.5-30.6l0.4-21.8c0.6-0.3,1.1-0.8,1.5-1.3l31.6,43.4l-30.3,12.7
		C207.9,112.9,206.5,112,204.9,111.8z M199.1,55.9c0.2,1.6,1.1,2.9,2.4,3.5l-25.6,29.6l-29.2-27.3c0.7-0.7,1.1-1.7,1.2-2.7
		L199.1,55.9z M200.1,116.7c0,0.5,0.1,0.9,0.3,1.3l-82.1,40.4c-0.2-0.4-0.5-0.7-0.7-1l58.4-67.5l25.2,23.5
		C200.4,114.3,200,115.5,200.1,116.7z M201.5,113l-25.2-23.5l25.8-29.8c0.6,0.2,1.2,0.3,1.9,0.3c0.4,0,0.8-0.1,1.2-0.3l-0.4,27.4
		l-0.4,24.7c0,0-0.1,0-0.1,0C203.2,111.9,202.2,112.4,201.5,113z M279.8,159.9l-71.1-41.6c0.3-0.7,0.5-1.5,0.4-2.3
		c0-0.4-0.1-0.8-0.3-1.2l30.4-12.8l41.4,56.9C280.3,159.2,280,159.5,279.8,159.9z M283.9,157.9c-0.2,0-0.5,0-0.7,0
		c-0.8,0.1-1.5,0.3-2.1,0.7l-41.3-56.8l52.4-22c0.6,1.2,1.7,2.1,3.1,2.4L283.9,157.9z M291.7,78.2c0,0.4,0.1,0.8,0.2,1.1l-52.5,22
		l-31.8-43.7c0.2-0.4,0.4-0.9,0.5-1.4l32.1,8L291.8,77C291.7,77.4,291.7,77.8,291.7,78.2z M291.9,76.4l-83.7-20.9c0-0.2,0-0.3,0-0.5
		c0-0.6-0.2-1.1-0.4-1.6l59.4-33.9L294,73.9C293,74.5,292.2,75.4,291.9,76.4z M295.9,73.3c-0.5,0-1,0.2-1.4,0.3l-26.9-54.3L304.9-2
		c0.6,1,1.7,1.7,2.8,1.9l-11.1,73.4C296.4,73.3,296.1,73.3,295.9,73.3z M312-1.5l45,35.6c-0.6,0.8-0.9,1.9-0.8,2.9
		c0.1,0.7,0.3,1.4,0.6,1.9l-57,36.2c-0.6-0.9-1.6-1.5-2.7-1.8L308.3,0c0.2,0,0.5,0,0.7,0C310.2-0.1,311.3-0.6,312-1.5z M229.1-62
		l75.8,55.1c-0.5,0.8-0.8,1.8-0.7,2.8c0,0.6,0.2,1.1,0.4,1.6l-37.3,21.3L227.8-61C228.3-61.2,228.7-61.6,229.1-62z M225.1-60.4
		c0.3,0,0.6,0,0.9,0c0.5,0,1-0.2,1.4-0.3l39.5,79.8L207.4,53c-0.6-0.9-1.6-1.6-2.7-1.9L225.1-60.4z M224.5-60.5L204.2,51
		c-0.3,0-0.6,0-0.9,0c-0.3,0-0.7,0.1-1,0.2L182.7,0l40.6-61C223.7-60.8,224.1-60.6,224.5-60.5z M182.1-12.8c-0.1-1.1-0.5-2-1.3-2.8
		l41.8-45.8c0,0,0.1,0,0.1,0.1L182.5-0.6l-3-7.7C181.2-9.1,182.3-10.9,182.1-12.8z M178-7.9c0.3,0,0.7-0.1,1-0.2l3.1,8.1l-36.5,54.8
		c0,0,0,0,0,0l30.4-63C176.6-8,177.3-7.9,178-7.9z M24.8-11l148.3-1.1c0,0,0,0,0,0c0.1,1.6,1,2.9,2.3,3.6l-30.4,63
		c-0.6-0.3-1.3-0.4-2.1-0.3c-1.6,0.1-2.9,1-3.6,2.3L24.2-8.8C24.6-9.4,24.8-10.2,24.8-11z M23.9-8.3L139.1,57
		c-0.1,0.4-0.2,0.7-0.3,1.1l-16.5-2.3L35.1,43.6c0-0.2,0-0.5,0-0.7c-0.2-2.5-2.4-4.4-4.9-4.2c-0.1,0-0.2,0-0.2,0L21-6.5
		C22.2-6.7,23.2-7.4,23.9-8.3z M17.8-7.1c0.8,0.5,1.7,0.7,2.6,0.7l9,45.3c-1.3,0.4-2.4,1.3-3,2.5L-4.9,29.6L17.8-7.1z M-22.6,19.9
		L16.6-8.2c0.2,0.3,0.5,0.6,0.7,0.8L-5.5,29.4l-16.4-6.2c0.1-0.4,0.1-0.8,0.1-1.2C-21.9,21.2-22.2,20.5-22.6,19.9z M-73.1-128.9
		L41-75.2c-0.2,0.6-0.4,1.3-0.3,2c0.1,1.2,0.7,2.3,1.6,3.1l-66.2,88.7c-0.8-0.5-1.8-0.8-2.8-0.7c-0.3,0-0.5,0.1-0.8,0.1l-47.9-144.8
		C-74.4-127.2-73.6-127.9-73.1-128.9z M-77.1-126.4c0.1,0,0.2,0,0.4,0c0.3,0,0.5-0.1,0.8-0.1l47.9,144.8c-0.8,0.3-1.5,0.9-2,1.7
		L-79-8.9c0.4-0.7,0.5-1.5,0.5-2.4c-0.2-2.2-1.9-3.9-4-4.1L-77.1-126.4z M-158.5-77c-0.1-1.8-1.3-3.3-2.9-3.9l14.6-43.8
		c0.5,0.1,1,0.2,1.5,0.1c2.3-0.2,4.1-2.1,4.2-4.4l59.6-1.8c0,0,0,0.1,0,0.1c0.2,2.2,1.9,3.9,3.9,4.1l-5.4,111c-0.1,0-0.2,0-0.3,0
		c-1.2,0.1-2.2,0.6-2.9,1.4l-73.1-59.9C-158.8-74.8-158.5-75.9-158.5-77z M-161.8-72.3c0.7-0.2,1.4-0.6,1.9-1.1l73.1,59.9
		c-0.6,0.8-0.9,1.9-0.8,3c0.1,1.3,0.7,2.4,1.6,3.1l-40.7,55.1c-0.8-0.5-1.8-0.8-2.8-0.7c-0.2,0-0.3,0-0.5,0.1L-161.8-72.3z
		 M-161.1-67.5l15.4,57.9c-0.9-1.4-2.5-2.3-4.2-2.2c0,0,0,0,0,0L-161.1-67.5z M-145-7.2l13.5,50.8l-16.1-46.8
		C-146.1-3.9-145.1-5.4-145-7.2z M-150.3-2.8c0.3,0.1,0.7,0.1,1.1,0c0.4,0,0.7-0.1,1-0.2l17.3,50.3c-1.2,0.5-2.2,1.5-2.6,2.8
		l-28.7-7.1L-150.3-2.8z M-201.9,31.9c-0.1-0.7-0.3-1.4-0.6-2l49.4-34.4c0.6,0.7,1.4,1.3,2.3,1.5l-11.8,45.8l-39.3-9.8
		C-201.8,32.7-201.8,32.3-201.9,31.9z M-200.5,41.4l-3.3-5.4c0.8-0.6,1.4-1.4,1.7-2.3l39.3,9.7l-10,38.6c-0.4-0.1-0.8-0.1-1.2-0.1
		c-0.6,0-1.2,0.2-1.7,0.5L-200.5,41.4z M-169.1,86.2c-0.1-0.8-0.3-1.6-0.8-2.2l37.4-29.4c0,0,0.1,0.1,0.1,0.1l-36.8,40l-2.1-4.2
		C-169.9,89.6-168.9,87.9-169.1,86.2z M-176.1,90.3c0.8,0.5,1.8,0.8,2.8,0.7c0.5,0,1-0.2,1.4-0.3l2.2,4.4l-51.2,55.7L-176.1,90.3z
		 M-220.1,156.6c0.2-0.6,0.3-1.2,0.3-1.9c-0.1-1.1-0.5-2-1.2-2.8l51.8-56.3l51.8,103.1c-0.7,0.4-1.3,1.1-1.7,1.8L-220.1,156.6z
		 M-155.8,257.2l36.3-53c0.7,1.8,2.5,3.1,4.6,2.9c2-0.2,3.6-1.6,4-3.4l94.5,17.1l-138,38.5C-154.6,258.5-155.1,257.8-155.8,257.2z"
		/>
</g>
<g class="st1">
	<path class="st2" d="M767.7-86.8c-0.8-0.6-1.5-1.6-1.7-2.7l-84.2,12.1c0.1,1-0.2,2-0.7,2.8l53.2,38.2L767.7-86.8z"/>
	<path class="st2" d="M694.5,23.6L734-35.9l-53.2-38.2c-0.6,0.8-1.5,1.3-2.6,1.6L691.9,23C692.9,22.9,693.8,23.2,694.5,23.6z"/>
	<path class="st2" d="M846.6,9.9c-0.1-0.6,0-1.1,0.1-1.7l-82.9-24.8c-0.3,0.9-1,1.7-1.9,2.3l24.6,46l60.2-21.2
		C846.7,10.3,846.7,10.1,846.6,9.9z"/>
	<path class="st2" d="M726.6-152l-46.6,71.4c0.6,0.4,1,1,1.3,1.6l71.9-30.5L726.6-152z"/>
	<path class="st2" d="M848,5.9l-60.2-74.3L762-22c1.1,0.7,1.8,1.8,2,3.2c0.1,0.6,0,1.1-0.1,1.7l82.9,24.8C847.1,7,847.5,6.4,848,5.9
		z"/>
	<path class="st2" d="M753.5-109l-72,30.5c0.1,0.2,0.1,0.4,0.2,0.6l83.8-12.1L753.5-109z"/>
	<path class="st2" d="M583.3,18.5c0,0.1,0,0.2,0,0.3l104.5,8c0.1-1,0.7-2,1.4-2.7l-51-62.8L582,16C582.7,16.7,583.1,17.5,583.3,18.5
		z"/>
	<path class="st2" d="M674.2-73.6L638.6-39l51.1,62.8c0.5-0.4,1.1-0.6,1.7-0.7l-13.8-95.5C676.3-72.3,675.1-72.7,674.2-73.6z"/>
	<path class="st2" d="M514.5-30l1.2,24.7l1.3,27.4c0.4-0.2,0.8-0.3,1.2-0.3c0.7-0.1,1.3,0,1.9,0.1l23.8-31.3l-26.6-21.9
		c-0.7,0.7-1.6,1.2-2.6,1.3C514.6-30,514.6-30,514.5-30z"/>
	<path class="st2" d="M673.8-74c-0.5-0.6-0.9-1.4-1-2.3c0-0.3,0-0.5,0-0.8l-66.9-6.6c-0.2,1-0.7,1.9-1.4,2.6l33.9,41.6L673.8-74z"/>
	<path class="st2" d="M598.3-81c-0.3-0.3-0.6-0.6-0.8-0.9l-79.4,45.5c0.2,0.4,0.3,0.8,0.4,1.3c0.2,1.2-0.2,2.4-0.8,3.3l26.6,21.9
		L598.3-81z"/>
	<path class="st2" d="M575.3,16.3L544.4-9.1l-23.7,31.2c1.3,0.6,2.4,1.8,2.6,3.4l51-6.4C574.3,18,574.7,17.1,575.3,16.3z"/>
	<path class="st2" d="M574.3,19.7l-50.9,6.4c0.1,1.7-0.9,3.3-2.4,4.1l22.6,49.4l32.7-56.7c-1-0.7-1.8-1.8-2-3.1
		C574.3,19.8,574.3,19.7,574.3,19.7z"/>
	<path class="st2" d="M579.9,14.8c0.6,0.2,1.2,0.4,1.7,0.8L637.8-39l-33.9-41.7c-0.6,0.4-1.2,0.7-2,0.8c-0.5,0.1-0.9,0.1-1.3,0
		l-14.4,65.7L579.9,14.8z"/>
	<path class="st2" d="M575.7,15.9c0.7-0.6,1.5-1.1,2.5-1.2c0.4-0.1,0.8-0.1,1.2,0l19.5-89.5L600-80c-0.4-0.1-0.9-0.3-1.2-0.6
		L544.7-9.5L575.7,15.9z"/>
	<path class="st2" d="M480.7-17.5L515,23.8c0.4-0.6,0.8-1.1,1.4-1.4l-1-21.8L514-30c-1.6,0-3-0.9-3.8-2.2L480.7-17.5z"/>
	<path class="st2" d="M825.8-136.7L788.1-69l60.4,74.5c0.5-0.3,1-0.6,1.6-0.7l-22-141C827.3-136.2,826.5-136.4,825.8-136.7z"/>
	<path class="st2" d="M806.7,70.6l-20.4-38.2l-31.5,11.1c0.1,0.2,0.1,0.4,0.1,0.6c0.1,0.9,0,1.7-0.3,2.4l50.6,25.6
		C805.6,71.5,806.1,70.9,806.7,70.6z"/>
	<path class="st2" d="M786.9,32.2l20.4,38.1c0.4-0.2,0.8-0.3,1.2-0.4c1-0.1,2,0.1,2.8,0.5l37.1-57.6c-0.6-0.5-1.1-1.1-1.5-1.9
		L786.9,32.2z"/>
	<path class="st2" d="M829.8-136.7c-0.3,0.2-0.6,0.3-1,0.4l-0.1,0.2l22,140.9c1.1-0.1,2.2,0.2,3,0.8l34.4-42.4L829.8-136.7z"/>
	<path class="st2" d="M823.5-139.3c-0.1-0.3-0.2-0.6-0.2-0.8c0-0.3-0.1-0.6,0-0.9l-96.1-11.2l26.6,42.5L823.5-139.3z"/>
	<path class="st2" d="M754.1-109.2l11.8,18.9c0-2.2,1.6-4.2,3.9-4.5c1.5-0.2,2.9,0.3,3.8,1.3l50.6-44.5c-0.2-0.2-0.3-0.4-0.4-0.7
		L754.1-109.2z"/>
	<path class="st2" d="M855.6,9.7l29.1,5.3l7.5-39.2c-0.8-0.2-1.5-0.6-2-1.2L854.7,6.4c0.5,0.6,0.8,1.3,0.9,2.1
		C855.7,9,855.7,9.4,855.6,9.7z"/>
	<path class="st2" d="M695,23.9c0.3,0.2,0.6,0.5,0.8,0.8l59.8-40.7c-0.3-0.5-0.5-1.1-0.6-1.7c-0.1-1,0.1-2,0.5-2.8l-21.1-15.2
		L695,23.9z"/>
	<path class="st2" d="M696.8,26.9c0.1,0.6,0,1.1-0.1,1.7l32.2,9.8l28.3-52.7c-0.4-0.2-0.7-0.5-1-0.9l-59.9,40.5
		C696.5,25.7,696.7,26.3,696.8,26.9z"/>
	<path class="st2" d="M749.8,40.2c0.3,0,0.5,0,0.8,0l8.5-53.9c-0.5,0-1-0.2-1.5-0.4l-28.2,52.6l16.6,5.1
		C746.5,41.9,747.9,40.5,749.8,40.2z"/>
	<path class="st2" d="M824.4-137.4L774-93.1c0.5,0.6,0.8,1.3,0.9,2.1c0.2,1.5-0.4,3-1.4,4l14.2,17.6l37.6-67.5
		c-0.3-0.2-0.5-0.4-0.7-0.6L824.4-137.4z"/>
	<path class="st2" d="M760.6-22.6c0.3,0.1,0.6,0.2,1,0.3l25.9-46.6L773-86.7c-0.6,0.4-1.2,0.7-2,0.8c-0.3,0.1-0.7,0.1-1,0
		L760.6-22.6z"/>
	<path class="st2" d="M734.8-36l21.1,15.2c0.7-1,1.8-1.6,3-1.8c0.3-0.1,0.7-0.1,1,0l9.5-63.2c-0.5-0.1-0.9-0.3-1.3-0.5L734.8-36z"/>
	<path class="st2" d="M786,31.9l-24.6-46c-0.4,0.2-0.8,0.3-1.2,0.4c-0.2,0-0.3,0-0.5,0l-8.5,53.9c1.5,0.3,2.8,1.3,3.4,2.7L786,31.9z
		"/>
	<path class="st2" d="M870.7,66.8c-0.1-1.7,0.9-3.3,2.3-4.1L854,16.9L870.7,66.8z"/>
	<path class="st2" d="M871.5,69.2l19,56.8L876,71.1c0,0,0,0,0,0C874.2,71.3,872.5,70.5,871.5,69.2z"/>
	<path class="st2" d="M876.3,62.2c0.9,0.2,1.7,0.7,2.4,1.4l47.1-37.5c-0.4-0.6-0.7-1.2-0.8-1.9c-0.1-0.4-0.1-0.8,0-1.2l-39.8-7.3
		L876.3,62.2z"/>
	<path class="st2" d="M751.1,49.2c-1,0.1-2-0.1-2.9-0.5l-60.5,92.7c0.9,0.7,1.6,1.7,1.8,3c0.1,0.7,0,1.4-0.2,2l117.3,46.4
		c0.4-1,1.2-1.8,2.2-2.3L751.9,49C751.6,49.1,751.4,49.2,751.1,49.2z"/>
	<path class="st2" d="M804.6,75.1c-0.1-0.9,0-1.7,0.3-2.4L754.4,47c-0.5,0.8-1.1,1.4-1.9,1.8l57,141.5c0.2-0.1,0.5-0.1,0.8-0.2
		c0.1,0,0.2,0,0.4,0l-1.6-111.1C806.8,78.8,804.9,77.2,804.6,75.1z"/>
	<path class="st2" d="M809.8,78.9c-0.1,0-0.2,0-0.3,0l1.6,111.1c2.1,0.1,3.9,1.7,4.2,3.9c0,0,0,0.1,0,0.1l59.3-5.5
		c-0.1-2.3,1.6-4.3,3.9-4.6c0.5-0.1,1-0.1,1.5,0l11.8-44.7c-1.6-0.5-2.9-1.9-3.2-3.7c-0.2-1.2,0.1-2.3,0.7-3.2l-76.8-55.2
		C811.9,78.1,810.9,78.7,809.8,78.9z"/>
	<path class="st2" d="M851.8,13.7c-1,0.1-2-0.1-2.8-0.5l-37.1,57.6c0.9,0.7,1.6,1.7,1.8,3c0.2,1.1-0.1,2.2-0.6,3l76.8,55.2
		c0.5-0.6,1.1-1,1.8-1.3L852.3,13.6C852.1,13.6,851.9,13.7,851.8,13.7z"/>
	<path class="st2" d="M855.5,10.3c-0.3,1.3-1.2,2.4-2.4,3l20.5,49.1c0.3-0.1,0.7-0.2,1-0.3c0.4-0.1,0.7-0.1,1.1,0l8.9-46.5
		L855.5,10.3z"/>
	<path class="st2" d="M509.9-32.7c-0.2-0.4-0.3-0.8-0.3-1.2c-0.1-0.8,0-1.6,0.3-2.3l-73.6-37c-0.2,0.4-0.5,0.7-0.8,1L480.3-18
		L509.9-32.7z"/>
	<path class="st2" d="M823.3-141.6c0.3-1.9,1.8-3.4,3.8-3.7c2-0.3,3.9,0.8,4.8,2.6l32.9-55.1c-0.7-0.5-1.3-1.2-1.6-2l-135.3,47.1
		L823.3-141.6z"/>
	<path class="st2" d="M854.2,5.9C854.2,5.9,854.3,6,854.2,5.9l35.6-31.6c-0.5-0.6-0.8-1.3-0.9-2.1c-0.3-1.8,0.6-3.5,2-4.4l-2.4-4.1
		L854.2,5.9z"/>
	<path class="st2" d="M892.8-24.1l-7.5,39.2l39.8,7.3c0.2-1,0.8-1.8,1.6-2.4l-3.6-5.2l-27.4-39.4c-0.5,0.3-1.1,0.5-1.7,0.6
		C893.6-24,893.2-24,892.8-24.1z"/>
	<path class="st2" d="M830.3-137l58.2,99.6l48.1-59.4c-0.7-0.7-1.3-1.6-1.4-2.7c-0.1-0.7,0-1.3,0.1-1.9l-103.4-37.5
		C831.6-138.2,831-137.5,830.3-137z"/>
	<path class="st2" d="M891.3-32.6c0.4-0.2,0.9-0.4,1.4-0.4c1-0.1,2,0.1,2.9,0.5l40.9-63.2l-47.6,58.8L891.3-32.6z"/>
	<path class="st2" d="M421.7,90.5c0.3,0.5,0.5,1,0.5,1.6c0.1,1-0.1,2-0.5,2.8l79.1,50.2c0.3-0.4,0.7-0.8,1.1-1.1l-44.4-77.1
		L421.7,90.5z"/>
	<path class="st2" d="M421.4,90l35.9-23.6L427,13.8c-0.4,0.2-0.9,0.4-1.4,0.4c-0.3,0-0.5,0-0.7,0l-6.4,73.9
		C419.7,88.4,420.7,89,421.4,90z"/>
	<path class="st2" d="M515.2,29l-57.1,37.6l44.4,77.1c0.4-0.2,0.9-0.4,1.4-0.4c0.3,0,0.6-0.1,0.9,0L518,30.7
		C516.9,30.5,515.9,29.9,515.2,29z"/>
	<path class="st2" d="M514.9,28.5c-0.3-0.5-0.5-1-0.5-1.6c0-0.2,0-0.3,0-0.5l-84.9-15.5c-0.3,1.1-1,2-1.9,2.7L457.8,66L514.9,28.5z"
		/>
	<path class="st2" d="M417.9,88.2l6.4-73.9c-1.1-0.2-2.1-0.7-2.8-1.6L367,52.4c0.4,0.6,0.6,1.2,0.7,1.9c0.2,1.1-0.1,2.1-0.6,3
		l47.1,32.7c0.7-0.9,1.7-1.5,2.9-1.7C417.4,88.2,417.6,88.2,417.9,88.2z"/>
	<path class="st2" d="M514.3,25.8c0-0.5,0.2-1,0.4-1.4l-34.5-41.6L429.2,8c0.1,0.3,0.3,0.7,0.3,1.1c0.1,0.4,0.1,0.8,0,1.2l52.2,9.6
		L514.3,25.8z"/>
	<path class="st2" d="M428.9,7.5l50.9-25.2L435-71.8c-0.6,0.4-1.3,0.7-2,0.8c-0.2,0-0.5,0-0.7,0l-6.5,76.2
		C427.1,5.5,428.2,6.3,428.9,7.5z"/>
	<path class="st2" d="M576.8,23.3C576.8,23.2,576.8,23.2,576.8,23.3l-33,57l3.6,7.9c0.3-0.1,0.6-0.2,1-0.3c0.7-0.1,1.4,0,2.1,0.2
		L576.8,23.3z"/>
	<path class="st2" d="M520.4,30.5c-0.3,0.1-0.6,0.2-1,0.3c-0.3,0-0.6,0.1-0.9,0l-13.2,112.5c0.4,0.1,0.8,0.2,1.2,0.4l36.7-63.4
		L520.4,30.5z"/>
	<path class="st2" d="M579.4,23.7c-0.7,0.1-1.4,0-2.1-0.2L551,88.3c1.3,0.6,2.3,1.9,2.5,3.4c0,0,0,0,0,0l148-10.5
		c-0.1-0.8,0.1-1.6,0.4-2.3L582.9,21.1C582.3,22.4,581,23.4,579.4,23.7z"/>
	<path class="st2" d="M692.9,32c-2.5,0.4-4.8-1.4-5.1-3.8c0-0.2,0-0.5,0-0.7l-87.8-6.8l-16.6-1.3c0,0.4-0.1,0.8-0.2,1.1l119.1,57.9
		c0.6-1,1.6-1.7,2.7-2L693.2,32C693.1,32,693,32,692.9,32z"/>
	<path class="st2" d="M696.5,29.1c-0.5,1.3-1.5,2.3-2.8,2.7l11.8,44.6c0.9-0.1,1.9,0.1,2.6,0.5l20.4-38.1L696.5,29.1z"/>
	<path class="st2" d="M746,44.2l-16.8-5.1l-20.5,38.2c0.3,0.2,0.6,0.5,0.8,0.7l37.3-30.5c-0.4-0.6-0.8-1.3-0.9-2.1
		C745.9,45,745.9,44.6,746,44.2z"/>
	<path class="st2" d="M507,144C507.1,144,507.1,144,507,144l39-48.3c-0.7-0.7-1.3-1.6-1.4-2.7c-0.3-1.9,0.7-3.8,2.3-4.6l-3.4-7.5
		L507,144z"/>
	<path class="st3" d="M866.7-206c-2.5,0.4-4.2,2.7-3.8,5.1c0,0.2,0.1,0.4,0.1,0.6l-136.3,47.5l-0.1-0.2l-0.2,0.3l-1.1,0.4l0.8,0.1
		l-46.6,71.4c-0.8-0.5-1.8-0.7-2.9-0.5c-2,0.3-3.5,1.9-3.8,3.8l-66.9-6.6c0-0.3,0-0.5,0-0.8c-0.4-2.5-2.7-4.2-5.1-3.8
		c-2.5,0.4-4.2,2.7-3.8,5.1c0.1,0.5,0.2,0.9,0.4,1.3l-79.4,45.5c-0.9-1.5-2.6-2.3-4.5-2.1c-1.4,0.2-2.6,1.1-3.3,2.3l-73.6-37
		c0.3-0.7,0.4-1.6,0.3-2.4c-0.4-2.5-2.7-4.2-5.1-3.8c-2.5,0.4-4.2,2.7-3.8,5.1c0.3,2,1.9,3.5,3.8,3.8l-6.5,76.2c-0.2,0-0.5,0-0.7,0
		c-2.5,0.4-4.2,2.7-3.8,5.1c0.1,0.7,0.3,1.3,0.7,1.8l-54.6,39.7c-1-1.1-2.5-1.7-4-1.5c-2.5,0.4-4.2,2.7-3.8,5.1
		c0.4,2.5,2.7,4.2,5.1,3.8c1.2-0.2,2.2-0.8,2.9-1.7l47.1,32.7c-0.5,0.9-0.8,1.9-0.6,3c0.4,2.5,2.7,4.2,5.1,3.8
		c1.3-0.2,2.3-0.9,3-1.8l79.1,50.2c-0.5,0.8-0.7,1.8-0.5,2.8c0.4,2.5,2.7,4.2,5.1,3.8c2.5-0.4,4.2-2.7,3.8-5.1
		c-0.2-1.1-0.7-2-1.4-2.7l38.9-48.3c0.9,0.6,2.1,1,3.3,0.8c2.3-0.3,3.9-2.3,3.9-4.5l148-10.5l0-0.3c0,0,0,0,0,0
		c0.4,2.5,2.7,4.2,5.1,3.8c2.5-0.4,4.2-2.7,3.8-5.1c-0.1-0.7-0.3-1.3-0.7-1.8l37.4-30.6c0.2,0.2,0.3,0.3,0.5,0.5L687.3,141
		c-0.8-0.5-1.8-0.7-2.9-0.5c-2.5,0.4-4.2,2.7-3.8,5.1c0.4,2.5,2.7,4.2,5.1,3.8c1.6-0.2,2.8-1.2,3.5-2.5l117.3,46.4
		c-0.2,0.6-0.2,1.2-0.1,1.9c0.4,2.5,2.7,4.2,5.1,3.8c2.2-0.3,3.9-2.2,3.9-4.4l59.4-5.5c0.4,2.4,2.7,4.1,5.1,3.8
		c2.5-0.4,4.2-2.7,3.8-5.1c-0.3-1.8-1.5-3.1-3.1-3.6l11.8-44.7c0.5,0.1,0.9,0.1,1.4,0c2.5-0.4,4.2-2.7,3.8-5.1
		c-0.4-2.5-2.7-4.2-5.1-3.8c0,0,0,0-0.1,0l-15.9-59.6c2.1-0.6,3.6-2.7,3.2-5c-0.1-0.7-0.4-1.4-0.8-1.9l47.1-37.5
		c1,1.1,2.5,1.7,4,1.4c2.5-0.4,4.2-2.7,3.8-5.1c-0.4-2.5-2.7-4.2-5.1-3.8c-0.6,0.1-1.2,0.3-1.7,0.6l-31-44.6c1.2-1,1.9-2.5,1.7-4.2
		c-0.2-1.2-0.8-2.3-1.8-3l41.4-64c0.8,0.5,1.8,0.7,2.9,0.5c2.5-0.4,4.2-2.7,3.8-5.1c-0.4-2.5-2.7-4.2-5.1-3.8
		c-1.6,0.2-2.9,1.3-3.5,2.7l-103.4-37.5c0.2-0.6,0.2-1.3,0.1-1.9c0-0.2-0.1-0.4-0.1-0.5l33.2-55.6c0.8,0.4,1.7,0.6,2.7,0.5
		c2.5-0.4,4.2-2.7,3.8-5.1C871.5-204.7,869.2-206.4,866.7-206z M727.2-152.1l96.1,11.2c0,0.3,0,0.6,0,0.9c0,0.3,0.1,0.6,0.2,0.8
		l-69.8,29.6L727.2-152.1z M853.7,5.5c-0.9-0.6-1.9-0.9-3-0.8l-22-140.9l0.1-0.2c0.4-0.1,0.7-0.2,1-0.4l58.3,99.8L853.7,5.5z
		 M854.7,6.4l35.5-31.7c0.6,0.6,1.3,1,2,1.2L884.7,15l-29.1-5.3c0-0.4,0-0.8,0-1.2C855.5,7.8,855.2,7,854.7,6.4z M850.1,4.8
		c-0.6,0.1-1.2,0.4-1.6,0.7L788.1-69l37.7-67.7c0.7,0.3,1.5,0.5,2.3,0.5L850.1,4.8z M848.4,12.9l-37.1,57.6
		c-0.8-0.5-1.8-0.7-2.8-0.5c-0.4,0.1-0.8,0.2-1.2,0.4l-20.4-38.1L847,11C847.3,11.7,847.8,12.4,848.4,12.9z M824.2-138l-50.6,44.5
		c-1-1-2.4-1.5-3.8-1.3c-2.3,0.3-3.9,2.3-3.9,4.5l-11.8-18.9l69.7-29.5C823.9-138.5,824-138.3,824.2-138z M825.3-137l-37.6,67.5
		L773.5-87c1.1-1,1.6-2.4,1.4-4c-0.1-0.8-0.4-1.5-0.9-2.1l50.4-44.3l0.2-0.2C824.8-137.4,825-137.2,825.3-137z M771.1-85.9
		c0.7-0.1,1.4-0.4,2-0.8l14.4,17.8l-25.9,46.6c-0.3-0.1-0.6-0.3-1-0.3l9.5-63.2C770.4-85.8,770.7-85.8,771.1-85.9z M759.9-22.7
		c-0.3,0-0.7,0-1,0c-1.3,0.2-2.3,0.9-3,1.8L734.8-36l33.4-50.4c0.4,0.2,0.8,0.4,1.3,0.5L759.9-22.7z M755.6-20.4
		c-0.5,0.8-0.7,1.8-0.5,2.8c0.1,0.6,0.3,1.2,0.6,1.7l-59.8,40.7c-0.2-0.3-0.5-0.6-0.8-0.8l39.4-59.5L755.6-20.4z M751.2,40.3
		l8.5-53.9c0.2,0,0.3,0,0.5,0c0.4-0.1,0.8-0.2,1.2-0.4l24.6,46l-31.4,11.1C754,41.5,752.7,40.5,751.2,40.3z M756.1-15.2
		c0.3,0.3,0.6,0.6,1,0.9l-28.3,52.7l-32.2-9.8c0.1-0.5,0.2-1.1,0.1-1.7c-0.1-0.6-0.3-1.2-0.6-1.6L756.1-15.2z M757.7-14.1
		c0.5,0.2,0.9,0.3,1.5,0.4l-8.5,53.9c-0.3,0-0.5,0-0.8,0c-1.9,0.3-3.3,1.6-3.7,3.4l-16.6-5.1L757.7-14.1z M754.9,44.1
		c0-0.2-0.1-0.4-0.1-0.6l31.5-11.1l20.4,38.2c-0.6,0.4-1.1,0.9-1.5,1.5l-50.6-25.6C754.9,45.8,755.1,44.9,754.9,44.1z M786.6,31.7
		l-24.6-46c0.9-0.5,1.5-1.3,1.9-2.3l82.9,24.8c-0.1,0.5-0.2,1.1-0.1,1.7c0,0.2,0.1,0.4,0.1,0.6L786.6,31.7z M764-17.2
		c0.1-0.5,0.2-1.1,0.1-1.7c-0.2-1.4-1-2.5-2-3.2l25.8-46.4L848,5.9c-0.5,0.5-0.9,1.1-1.2,1.7L764-17.2z M679.9-80.6l46.6-71.4
		l26.6,42.5L681.3-79C681-79.6,680.5-80.1,679.9-80.6z M681.5-78.4l72-30.5l11.9,19l-83.8,12.1C681.6-78.1,681.6-78.2,681.5-78.4z
		 M681.7-77.3L766-89.4c0.2,1.1,0.8,2,1.7,2.7l-33.4,50.4l-53.2-38.2C681.6-75.3,681.8-76.3,681.7-77.3z M678.2-72.5
		c1-0.2,1.9-0.8,2.6-1.6L734-35.9l-39.4,59.5c-0.8-0.4-1.7-0.7-2.6-0.6L678.2-72.5z M691.4,23.1c-0.6,0.1-1.2,0.4-1.7,0.7L638.6-39
		l35.6-34.6c0.9,0.8,2.1,1.3,3.4,1.2L691.4,23.1z M689.2,24.2c-0.8,0.7-1.3,1.6-1.4,2.7l-104.5-8c0-0.1,0-0.2,0-0.3
		c-0.1-1-0.6-1.9-1.3-2.5l56.1-54.6L689.2,24.2z M605.8-83.7l66.9,6.6c0,0.3,0,0.5,0,0.8c0.1,0.9,0.5,1.7,1,2.3l-35.6,34.6
		l-33.9-41.6C605.1-81.7,605.6-82.7,605.8-83.7z M600.6-79.9c0.4,0.1,0.9,0.1,1.3,0c0.7-0.1,1.4-0.4,2-0.8L637.8-39l-56.2,54.6
		c-0.5-0.4-1.1-0.7-1.7-0.8l6.3-29L600.6-79.9z M600-80l-1.1,5.3l-19.5,89.5c-0.4,0-0.8,0-1.2,0c-1,0.1-1.8,0.6-2.5,1.2L544.7-9.5
		l54.1-71.1C599.2-80.4,599.6-80.2,600-80z M576.3,22.9l-32.7,56.7L521,30.2c1.5-0.8,2.4-2.4,2.4-4.1l50.9-6.4c0,0.1,0,0.1,0,0.2
		C574.5,21.1,575.3,22.2,576.3,22.9z M514-30l1.4,30.6l1,21.8c-0.6,0.4-1.1,0.9-1.4,1.4l-34.3-41.4l29.4-14.6
		C510.9-30.8,512.4-30,514-30z M523.3,25.5c-0.3-1.5-1.3-2.8-2.6-3.4l23.7-31.2l30.9,25.4c-0.6,0.8-1,1.7-1,2.7L523.3,25.5z
		 M518.5-35.1c-0.1-0.5-0.2-0.9-0.4-1.3l79.4-45.5c0.2,0.3,0.5,0.7,0.8,0.9l-54,71.1l-26.6-21.9C518.4-32.7,518.7-33.9,518.5-35.1z
		 M517.3-31.3l26.6,21.9l-23.8,31.3c-0.6-0.2-1.3-0.2-1.9-0.1c-0.4,0.1-0.8,0.2-1.2,0.3l-1.3-27.4L514.5-30c0,0,0.1,0,0.1,0
		C515.7-30.1,516.6-30.6,517.3-31.3z M436.2-73.2l73.6,37c-0.3,0.7-0.4,1.5-0.3,2.3c0.1,0.4,0.2,0.8,0.3,1.2L480.3-18l-44.9-54.2
		C435.7-72.5,436-72.8,436.2-73.2z M432.2-71c0.2,0,0.5,0,0.7,0c0.8-0.1,1.4-0.4,2-0.8l44.8,54.1L428.9,7.5c-0.7-1.2-1.9-2-3.2-2.2
		L432.2-71z M429.5,9.1c-0.1-0.4-0.2-0.8-0.3-1.1l51-25.3l34.5,41.6c-0.2,0.4-0.3,0.9-0.4,1.4l-32.6-6l-52.2-9.6
		C429.6,9.9,429.6,9.5,429.5,9.1z M429.4,10.9l84.9,15.5c0,0.2,0,0.3,0,0.5c0.1,0.6,0.3,1.1,0.5,1.6L457.8,66l-30.3-52.5
		C428.5,12.9,429.1,12,429.4,10.9z M425.7,14.3c0.5-0.1,0.9-0.2,1.4-0.4l30.3,52.5L421.4,90c-0.7-0.9-1.8-1.6-2.9-1.7l6.4-73.9
		C425.2,14.3,425.4,14.3,425.7,14.3z M414.2,89.9l-47.1-32.7c0.5-0.9,0.8-1.9,0.6-3c-0.1-0.7-0.4-1.3-0.7-1.9l54.6-39.7
		c0.7,0.8,1.7,1.4,2.8,1.6l-6.4,73.9c-0.2,0-0.5,0-0.7,0C415.9,88.4,414.9,89,414.2,89.9z M500.9,145.1l-79.1-50.2
		c0.5-0.8,0.7-1.8,0.5-2.8c-0.1-0.6-0.3-1.1-0.5-1.6l35.9-23.6L502,144C501.6,144.3,501.2,144.6,500.9,145.1z M504.8,143.2
		c-0.3,0-0.6,0-0.9,0c-0.5,0.1-0.9,0.2-1.4,0.4l-44.4-77.1L515.2,29c0.7,0.9,1.7,1.5,2.8,1.7L504.8,143.2z M505.3,143.3l13.2-112.5
		c0.3,0,0.6,0,0.9,0c0.3,0,0.7-0.1,1-0.3l22.8,49.8l-36.7,63.4C506.2,143.5,505.8,143.4,505.3,143.3z M544.6,93
		c0.2,1.1,0.7,2,1.4,2.7L507.1,144c0,0-0.1,0-0.1-0.1l36.5-63.1l3.4,7.5C545.3,89.3,544.3,91.1,544.6,93z M548.4,87.9
		c-0.3,0-0.7,0.1-1,0.3l-3.6-7.9l32.9-57c0,0,0,0,0,0l-26.3,64.8C549.8,87.9,549.1,87.8,548.4,87.9z M701.5,81.3l-148,10.5
		c0,0,0,0,0,0c-0.2-1.5-1.2-2.8-2.5-3.4l26.3-64.8c0.6,0.2,1.4,0.3,2.1,0.2c1.6-0.2,2.8-1.2,3.4-2.5L701.9,79
		C701.6,79.7,701.5,80.5,701.5,81.3z M702.2,78.5L583.1,20.6c0.1-0.4,0.2-0.7,0.2-1.1l16.6,1.3l87.8,6.8c0,0.2,0,0.5,0,0.7
		c0.4,2.5,2.7,4.2,5.1,3.8c0.1,0,0.2,0,0.2,0L705,76.5C703.8,76.8,702.8,77.5,702.2,78.5z M708.2,77c-0.8-0.4-1.7-0.6-2.6-0.5
		l-11.8-44.6c1.3-0.4,2.3-1.4,2.8-2.7l32.1,9.8L708.2,77z M746.8,47.5L709.5,78c-0.2-0.3-0.5-0.5-0.8-0.7l20.5-38.2l16.8,5.1
		c0,0.4,0,0.8,0,1.2C746.1,46.2,746.4,46.9,746.8,47.5z M806.6,192.8l-117.3-46.4c0.2-0.6,0.3-1.3,0.2-2c-0.2-1.2-0.8-2.3-1.8-3
		l60.5-92.7c0.8,0.5,1.8,0.7,2.9,0.5c0.3,0,0.5-0.1,0.8-0.2l57,141.5C807.8,191,807.1,191.8,806.6,192.8z M810.5,190.1
		c-0.1,0-0.2,0-0.4,0c-0.3,0-0.5,0.1-0.8,0.2l-57-141.5c0.8-0.4,1.5-1,1.9-1.8l50.6,25.6c-0.3,0.7-0.4,1.6-0.3,2.4
		c0.3,2.2,2.1,3.8,4.3,3.9L810.5,190.1z M888.6,135.6c0.3,1.8,1.5,3.2,3.2,3.7L880,184c-0.5-0.1-1-0.1-1.5,0
		c-2.3,0.3-3.9,2.3-3.9,4.6l-59.3,5.5c0,0,0-0.1,0-0.1c-0.3-2.2-2.1-3.7-4.2-3.9l-1.6-111.1c0.1,0,0.2,0,0.3,0
		c1.2-0.2,2.2-0.8,2.9-1.6l76.8,55.2C888.8,133.3,888.5,134.5,888.6,135.6z M891.6,130.7c-0.7,0.3-1.3,0.7-1.8,1.3L813,76.8
		c0.5-0.9,0.8-1.9,0.6-3c-0.2-1.2-0.9-2.3-1.8-3l37.1-57.6c0.8,0.5,1.8,0.7,2.8,0.5c0.2,0,0.3-0.1,0.5-0.1L891.6,130.7z M890.6,126
		l-19-56.8c0.9,1.4,2.6,2.2,4.4,1.9c0,0,0,0,0,0L890.6,126z M870.7,66.8L854,16.9l19.1,45.7C871.6,63.4,870.7,65,870.7,66.8z
		 M875.7,62.1c-0.4,0-0.7,0-1.1,0c-0.4,0.1-0.7,0.1-1,0.3l-20.5-49.1c1.2-0.6,2.1-1.7,2.4-3l29.1,5.3L875.7,62.1z M925,24.1
		c0.1,0.7,0.4,1.4,0.8,1.9l-47.1,37.5c-0.6-0.7-1.4-1.2-2.4-1.4l8.9-46.5L925,23C924.9,23.4,924.9,23.7,925,24.1z M923,14.8l3.6,5.2
		c-0.8,0.6-1.3,1.5-1.6,2.4l-39.8-7.3l7.5-39.2c0.4,0,0.8,0.1,1.2,0c0.6-0.1,1.2-0.3,1.7-0.6L923,14.8z M888.9-27.9
		c0.1,0.8,0.4,1.5,0.9,2.1L854.3,6c0,0-0.1-0.1-0.1-0.1l34.2-42.3l2.4,4.1C889.4-31.4,888.6-29.7,888.9-27.9z M895.6-32.5
		c-0.8-0.5-1.8-0.7-2.9-0.5c-0.5,0.1-1,0.2-1.4,0.4l-2.5-4.3l47.6-58.8L895.6-32.5z M935.4-101.4c-0.2,0.6-0.2,1.3-0.1,1.9
		c0.2,1.1,0.7,2,1.4,2.7l-48.1,59.4L830.3-137c0.7-0.5,1.3-1.2,1.6-1.9L935.4-101.4z M864.8-197.8l-32.9,55.1
		c-0.8-1.8-2.7-2.9-4.8-2.6c-2,0.3-3.5,1.8-3.8,3.7l-95.4-11.1l135.3-47.1C863.6-199,864.1-198.3,864.8-197.8z"/>
	<path class="st3" d="M947.8,315c-2.5,0.4-4.2,2.7-3.8,5.1c0.4,2.5,2.7,4.2,5.1,3.8c2.5-0.4,4.2-2.7,3.8-5.1
		C952.6,316.4,950.3,314.6,947.8,315z"/>
</g>
<path class="st3" d="M-21.1,4c1.5,0.7,3.2,0.3,4.3-0.8l68.9,55.5c-0.1,0.2-0.2,0.3-0.3,0.5c-0.9,1.9,0,4.2,1.9,5.1
	c1.9,0.9,4.2,0,5.1-1.9c0.1-0.3,0.2-0.6,0.3-0.9l49,3.6c0,1.4,0.9,2.8,2.2,3.4c1.9,0.9,4.2,0,5.1-1.9c0.4-0.9,0.4-1.8,0.2-2.6
	L166,44.7c0.4,0.8,1,1.4,1.9,1.8c0.9,0.4,1.9,0.4,2.8,0.1l51.2,116.9c-0.7,0.4-1.3,1-1.6,1.8c-0.9,1.9,0,4.2,1.9,5.1
	c1.9,0.9,4.2,0,5.1-1.9c0.3-0.6,0.4-1.1,0.3-1.7l153-20.2c-0.6,1.8,0.3,3.9,2.1,4.7c1.9,0.9,4.2,0,5.1-1.9c0.1-0.2,0.1-0.4,0.2-0.5
	l55.8,10.4c-0.1,1.6,0.7,3.1,2.2,3.8c0.8,0.3,1.6,0.4,2.4,0.3l21,68.6l-1-0.2l1.2,0.8l0.1,0.4l0.2-0.2l99.2,70.3
	c-0.1,0.1-0.1,0.2-0.2,0.3c-0.9,1.9,0,4.2,1.9,5.1c1.9,0.9,4.2,0,5.1-1.9c0.9-1.9,0-4.2-1.9-5.1c-0.7-0.3-1.5-0.4-2.2-0.3
	l-13.9-52.9c0.1-0.1,0.1-0.2,0.1-0.3c0.2-0.5,0.3-1,0.3-1.5l92.6-6.1c0.2,1.2,1,2.3,2.2,2.9c1.9,0.9,4.2,0,5.1-1.9
	c0.9-1.9,0-4.2-1.9-5.1c-0.8-0.3-1.6-0.4-2.3-0.3l-18.6-61.6c0.9-0.4,1.6-1,2-2c0.6-1.2,0.4-2.6-0.3-3.7l35.6-28.9
	c0.3,0.3,0.7,0.6,1.2,0.8c1.9,0.9,4.2,0,5.1-1.9c0.9-1.9,0-4.2-1.9-5.1c-1.2-0.5-2.5-0.4-3.5,0.2l-29.4-41.4c0.4-0.4,0.8-0.8,1-1.3
	c0.8-1.7,0.2-3.7-1.4-4.7L670.3,42c1.9,0.8,4.2,0,5-1.9c0.9-1.9,0-4.2-1.9-5.1c-0.3-0.2-0.7-0.2-1-0.3l0.9-39
	c1.4-0.1,2.6-0.9,3.2-2.2c0.2-0.3,0.3-0.7,0.3-1.1l59.2,2.6c0.1,1.4,0.9,2.7,2.2,3.3c1.9,0.9,4.2,0,5.1-1.9c0.9-1.9,0-4.2-1.9-5.1
	c-0.1-0.1-0.3-0.1-0.4-0.2l18.5-85.4c1.6,0.2,3.2-0.7,3.9-2.2c0.9-1.9,0-4.2-1.9-5.1c-1.9-0.9-4.2,0-5.1,1.9
	c-0.2,0.5-0.4,1.1-0.3,1.7L629.2-82.3c-0.3-1.1-1-2-2.1-2.5c-1.9-0.9-4.2,0-5.1,1.9s0,4.2,1.9,5.1c0.2,0.1,0.4,0.2,0.6,0.2
	l-5.2,44.7c-1.5-0.1-3,0.8-3.7,2.2c-0.2,0.5-0.3,1-0.3,1.5L509.4-19.1c-0.2-1.2-1-2.2-2.2-2.8c-1.9-0.9-4.2,0-5.1,1.9s0,4.2,1.9,5.1
	c0.4,0.2,0.9,0.3,1.4,0.3l1.7,49.2c-1.3,0.2-2.4,1-3,2.2l0.1-0.3L386.9-6.6c0.5-1.8-0.4-3.7-2.1-4.5c-0.9-0.4-1.9-0.4-2.7-0.2
	l-20.2-48.3c0.7-0.4,1.3-1,1.7-1.8c0.9-1.9,0-4.2-1.9-5.1c-1.9-0.9-4.2,0-5.1,1.9c-0.3,0.7-0.4,1.6-0.3,2.3l-75.8,22.1
	c-0.4-0.9-1-1.7-2-2.1c-1.9-0.9-4.2,0-5.1,1.9c-0.4,0.8-0.4,1.7-0.2,2.5l-45.9,15.4c-0.4-0.8-1-1.5-1.9-1.9c-1.9-0.9-4.2,0-5.1,1.9
	c-0.1,0.2-0.2,0.4-0.2,0.6l-87.8-12.5c0-1.5-0.8-2.9-2.2-3.6c-1.1-0.5-2.3-0.4-3.3,0.1L93.9-89c0.5-0.4,0.9-0.9,1.2-1.5
	c0.9-1.9,0-4.2-1.9-5.1c-1.9-0.9-4.2,0-5.1,1.9c0,0,0,0,0,0L42.5-104l-24.1-5.5c0.1-1.5-0.8-3-2.2-3.6c-1.9-0.9-4.2,0-5.1,1.9
	c-0.7,1.5-0.3,3.2,0.8,4.3l-29.8,45.7c0,0-0.1-0.1-0.1-0.1c-1.9-0.9-4.2,0-5.1,1.9c-0.9,1.9,0,4.2,1.9,5.1c0.5,0.2,0.9,0.3,1.4,0.3
	l-0.1,50.7c-1.3,0.1-2.5,0.9-3.1,2.2C-23.9,0.8-23.1,3.1-21.1,4z M15.1-105.9c1.2-0.2,2.3-1,2.9-2.2c0.1-0.2,0.2-0.5,0.2-0.7
	l27.4,6.2l42.3,9.7c-0.1,0.4-0.1,0.7-0.1,1.1L19.2-70.6L15.1-105.9z M279.2-35.5l23.5,27.5l-36.8,35.4c-0.3-0.2-0.6-0.4-0.9-0.6
	c-0.2-0.1-0.3-0.1-0.5-0.2l12.1-61.4C277.5-34.8,278.4-35,279.2-35.5z M357.6-60c0.3,0.2,0.6,0.4,0.9,0.6c0.2,0.1,0.4,0.2,0.6,0.2
	L343.5,35c-0.9-0.1-1.8,0.2-2.5,0.7L303.6-8L357.6-60z M627.9,176l-17.5-41.6l21,33.5c-0.5,0.4-0.9,0.9-1.2,1.5
	c-0.6,1.3-0.4,2.9,0.5,3.9L627.9,176z M651,238.3c-0.2,0.5-0.3,1-0.3,1.5l-92.6,6.1c-0.1-0.6-0.4-1.2-0.8-1.8l70.4-66.9l25,59.3
	C652,236.9,651.4,237.5,651,238.3z M226.5,164.3c-0.3-0.3-0.7-0.6-1.1-0.8l22.9-58.8c1.8,0.5,3.7-0.3,4.5-2.1c0,0,0,0,0,0l36.1,12.4
	L226.5,164.3z M-17.1-55.1c0.1-0.1,0.1-0.1,0.2-0.2l39.4,38.4c-0.2,0.2-0.4,0.5-0.5,0.8c-0.4,0.8-0.4,1.7-0.2,2.4l-10.6,3.5
	L-17.1-55.1z M94.9,34.8l13.5,9.5c-0.1,0.1-0.1,0.2-0.2,0.3c-0.3,0.7-0.4,1.5-0.3,2.2L96,49.9l-66.3-61L94.9,34.8z M108.8,43.8
	L61.5,10.4l-32.7-23c0.1-0.1,0.1-0.2,0.2-0.3c0.3-0.6,0.4-1.3,0.3-2l71-13.8l10.5,71.2C110,42.7,109.3,43.2,108.8,43.8z M22-12.9
	c0.4,0.8,1,1.5,1.9,1.9c0.9,0.4,1.8,0.4,2.6,0.2l27,68.2l-42-66.9L22-12.9z M56.8,57.3c-0.9-0.4-1.8-0.4-2.6-0.2l-27-68.2
	c0.3-0.2,0.6-0.3,0.8-0.6l67.2,61.8l-36.3,9.4C58.5,58.6,57.8,57.8,56.8,57.3z M59,60.2l36.8-9.5l13,12c-0.2,0.2-0.3,0.5-0.4,0.7
	c-0.1,0.3-0.2,0.6-0.3,0.9l-49-3.6C59.1,60.6,59.1,60.4,59,60.2z M111.5,61.2c-0.8,0.1-1.6,0.4-2.2,1L96.6,50.5l11.5-3
	c0.3,0.9,1,1.7,2,2.2c0.4,0.2,0.8,0.3,1.3,0.3L111.5,61.2z M115.1,44.6l41.6-24.9l10.6,20.2c-0.6,0.4-1.1,0.9-1.4,1.6
	c-0.2,0.5-0.3,1-0.3,1.4l-50.1,2.8C115.4,45.3,115.3,45,115.1,44.6z M221.5-17.8c0.2,0.2,0.5,0.4,0.8,0.5c0.6,0.3,1.2,0.4,1.8,0.3
	l10.7,50.8l-61.7,8.4c-0.2-0.7-0.5-1.3-1-1.8L221.5-17.8z M509.7,41.7l23.1,33.5c-0.5,0.4-0.8,0.8-1.1,1.4c-0.1,0.3-0.2,0.6-0.3,0.9
	l-14.7,0.2L509.1,42C509.3,41.9,509.5,41.8,509.7,41.7z M669.4-9.1c-0.3,1.2-0.1,2.4,0.6,3.4l-18.8,17.1l-29.4-37.7
	c0.3-0.3,0.6-0.7,0.8-1.1L669.4-9.1z M621.3-25.9l29.4,37.8L592.2,65c-0.3-0.3-0.6-0.5-1-0.7c0,0-0.1,0-0.1-0.1l27.4-89.6
	C619.5-25.1,620.5-25.4,621.3-25.9z M250.9,97.5c-0.2-0.1-0.3-0.1-0.5-0.2L263,34c1.1,0.1,2.2-0.2,3-1l35.2,32.3l-48.9,33.2
	C251.9,98.1,251.5,97.7,250.9,97.5z M266.4,32.5c0.2-0.2,0.3-0.5,0.4-0.7c0.1-0.3,0.2-0.6,0.3-0.8l72.3,7.3c-0.1,0.3-0.1,0.7,0,1
	l-37.7,25.6L266.4,32.5z M339.6,40c0.1,0.5,0.4,0.9,0.7,1.3l-13,38.2l-1.3,3.7c-1.2-0.3-2.5,0-3.4,0.8l-20.3-18.6L339.6,40z
	 M326.7,83.4C326.7,83.4,326.7,83.4,326.7,83.4l1.2-3.7l12.9-37.9c0.2,0.2,0.5,0.4,0.8,0.5c0.5,0.2,1,0.3,1.5,0.3l11.9,30.9
	L328.4,85C328.1,84.3,327.5,83.8,326.7,83.4z M252.7,99.1l49-33.3l20.4,18.7c-0.2,0.2-0.4,0.5-0.5,0.8c-0.3,0.6-0.4,1.2-0.3,1.9
	L253,99.9C252.9,99.6,252.8,99.4,252.7,99.1z M381.7,144.8l-53.6-55.5c0.2-0.3,0.4-0.5,0.5-0.9c0.4-0.9,0.4-1.9,0.1-2.8l26.6-11.4
	l27.1,70.1C382.2,144.5,381.9,144.6,381.7,144.8z M356,74l30.9-13.3c0.4,0.6,1,1.1,1.7,1.5c0.3,0.1,0.6,0.2,0.9,0.3l-3.3,49.5
	l-2.1,32c-0.3,0-0.6,0.1-0.9,0.1L356,74z M552.5,243.1l-18.9-29.6L522,195.3c0.5-0.4,0.9-0.9,1.1-1.4c0.5-1.2,0.4-2.4-0.2-3.5
	l15.5-10.8l14.6,63.4C552.9,243,552.7,243,552.5,243.1z M486.2,81.6l38.9,47c-0.3,0.3-0.6,0.7-0.8,1.1c-0.3,0.7-0.4,1.5-0.3,2.3
	l-20.6,7.3l-18-57.3C485.7,81.9,486,81.7,486.2,81.6z M524.2,132.7c0.4,0.9,1,1.7,2,2.1c0.2,0.1,0.5,0.2,0.7,0.2l-7.1,53.4
	c-0.3,0-0.6,0-1,0.1L503.7,140L524.2,132.7z M522.6,189.8c-0.4-0.4-0.8-0.8-1.3-1c-0.2-0.1-0.5-0.2-0.7-0.2l2.5-19.1l4.6-34.3
	c0.2,0,0.4,0,0.6,0l10.1,43.8L522.6,189.8z M529,134.9c1-0.3,1.8-1,2.3-2.1c0.2-0.4,0.3-0.8,0.3-1.3l73-0.7c0.1,0.5,0.2,1,0.5,1.5
	l-66.1,46L529,134.9z M604.9,128.9c-0.2,0.4-0.3,0.8-0.3,1.3l-73,0.7c-0.1-0.8-0.4-1.5-0.9-2.1l30.7-31.5l43.7,31.2
	C605,128.7,604.9,128.8,604.9,128.9z M530.2,128.3c-0.2-0.2-0.5-0.4-0.8-0.5c-0.1,0-0.2-0.1-0.3-0.1l5.7-45.7
	c1.2,0.1,2.4-0.4,3.2-1.3l22.7,16.3L530.2,128.3z M533.6,81.6c0.2,0.1,0.4,0.1,0.5,0.2l-5.7,45.7c-0.4-0.1-0.7-0.1-1.1,0l-10.5-49.1
	l14.5-0.2C531.3,79.6,532.2,81,533.6,81.6z M526.7,127.6c-0.3,0.1-0.6,0.2-0.8,0.4l-39.1-46.9c0.3-0.3,0.6-0.7,0.8-1.1
	c0.2-0.4,0.3-0.8,0.3-1.3l28.3-0.4L526.7,127.6z M393.6,60.2c0-0.1,0-0.1,0.1-0.2l51.2,10.6l35.3,7.3c-0.1,0.8,0.1,1.6,0.5,2.3
	l-56,38.8l-32.6-57.2C392.8,61.5,393.3,60.9,393.6,60.2z M482.8,82.1c0.7,0.2,1.4,0.3,2,0.1l18,57.3l-52,18.4
	c-0.3-0.7-0.9-1.3-1.6-1.7L482.8,82.1z M451.1,158.6l51.9-18.4l15.2,48.5c-0.8,0.3-1.4,0.9-1.8,1.6L451,160.8
	C451.2,160,451.2,159.3,451.1,158.6z M518.1,195.7c1.1,0.5,2.3,0.4,3.3-0.1l8.5,13.3l22,34.5c-0.1,0.1-0.2,0.2-0.4,0.3l-49.4-40.2
	l13.8-12.3C515.5,193.1,516.4,195,518.1,195.7z M555.5,242.9c-0.6-0.2-1.2-0.2-1.8-0.2l-14.6-63.6l66.3-46.1c0.3,0.3,0.6,0.6,1,0.8
	L555.5,242.9z M605.5,128l-43.6-31.2l25.3-26c0.2,0.2,0.5,0.4,0.8,0.5c0.8,0.3,1.6,0.4,2.3,0.3l16.6,55.4
	C606.4,127.2,605.9,127.5,605.5,128z M586.7,70.3l-25.4,26.1l-22.8-16.3c0.1-0.1,0.1-0.2,0.2-0.4c0.3-0.6,0.4-1.3,0.3-1.9l47-8.9
	C586.1,69.4,586.4,69.9,586.7,70.3z M508.4,42.2l7.6,35.5L487.8,78c-0.1-1.1-0.7-2-1.5-2.7l20-33.4C507,42.3,507.7,42.3,508.4,42.2z
	 M505.7,41.7l-20,33.3c0,0-0.1,0-0.1,0c-1.9-0.9-4.2,0-5.1,1.9c-0.1,0.2-0.1,0.3-0.2,0.5l-79-16.4l-7.5-1.6c0.1-0.3,0.1-0.5,0.1-0.8
	l110.1-19C504.3,40.4,504.9,41.2,505.7,41.7z M386.6,60l-30.9,13.3l-11.8-30.7c1.2-0.2,2.2-0.9,2.8-2l39.8,17.2
	C386.3,58.5,386.3,59.3,386.6,60z M261.8,33.7c0.2,0.1,0.3,0.1,0.5,0.2l-12.6,63.3c-0.3,0-0.6,0-0.8,0l-13.2-62.8l24-3.3
	C259.9,32.2,260.7,33.2,261.8,33.7z M172.9,44.6c0.3-0.6,0.4-1.2,0.3-1.7l61.7-8.4l13.2,62.9c-0.7,0.2-1.3,0.6-1.7,1.1L172.7,45
	C172.8,44.9,172.9,44.8,172.9,44.6z M253,101.9c0.1-0.4,0.1-0.8,0.1-1.3l68.3-12.7c0.1,0.4,0.3,0.8,0.5,1.1l-32.3,25.5L253,101.9z
	 M322.4,89.5c0.3,0.3,0.7,0.6,1.2,0.8c1.4,0.6,2.9,0.4,4-0.6l53.6,55.5c-0.2,0.2-0.3,0.4-0.4,0.6l-90.4-31.1L322.4,89.5z
	 M385.7,144.3c-0.3-0.1-0.6-0.2-1-0.3l5.4-81.6c0.5,0,0.9-0.1,1.3-0.2l32.7,57.3L387,145.3C386.7,144.9,386.2,144.5,385.7,144.3z
	 M425.1,119.8l56-38.9c0.3,0.3,0.6,0.6,1,0.9l-33.5,74.1c-1-0.3-2-0.3-2.8,0.1L425.1,119.8z M450.7,161.4l64.9,29.4l-13.9,12.4
	l-51.1-41.6C450.6,161.6,450.6,161.5,450.7,161.4z M551.2,244.4c-0.1,0.2-0.2,0.4-0.3,0.5c-0.1,0.2-0.2,0.4-0.2,0.6l-80.2-13.5
	l31.3-27.9L551.2,244.4z M556.9,243.6c-0.2-0.1-0.3-0.3-0.5-0.4l-0.1-0.2l50.8-108.9c0.8,0.3,1.7,0.3,2.4,0l17.9,42.4L556.9,243.6z
	 M672,139.4l-35.6,28.9c-0.3-0.3-0.7-0.6-1.2-0.8c-0.3-0.1-0.6-0.2-0.9-0.3l3.1-33.4l33.8,3.4C671.4,138,671.6,138.8,672,139.4z
	 M633.7,167.2c-0.6,0-1.2,0.1-1.7,0.4l-21.3-34c0.5-0.4,0.9-0.9,1.2-1.5c0.1-0.3,0.2-0.6,0.3-0.8l24.7,2.5L633.7,167.2z
	 M612.2,130.5c0-1-0.4-2-1.2-2.8l28.1-35c0.2,0.2,0.4,0.3,0.7,0.4c0.2,0.1,0.5,0.2,0.8,0.3l-3.7,39.6L612.2,130.5z M638.6,92.3
	l-24.3,30.3l23.4-33.8C637.4,90.1,637.7,91.4,638.6,92.3z M610.3,127.2c-0.1-0.1-0.2-0.1-0.3-0.2c-0.8-0.3-1.6-0.4-2.3-0.3
	l-16.6-55.4c0.9-0.4,1.6-1,2.1-2c0.4-0.8,0.4-1.7,0.2-2.5l75.1-26.7c0.3,0.5,0.6,0.9,1.1,1.3L610.3,127.2z M593.1,66.3
	c-0.1-0.2-0.2-0.5-0.4-0.7l58.5-53.2l18.1,23.3c-0.4,0.3-0.7,0.7-0.9,1.2c-0.4,0.9-0.4,1.8-0.2,2.6L593.1,66.3z M669.8,35.3
	l-18.2-23.4l18.8-17.1c0.3,0.3,0.6,0.5,1,0.7c0.4,0.2,0.8,0.3,1.1,0.3l-0.9,38.9C671,34.7,670.4,34.9,669.8,35.3z M674.7-11.5
	c-1.9-0.8-4.1-0.1-5,1.8l-46.6-18.3L735.3-5.7l-58.4-2.6C676.8-9.6,676-10.9,674.7-11.5z M736.4-6.7c-0.1,0.2-0.1,0.3-0.2,0.5
	L623-28.8c0-0.6-0.1-1.1-0.3-1.7L668-52.6l68.6,45.7C736.5-6.9,736.4-6.8,736.4-6.7z M617.6-25.6c0.1,0,0.1,0,0.2,0.1l-27.4,89.6
	c-1.1-0.2-2.3,0.1-3.2,0.8l-22.8-23.5l52.7-67.3C617.2-25.8,617.4-25.7,617.6-25.6z M586.7,65.4c-0.2,0.3-0.4,0.6-0.6,0.9
	c-0.3,0.6-0.4,1.3-0.3,1.9l-47,8.9c-0.2-0.7-0.5-1.2-1-1.7L563.9,42L586.7,65.4z M537.2,74.9c-0.2-0.1-0.3-0.2-0.5-0.3
	c-0.8-0.3-1.6-0.4-2.3-0.3l-27.3-89.2c0.3-0.1,0.7-0.3,1-0.6l55.4,56.9L537.2,74.9z M506.5-14.6l27.3,89.2c-0.1,0-0.2,0.1-0.3,0.2
	l-23.1-33.5c0.4-0.3,0.7-0.8,0.9-1.2c0.9-1.9,0-4.2-1.9-5.1c-0.4-0.2-0.9-0.3-1.4-0.3l-1.7-49.2C506.3-14.6,506.4-14.6,506.5-14.6z
	 M503.9,38.9l-110,19c-0.2-1.2-1-2.2-2.2-2.7c-0.5-0.2-1.1-0.3-1.6-0.3L384-3.9c1.1-0.2,2.2-1,2.7-2.1l117.4,43.2
	C503.9,37.7,503.8,38.3,503.9,38.9z M381.6-4.1c0.5,0.2,1.1,0.3,1.6,0.3l6,57.4L376.3,1l4.7-5.5C381.2-4.4,381.4-4.2,381.6-4.1z
	 M388.9,55c-1,0.3-1.8,1-2.2,2c0,0,0,0,0,0l-39.8-17.1c0.4-1.3,0-2.8-0.9-3.7l29.7-34.6L388.9,55z M345.4,35.7
	c-0.2-0.1-0.4-0.3-0.6-0.4c-0.2-0.1-0.4-0.2-0.6-0.2l15.6-94.3c0.3,0,0.6,0,0.8,0l14.8,59.9L345.4,35.7z M340.5,36.2
	c-0.3,0.3-0.6,0.7-0.7,1.1c0,0.1-0.1,0.2-0.1,0.3l-72.4-7.3c0-0.9-0.3-1.7-0.8-2.4l36.7-35.4L340.5,36.2z M260.8,27.4
	c-0.4,0.3-0.7,0.7-0.9,1.2c-0.3,0.6-0.4,1.2-0.3,1.7l-24,3.3l-10.7-50.8c0.4-0.1,0.7-0.2,1-0.4L260.8,27.4z M221-18.3l-49.4,58.3
	c-0.2-0.1-0.4-0.3-0.6-0.4c-1-0.5-2.1-0.4-3,0l-10.6-20.2l63.4-38C220.8-18.6,220.9-18.5,221-18.3z M156.4,19l-41.6,25
	c-0.4-0.5-0.9-0.9-1.5-1.2c-0.1-0.1-0.3-0.1-0.4-0.2l12.3-58.5l3.1-14.7c0.7,0.1,1.3,0,1.9-0.3L156.4,19z M127-30.9
	c0.2,0.1,0.3,0.1,0.5,0.2l-15.4,73.2c-0.2,0-0.4,0-0.6,0L101-28.8l23.9-4.6C125.2-32.3,126-31.4,127-30.9z M100.2-29.3L29.1-15.5
	c-0.2-0.6-0.5-1.2-0.9-1.6L89-89.2c0.3,0.3,0.7,0.5,1.1,0.7c0.5,0.2,1,0.3,1.5,0.3L100.2-29.3z M87.9-91.1c0.1,0.5,0.3,0.9,0.6,1.3
	L27.6-17.6c-0.2-0.1-0.4-0.2-0.6-0.3c-0.5-0.2-1.1-0.3-1.7-0.3l-6-51.6L87.9-91.1z M24.7-18.2c-0.6,0.1-1.2,0.4-1.7,0.8l-39.4-38.4
	c0.1-0.2,0.2-0.3,0.3-0.5c0.4-0.9,0.4-1.8,0.2-2.7l34.7-10.7L24.7-18.2z M-17.6-54.6L10.5-9.9L-16.1-1c-0.4-0.8-1-1.5-1.9-1.9
	c-0.4-0.2-0.8-0.3-1.2-0.3l0.1-50.8C-18.6-54.2-18.1-54.3-17.6-54.6z M-16.4,2.6c0.1-0.2,0.2-0.3,0.3-0.5c0.4-0.8,0.4-1.7,0.2-2.4
	l26.7-8.9l42.1,67c-0.1,0.1-0.3,0.2-0.4,0.4L-16.4,2.6z M115.3,63.3c-0.4-0.8-1-1.4-1.9-1.8c-0.4-0.2-0.8-0.3-1.3-0.3l-0.1-11.1
	c1.3-0.1,2.5-0.9,3.1-2.2c0.2-0.5,0.3-1,0.3-1.4l50.1-2.8c0,0.2,0.1,0.3,0.1,0.5L115.3,63.3z M171.3,46.4c0.4-0.2,0.7-0.5,1-0.8
	L246,99c-0.1,0.1-0.1,0.2-0.2,0.4c-0.8,1.9-0.1,4.1,1.8,5l-22.9,58.8c-0.8-0.2-1.5-0.2-2.3,0L171.3,46.4z M227.4,166
	c-0.1-0.4-0.3-0.9-0.5-1.2l62.8-49.6l89.3,30.8L227.4,166z M387.9,148.1c0.1-0.8-0.1-1.6-0.5-2.2l37.1-25.7l20.6,36.2
	c-0.5,0.4-1,0.9-1.3,1.6c-0.1,0.2-0.1,0.4-0.2,0.5L387.9,148.1z M448.8,163.1c0.5-0.2,0.9-0.5,1.3-0.9l51,41.5l-31.3,28L448.8,163.1
	z M570.9,301.4c-0.6,0.2-1.2,0.6-1.6,1.1l-98.2-69.6l79.4,13.3c-0.1,1.6,0.7,3.1,2.2,3.8c1.5,0.7,3.3,0.3,4.4-0.9L570.9,301.4z
	 M652.2,233.6l-24-56.9l3-2.8c0.3,0.2,0.6,0.4,0.9,0.6c0.8,0.3,1.6,0.4,2.3,0.3L652.2,233.6z M672.7,134.4c-0.4,0.4-0.8,0.8-1,1.3
	c-0.1,0.3-0.2,0.6-0.3,0.8l-33.8-3.4l3.7-39.6c0.7,0,1.4-0.2,2-0.5L672.7,134.4z M642.9,86.2c-1.2-0.5-2.6-0.4-3.7,0.3L665.9,48
	L642.9,86.2z M740.3-8.9c-1.3-0.2-2.6,0.4-3.4,1.4L668.7-53l88-43c0.4,0.6,1,1.2,1.7,1.5c0.1,0.1,0.3,0.1,0.4,0.2L740.3-8.9z
	 M756.2-97.2c0,0.2,0.1,0.4,0.2,0.5L668-53.4l-39.1-26.1c0-0.1,0.1-0.1,0.1-0.2c0.3-0.6,0.4-1.3,0.3-1.9L756.2-97.2z M625.2-77.4
	c1.3,0.1,2.5-0.4,3.3-1.4l38.8,25.8l-44.9,22c-0.4-0.6-0.9-1.1-1.7-1.4c-0.2-0.1-0.5-0.2-0.7-0.2L625.2-77.4z M615.4-28.5
	c0.1,0.8,0.5,1.6,1.2,2.2l-52.6,67.2l-55.3-56.8c0.2-0.3,0.4-0.6,0.6-0.9c0.2-0.5,0.3-1.1,0.3-1.6L615.4-28.5z M379.7-9.2
	c-0.7,1.5-0.3,3.1,0.7,4.2l-4.4,5.1l-14.5-58.7L381.4-11C380.7-10.6,380.1-10,379.7-9.2z M356.6-61.5c0.1,0.4,0.3,0.7,0.6,1l-54,52
	L279.7-36c0.3-0.3,0.6-0.7,0.7-1.1c0.3-0.8,0.4-1.6,0.3-2.3L356.6-61.5z M273.5-37.1c0.4,0.8,1,1.5,1.9,1.9c0.2,0.1,0.3,0.1,0.5,0.2
	l-12.1,61.4c-0.9-0.1-1.7,0.1-2.4,0.6L226.4-18c0.4-0.3,0.7-0.8,1-1.3c0.4-0.8,0.4-1.7,0.2-2.5L273.5-37.1z M220.1-21.1
	c0,0.6,0.1,1.2,0.3,1.7l-63.4,38l-26.3-49.9c0.6-0.4,1-0.9,1.3-1.6c0.1-0.3,0.2-0.5,0.3-0.8L220.1-21.1z M126.3-37.4
	c-0.5,0.4-0.9,0.9-1.2,1.5c-0.3,0.6-0.4,1.3-0.3,1.9l-23.9,4.6l-8.7-58.8c0.4-0.1,0.8-0.2,1.1-0.4L126.3-37.4z M12.4-106.5
	c0.2,0.1,0.4,0.2,0.6,0.3c0.5,0.2,1,0.3,1.5,0.3l4.1,35.4l-34.8,10.8c-0.3-0.5-0.6-0.9-1.1-1.3L12.4-106.5z"/>
</svg>
